<svg width="91" height="90" viewBox="0 0 91 90" fill="none" xmlns="http://www.w3.org/2000/svg">
<path d="M43.8447 74.121H10.5647C7.34809 74.121 4.74072 71.5134 4.74072 68.297V62.4727H49.4389L43.8447 74.121Z" fill="#E2DAEB"/>
<path d="M80.4611 27.5275V51.9957V68.2969H10.5647C7.34809 68.2969 4.74072 65.6894 4.74072 62.4728V27.5275L45.513 12.9668L80.4611 27.5275Z" fill="#EFEDF1"/>
<path d="M14.9814 39.1757H11.9697C11.1931 39.1757 10.5635 38.5461 10.5635 37.7695V34.7578C10.5635 33.9812 11.1931 33.3516 11.9697 33.3516H14.9814C15.758 33.3516 16.3876 33.9812 16.3876 34.7578V37.7695C16.3876 38.5461 15.758 39.1757 14.9814 39.1757Z" fill="#694A81"/>
<path d="M26.6269 39.1757H23.6152C22.8386 39.1757 22.209 38.5461 22.209 37.7695V34.7578C22.209 33.9812 22.8386 33.3516 23.6152 33.3516H26.6269C27.4035 33.3516 28.0331 33.9812 28.0331 34.7578V37.7695C28.0331 38.5461 27.4035 39.1757 26.6269 39.1757Z" fill="#694A81"/>
<path d="M38.2786 39.1757H35.267C34.4904 39.1757 33.8607 38.5461 33.8607 37.7695V34.7578C33.8607 33.9812 34.4904 33.3516 35.267 33.3516H38.2786C39.0552 33.3516 39.6849 33.9812 39.6849 34.7578V37.7695C39.6849 38.5461 39.0554 39.1757 38.2786 39.1757Z" fill="#694A81"/>
<path d="M49.9241 39.1757H46.9125C46.1359 39.1757 45.5062 38.5461 45.5062 37.7695V34.7578C45.5062 33.9812 46.1359 33.3516 46.9125 33.3516H49.9241C50.7007 33.3516 51.3304 33.9812 51.3304 34.7578V37.7695C51.3304 38.5461 50.7007 39.1757 49.9241 39.1757Z" fill="#694A81"/>
<path d="M61.5761 39.1757H58.5645C57.7879 39.1757 57.1582 38.5461 57.1582 37.7695V34.7578C57.1582 33.9812 57.7879 33.3516 58.5645 33.3516H61.5761C62.3527 33.3516 62.9824 33.9812 62.9824 34.7578V37.7695C62.9824 38.5461 62.3527 39.1757 61.5761 39.1757Z" fill="#694A81"/>
<path d="M73.2277 39.1757H70.2161C69.4395 39.1757 68.8098 38.5461 68.8098 37.7695V34.7578C68.8098 33.9812 69.4395 33.3516 70.2161 33.3516H73.2277C74.0043 33.3516 74.634 33.9812 74.634 34.7578V37.7695C74.634 38.5461 74.0045 39.1757 73.2277 39.1757Z" fill="#694A81"/>
<path d="M14.9814 50.8242H11.9697C11.1931 50.8242 10.5635 50.1945 10.5635 49.4179V46.4062C10.5635 45.6296 11.1931 45 11.9697 45H14.9814C15.758 45 16.3876 45.6296 16.3876 46.4062V49.4179C16.3876 50.1947 15.758 50.8242 14.9814 50.8242Z" fill="#694A81"/>
<path d="M26.6269 50.8242H23.6152C22.8386 50.8242 22.209 50.1945 22.209 49.4179V46.4062C22.209 45.6296 22.8386 45 23.6152 45H26.6269C27.4035 45 28.0331 45.6296 28.0331 46.4062V49.4179C28.0331 50.1947 27.4035 50.8242 26.6269 50.8242Z" fill="#694A81"/>
<path d="M38.2786 50.8242H35.267C34.4904 50.8242 33.8607 50.1945 33.8607 49.4179V46.4062C33.8607 45.6296 34.4904 45 35.267 45H38.2786C39.0552 45 39.6849 45.6296 39.6849 46.4062V49.4179C39.6849 50.1947 39.0554 50.8242 38.2786 50.8242Z" fill="#694A81"/>
<path d="M51.3304 50.8242V46.456C51.3304 45.6518 50.6784 45 49.8744 45H46.9622C46.158 45 45.5062 45.652 45.5062 46.456V49.3682C45.5062 50.1724 46.1582 50.8242 46.9622 50.8242H51.3304Z" fill="#694A81"/>
<path d="M14.9814 62.4726H11.9697C11.1931 62.4726 10.5635 61.8429 10.5635 61.0663V58.0547C10.5635 57.2781 11.1931 56.6484 11.9697 56.6484H14.9814C15.758 56.6484 16.3876 57.2781 16.3876 58.0547V61.0663C16.3876 61.8429 15.758 62.4726 14.9814 62.4726Z" fill="#694A81"/>
<path d="M26.6269 62.4726H23.6152C22.8386 62.4726 22.209 61.8429 22.209 61.0663V58.0547C22.209 57.2781 22.8386 56.6484 23.6152 56.6484H26.6269C27.4035 56.6484 28.0331 57.2781 28.0331 58.0547V61.0663C28.0331 61.8429 27.4035 62.4726 26.6269 62.4726Z" fill="#694A81"/>
<path d="M38.279 62.4726H35.2673C34.4907 62.4726 33.8611 61.8429 33.8611 61.0663V58.0547C33.8611 57.2781 34.4907 56.6484 35.2673 56.6484H38.279C39.0556 56.6484 39.6852 57.2781 39.6852 58.0547V61.0663C39.6852 61.8429 39.0558 62.4726 38.279 62.4726Z" fill="#694A81"/>
<path d="M73.2253 33.3516H70.2137C70.0314 33.3516 69.8579 33.3874 69.6981 33.4505C70.2193 33.6564 70.5888 34.1635 70.5888 34.758V37.7696C70.5888 38.3641 70.2195 38.8713 69.6981 39.0769C69.8579 39.14 70.0316 39.1759 70.2137 39.1759H73.2253C74.0019 39.1759 74.6316 38.5463 74.6316 37.7696V34.758C74.6316 33.9812 74.0021 33.3516 73.2253 33.3516Z" fill="#512D6D"/>
<path d="M61.5736 33.3516H58.562C58.3797 33.3516 58.2062 33.3874 58.0464 33.4505C58.5676 33.6564 58.9371 34.1635 58.9371 34.758V37.7696C58.9371 38.3641 58.5678 38.8713 58.0464 39.0769C58.2062 39.14 58.3797 39.1759 58.562 39.1759H61.5736C62.3502 39.1759 62.9799 38.5463 62.9799 37.7696V34.758C62.9799 33.9812 62.3502 33.3516 61.5736 33.3516Z" fill="#512D6D"/>
<path d="M49.9343 33.3516H46.9227C46.7404 33.3516 46.5669 33.3874 46.4071 33.4505C46.9283 33.6564 47.2978 34.1635 47.2978 34.758V37.7696C47.2978 38.3641 46.9285 38.8713 46.4071 39.0769C46.5669 39.14 46.7404 39.1759 46.9227 39.1759H49.9343C50.7109 39.1759 51.3406 38.5463 51.3406 37.7696V34.758C51.3406 33.9812 50.7109 33.3516 49.9343 33.3516Z" fill="#512D6D"/>
<path d="M38.2826 33.3516H35.2709C35.0887 33.3516 34.9152 33.3874 34.7554 33.4505C35.2766 33.6564 35.6461 34.1635 35.6461 34.758V37.7696C35.6461 38.3641 35.2767 38.8713 34.7554 39.0769C34.9152 39.14 35.0887 39.1759 35.2709 39.1759H38.2826C39.0592 39.1759 39.6888 38.5463 39.6888 37.7696V34.758C39.6888 33.9812 39.0594 33.3516 38.2826 33.3516Z" fill="#512D6D"/>
<path d="M26.6371 33.3516H23.6254C23.4431 33.3516 23.2696 33.3874 23.1099 33.4505C23.6311 33.6564 24.0005 34.1635 24.0005 34.758V37.7696C24.0005 38.3641 23.6312 38.8713 23.1099 39.0769C23.2696 39.14 23.4431 39.1759 23.6254 39.1759H26.6371C27.4137 39.1759 28.0433 38.5463 28.0433 37.7696V34.758C28.0433 33.9812 27.4137 33.3516 26.6371 33.3516Z" fill="#512D6D"/>
<path d="M14.9854 33.3516H11.9737C11.7914 33.3516 11.6179 33.3874 11.4581 33.4505C11.9793 33.6564 12.3488 34.1635 12.3488 34.758V37.7696C12.3488 38.3641 11.9795 38.8713 11.4581 39.0769C11.6179 39.14 11.7916 39.1759 11.9737 39.1759H14.9854C15.762 39.1759 16.3916 38.5463 16.3916 37.7696V34.758C16.3916 33.9812 15.762 33.3516 14.9854 33.3516Z" fill="#512D6D"/>
<path d="M14.9854 45H11.9737C11.7914 45 11.6179 45.0359 11.4581 45.099C11.9793 45.3048 12.3488 45.8119 12.3488 46.4064V49.4181C12.3488 50.0126 11.9795 50.5197 11.4581 50.7254C11.6179 50.7885 11.7916 50.8243 11.9737 50.8243H14.9854C15.762 50.8243 16.3916 50.1947 16.3916 49.4181V46.4062C16.3916 45.6296 15.762 45 14.9854 45Z" fill="#512D6D"/>
<path d="M14.9854 56.6484H11.9737C11.7914 56.6484 11.6179 56.6843 11.4581 56.7474C11.9793 56.9532 12.3488 57.4604 12.3488 58.0549V61.0663C12.3488 61.6608 11.9795 62.168 11.4581 62.3736C11.6179 62.4367 11.7916 62.4726 11.9737 62.4726H14.9854C15.762 62.4726 16.3916 61.8429 16.3916 61.0663V58.0547C16.3916 57.2779 15.762 56.6484 14.9854 56.6484Z" fill="#512D6D"/>
<path d="M26.6371 45H23.6254C23.4431 45 23.2696 45.0359 23.1099 45.099C23.6311 45.3048 24.0005 45.8119 24.0005 46.4064V49.4181C24.0005 50.0126 23.6312 50.5197 23.1099 50.7254C23.2696 50.7885 23.4431 50.8243 23.6254 50.8243H26.6371C27.4137 50.8243 28.0433 50.1947 28.0433 49.4181V46.4062C28.0433 45.6296 27.4137 45 26.6371 45Z" fill="#512D6D"/>
<path d="M26.6371 56.6484H23.6254C23.4431 56.6484 23.2696 56.6843 23.1099 56.7474C23.6311 56.9532 24.0005 57.4604 24.0005 58.0549V61.0663C24.0005 61.6608 23.6312 62.168 23.1099 62.3736C23.2696 62.4367 23.4431 62.4726 23.6254 62.4726H26.6371C27.4137 62.4726 28.0433 61.8429 28.0433 61.0663V58.0547C28.0433 57.2779 27.4137 56.6484 26.6371 56.6484Z" fill="#512D6D"/>
<path d="M38.2826 45H35.2709C35.0887 45 34.9152 45.0359 34.7554 45.099C35.2766 45.3048 35.6461 45.8119 35.6461 46.4064V49.4181C35.6461 50.0126 35.2767 50.5197 34.7554 50.7254C34.9152 50.7885 35.0887 50.8243 35.2709 50.8243H38.2826C39.0592 50.8243 39.6888 50.1947 39.6888 49.4181V46.4062C39.6888 45.6296 39.0594 45 38.2826 45Z" fill="#512D6D"/>
<path d="M51.3406 50.8242V46.4062C51.3406 45.6296 50.7109 45 49.9343 45H46.9227C46.7404 45 46.5669 45.0359 46.4071 45.099C46.9283 45.3048 47.2978 45.8119 47.2978 46.4064V49.4181C47.2978 50.0126 46.9285 50.5197 46.4071 50.7254C46.5669 50.7885 46.7404 50.8243 46.9227 50.8243H51.3406V50.8242Z" fill="#512D6D"/>
<path d="M38.2826 56.6484H35.2709C35.0887 56.6484 34.9152 56.6843 34.7554 56.7474C35.2766 56.9532 35.6461 57.4604 35.6461 58.0549V61.0663C35.6461 61.6608 35.2767 62.168 34.7554 62.3736C34.9152 62.4367 35.0887 62.4726 35.2709 62.4726H38.2826C39.0592 62.4726 39.6888 61.8429 39.6888 61.0663V58.0547C39.6888 57.2779 39.0594 56.6484 38.2826 56.6484Z" fill="#512D6D"/>
<path d="M76.4155 25.8418V51.9958V68.297H80.4613V51.9958V27.5275L76.4155 25.8418Z" fill="#E2DAEB"/>
<path d="M80.4611 27.5272V12.9666C80.4611 9.74994 77.8536 7.14258 74.6371 7.14258H10.5647C7.34809 7.14258 4.74072 9.75012 4.74072 12.9666V27.5272H80.4611Z" fill="#FFBF3F"/>
<path d="M29.4923 12.2388C29.4923 14.2492 27.8626 15.8788 25.8522 15.8788C23.8418 15.8788 22.2122 14.249 22.2122 12.2388V4.95844C22.2122 2.94803 23.8418 1.31836 25.8522 1.31836C27.8626 1.31836 29.4923 2.94803 29.4923 4.95844V12.2388Z" fill="#EFEDF1"/>
<path d="M62.9847 12.2388C62.9847 14.2492 61.3551 15.8788 59.3447 15.8788C57.3343 15.8788 55.7046 14.249 55.7046 12.2388V4.95844C55.7046 2.94803 57.3343 1.31836 59.3447 1.31836C61.3551 1.31836 62.9847 2.94803 62.9847 4.95844V12.2388Z" fill="#EFEDF1"/>
<path d="M59.344 1.31836C58.5968 1.31836 57.9024 1.54424 57.3245 1.93043C58.3013 2.58328 58.945 3.69527 58.945 4.95844V12.2388C58.945 13.5018 58.3013 14.6139 57.3245 15.2668C57.9024 15.653 58.5966 15.8788 59.344 15.8788C61.3544 15.8788 62.9841 14.249 62.9841 12.2388V4.95844C62.9843 2.94803 61.3544 1.31836 59.344 1.31836Z" fill="#E2DAEB"/>
<path d="M25.8577 1.31836C25.1104 1.31836 24.4161 1.54424 23.8381 1.93043C24.815 2.58328 25.4587 3.69527 25.4587 4.95844V12.2388C25.4587 13.5018 24.815 14.6139 23.8381 15.2668C24.4161 15.653 25.1103 15.8788 25.8577 15.8788C27.8681 15.8788 29.4978 14.249 29.4978 12.2388V4.95844C29.4978 2.94803 27.8681 1.31836 25.8577 1.31836Z" fill="#E2DAEB"/>
<path d="M74.6403 7.14258H70.5959C73.8124 7.14258 76.4199 9.75012 76.4199 12.9666V27.5274H80.4643V12.9667C80.4643 9.75012 77.8568 7.14258 74.6403 7.14258Z" fill="#EFAC24"/>
<path d="M64.436 88.6816C76.4984 88.6816 86.2769 78.9032 86.2769 66.8408C86.2769 54.7785 76.4984 45 64.436 45C52.3737 45 42.5952 54.7785 42.5952 66.8408C42.5952 78.9032 52.3737 88.6816 64.436 88.6816Z" fill="#1E96E7"/>
<path d="M64.4378 82.8575C73.2836 82.8575 80.4545 75.6866 80.4545 66.8409C80.4545 57.9951 73.2836 50.8242 64.4378 50.8242C55.592 50.8242 48.4211 57.9951 48.4211 66.8409C48.4211 75.6866 55.592 82.8575 64.4378 82.8575Z" fill="#EFEDF1"/>
<path d="M64.436 45C63.7544 45 63.0804 45.0329 62.4146 45.094C73.529 46.1143 82.2339 55.4602 82.2339 66.8408C82.2339 78.2214 73.529 87.5674 62.4146 88.5876C63.0804 88.6488 63.7544 88.6816 64.436 88.6816C76.4983 88.6816 86.2769 78.9031 86.2769 66.8408C86.2769 54.7785 76.4985 45 64.436 45Z" fill="#0077C8"/>
<path d="M64.4346 50.8242C63.7503 50.8242 63.0762 50.8675 62.4146 50.9506C70.3066 51.9438 76.4111 58.6794 76.4111 66.8407C76.4111 75.0021 70.3068 81.7376 62.4146 82.7308C63.0762 82.8141 63.7503 82.8572 64.4346 82.8572C73.2803 82.8572 80.4513 75.6864 80.4513 66.8405C80.4513 57.9947 73.2805 50.8242 64.4346 50.8242Z" fill="#E2DAEB"/>
<path d="M64.4351 69.753C66.0435 69.753 67.3473 68.4492 67.3473 66.8409C67.3473 65.2325 66.0435 63.9287 64.4351 63.9287C62.8268 63.9287 61.5229 65.2325 61.5229 66.8409C61.5229 68.4492 62.8268 69.753 64.4351 69.753Z" fill="#CDB9DA"/>
<path d="M11.965 40.4941H14.9768C16.4792 40.4941 17.7014 39.2719 17.7014 37.7695V34.7578C17.7014 33.2554 16.4792 32.0332 14.9768 32.0332H11.965C10.4626 32.0332 9.24036 33.2554 9.24036 34.7578V37.7695C9.24036 39.2719 10.4626 40.4941 11.965 40.4941ZM11.8771 34.7576C11.8771 34.7091 11.9166 34.6697 11.965 34.6697H14.9768C15.0251 34.6697 15.0647 34.7091 15.0647 34.7576V37.7693C15.0647 37.8178 15.0251 37.8572 14.9768 37.8572H11.965C11.9166 37.8572 11.8771 37.8178 11.8771 37.7693V34.7576Z" fill="black"/>
<path d="M23.6167 40.4941H26.6284C28.1308 40.4941 29.353 39.2719 29.353 37.7695V34.7578C29.353 33.2554 28.1308 32.0332 26.6284 32.0332H23.6167C22.1143 32.0332 20.8921 33.2554 20.8921 34.7578V37.7695C20.8921 39.2719 22.1143 40.4941 23.6167 40.4941ZM23.5288 34.7576C23.5288 34.7091 23.5684 34.6697 23.6167 34.6697H26.6284C26.6767 34.6697 26.7162 34.7091 26.7162 34.7576V37.7693C26.7162 37.8178 26.6767 37.8572 26.6284 37.8572H23.6167C23.5684 37.8572 23.5288 37.8178 23.5288 37.7693V34.7576Z" fill="black"/>
<path d="M35.256 40.4941H38.2676C39.77 40.4941 40.9923 39.2719 40.9923 37.7695V34.7578C40.9923 33.2554 39.77 32.0332 38.2676 32.0332H35.256C33.7536 32.0332 32.5314 33.2554 32.5314 34.7578V37.7695C32.5314 39.2719 33.7536 40.4941 35.256 40.4941ZM35.1681 34.7576C35.1681 34.7091 35.2076 34.6697 35.256 34.6697H38.2676C38.316 34.6697 38.3555 34.7091 38.3555 34.7576V37.7693C38.3555 37.8178 38.316 37.8572 38.2676 37.8572H35.256C35.2076 37.8572 35.1681 37.8178 35.1681 37.7693V34.7576Z" fill="black"/>
<path d="M49.9194 40.4941C51.4218 40.4941 52.644 39.2719 52.644 37.7695V34.7578C52.644 33.2554 51.4218 32.0332 49.9194 32.0332H46.9077C45.4053 32.0332 44.1831 33.2554 44.1831 34.7578V37.7695C44.1831 39.2719 45.4053 40.4941 46.9077 40.4941H49.9194ZM46.8198 37.7695V34.7578C46.8198 34.7093 46.8594 34.6699 46.9077 34.6699H49.9194C49.9677 34.6699 50.0073 34.7093 50.0073 34.7578V37.7695C50.0073 37.818 49.9677 37.8574 49.9194 37.8574H46.9077C46.8594 37.8574 46.8198 37.818 46.8198 37.7695Z" fill="black"/>
<path d="M61.5712 40.4941C63.0736 40.4941 64.2958 39.2719 64.2958 37.7695V34.7578C64.2958 33.2554 63.0736 32.0332 61.5712 32.0332H58.5596C57.0572 32.0332 55.835 33.2554 55.835 34.7578V37.7695C55.835 39.2719 57.0572 40.4941 58.5596 40.4941H61.5712ZM58.4717 37.7695V34.7578C58.4717 34.7093 58.5112 34.6699 58.5596 34.6699H61.5712C61.6196 34.6699 61.6591 34.7093 61.6591 34.7578V37.7695C61.6591 37.818 61.6196 37.8574 61.5712 37.8574H58.5596C58.5111 37.8574 58.4717 37.818 58.4717 37.7695Z" fill="black"/>
<path d="M73.2167 40.4941C74.7191 40.4941 75.9413 39.2719 75.9413 37.7695V34.7578C75.9413 33.2554 74.7191 32.0332 73.2167 32.0332H70.2051C68.7027 32.0332 67.4805 33.2554 67.4805 34.7578V37.7695C67.4805 39.2719 68.7027 40.4941 70.2051 40.4941H73.2167ZM70.1172 37.7695V34.7578C70.1172 34.7093 70.1567 34.6699 70.2051 34.6699H73.2167C73.2651 34.6699 73.3046 34.7093 73.3046 34.7578V37.7695C73.3046 37.818 73.2651 37.8574 73.2167 37.8574H70.2051C70.1567 37.8574 70.1172 37.818 70.1172 37.7695Z" fill="black"/>
<path d="M9.24036 49.4179C9.24036 50.9203 10.4626 52.1425 11.965 52.1425H14.9768C16.4792 52.1425 17.7014 50.9203 17.7014 49.4179V46.4062C17.7014 44.9038 16.4792 43.6816 14.9768 43.6816H11.965C10.4626 43.6816 9.24036 44.9038 9.24036 46.4062V49.4179ZM11.8771 46.4062C11.8771 46.3577 11.9166 46.3184 11.965 46.3184H14.9768C15.0251 46.3184 15.0647 46.3577 15.0647 46.4062V49.4179C15.0647 49.4664 15.0251 49.5058 14.9768 49.5058H11.965C11.9166 49.5058 11.8771 49.4664 11.8771 49.4179V46.4062Z" fill="black"/>
<path d="M20.8921 49.4179C20.8921 50.9203 22.1143 52.1425 23.6167 52.1425H26.6284C28.1308 52.1425 29.353 50.9203 29.353 49.4179V46.4062C29.353 44.9038 28.1308 43.6816 26.6284 43.6816H23.6167C22.1143 43.6816 20.8921 44.9038 20.8921 46.4062V49.4179ZM23.5288 46.4062C23.5288 46.3577 23.5684 46.3184 23.6167 46.3184H26.6284C26.6767 46.3184 26.7162 46.3577 26.7162 46.4062V49.4179C26.7162 49.4664 26.6767 49.5058 26.6284 49.5058H23.6167C23.5684 49.5058 23.5288 49.4664 23.5288 49.4179V46.4062Z" fill="black"/>
<path d="M32.5314 49.4179C32.5314 50.9203 33.7536 52.1425 35.256 52.1425H38.2676C39.77 52.1425 40.9923 50.9203 40.9923 49.4179V46.4062C40.9923 44.9038 39.77 43.6816 38.2676 43.6816H35.256C33.7536 43.6816 32.5314 44.9038 32.5314 46.4062V49.4179ZM35.1681 46.4062C35.1681 46.3577 35.2076 46.3184 35.256 46.3184H38.2676C38.316 46.3184 38.3555 46.3577 38.3555 46.4062V49.4179C38.3555 49.4664 38.316 49.5058 38.2676 49.5058H35.256C35.2076 49.5058 35.1681 49.4664 35.1681 49.4179V46.4062Z" fill="black"/>
<path d="M9.24036 61.0663C9.24036 62.5687 10.4626 63.791 11.965 63.791H14.9768C16.4792 63.791 17.7014 62.5687 17.7014 61.0663V58.0547C17.7014 56.5523 16.4792 55.3301 14.9768 55.3301H11.965C10.4626 55.3301 9.24036 56.5523 9.24036 58.0547V61.0663ZM11.8771 58.0547C11.8771 58.0062 11.9166 57.9668 11.965 57.9668H14.9768C15.0251 57.9668 15.0647 58.0062 15.0647 58.0547V61.0663C15.0647 61.1149 15.0251 61.1542 14.9768 61.1542H11.965C11.9166 61.1542 11.8771 61.1149 11.8771 61.0663V58.0547Z" fill="black"/>
<path d="M20.8921 61.0663C20.8921 62.5687 22.1143 63.791 23.6167 63.791H26.6284C28.1308 63.791 29.353 62.5687 29.353 61.0663V58.0547C29.353 56.5523 28.1308 55.3301 26.6284 55.3301H23.6167C22.1143 55.3301 20.8921 56.5523 20.8921 58.0547V61.0663ZM23.5288 58.0547C23.5288 58.0062 23.5684 57.9668 23.6167 57.9668H26.6284C26.6767 57.9668 26.7162 58.0062 26.7162 58.0547V61.0663C26.7162 61.1149 26.6767 61.1542 26.6284 61.1542H23.6167C23.5684 61.1542 23.5288 61.1149 23.5288 61.0663V58.0547Z" fill="black"/>
<path d="M32.5314 61.0663C32.5314 62.5687 33.7536 63.791 35.256 63.791H38.2676C39.77 63.791 40.9923 62.5687 40.9923 61.0663V58.0547C40.9923 56.5523 39.77 55.3301 38.2676 55.3301H35.256C33.7536 55.3301 32.5314 56.5523 32.5314 58.0547V61.0663ZM35.1681 58.0547C35.1681 58.0062 35.2076 57.9668 35.256 57.9668H38.2676C38.316 57.9668 38.3555 58.0062 38.3555 58.0547V61.0663C38.3555 61.1149 38.316 61.1542 38.2676 61.1542H35.256C35.2076 61.1542 35.1681 61.1149 35.1681 61.0663V58.0547Z" fill="black"/>
<path d="M81.7719 51.505V12.9667C81.7719 9.0283 78.5679 5.82434 74.6293 5.82434H64.2953V4.95861C64.2953 2.22434 62.071 0 59.3369 0C56.6028 0 54.3785 2.22434 54.3785 4.95844V5.82416H30.8043V4.95844C30.8043 2.22434 28.5799 0 25.8458 0C23.1115 0 20.8872 2.22434 20.8872 4.95844V5.82416H10.5571C6.61869 5.82416 3.41455 9.0283 3.41455 12.9665V33.627C3.41455 34.355 4.00465 34.9453 4.73291 34.9453C5.46117 34.9453 6.05127 34.355 6.05127 33.627V28.8457H79.1351V48.9591C75.1335 45.6634 70.0109 43.6816 64.434 43.6816C60.1325 43.6816 56.102 44.8618 52.6468 46.9134V46.456C52.6468 44.9262 51.4023 43.6816 49.8725 43.6816H46.9605C45.4307 43.6816 44.1861 44.9262 44.1861 46.456V49.3682C44.1861 50.7667 45.2273 51.9237 46.5745 52.1125C43.2652 56.1182 41.2748 61.2513 41.2748 66.8408C41.2748 66.8869 41.2763 66.9324 41.2766 66.9785H10.5571C8.07258 66.9785 6.05127 64.9571 6.05127 62.4728V38.9004C6.05127 38.1723 5.46117 37.582 4.73291 37.582C4.00465 37.582 3.41455 38.1723 3.41455 38.9004V68.297C3.41455 72.2354 6.61852 75.4393 10.5571 75.4393H13.7466C14.4749 75.4393 15.065 74.8491 15.065 74.121C15.065 73.3929 14.4749 72.8026 13.7466 72.8026H10.5571C8.07258 72.8026 6.05127 70.7813 6.05127 68.297V68.0096C7.28121 69.0124 8.84988 69.6152 10.5571 69.6152H41.4417C41.5721 70.7026 41.7781 71.7667 42.0543 72.8028H19.0199C18.2916 72.8028 17.7015 73.3931 17.7015 74.1212C17.7015 74.8492 18.2916 75.4395 19.0199 75.4395H42.9309C46.3521 83.9642 54.701 90 64.434 90C77.204 90 87.5932 79.6108 87.5932 66.8408C87.5932 60.9641 85.3919 55.5928 81.7719 51.505ZM57.0152 4.95844C57.0152 3.67822 58.0567 2.63672 59.3369 2.63672C60.6171 2.63672 61.6586 3.67822 61.6586 4.95844V12.2388C61.6586 13.519 60.6171 14.5607 59.3369 14.5607C58.0567 14.5607 57.0152 13.5192 57.0152 12.2388V4.95844ZM23.5239 4.95844C23.5239 3.67822 24.5656 2.63672 25.8458 2.63672C27.126 2.63672 28.1675 3.67822 28.1675 4.95844V12.2388C28.1675 13.519 27.126 14.5607 25.8458 14.5607C24.5656 14.5607 23.5239 13.5192 23.5239 12.2388V4.95844ZM10.5571 8.46088H20.8872V11.6483H19.2936C18.5653 11.6483 17.9752 12.2386 17.9752 12.9667C17.9752 13.6948 18.5653 14.285 19.2936 14.285H21.3311C22.1119 16.0007 23.8412 17.1972 25.8458 17.1972C27.8504 17.1972 29.5798 16.0008 30.3604 14.285H32.3979C33.1262 14.285 33.7162 13.6948 33.7162 12.9667C33.7162 12.2386 33.1262 11.6483 32.3979 11.6483H30.8043V8.46088H54.3785V11.6483H52.7846C52.0564 11.6483 51.4663 12.2386 51.4663 12.9667C51.4663 13.6948 52.0564 14.285 52.7846 14.285H54.8223C55.6031 16.0007 57.3325 17.1972 59.3369 17.1972C61.3413 17.1972 63.0708 16.0008 63.8515 14.285H65.8891C66.6174 14.285 67.2075 13.6948 67.2075 12.9667C67.2075 12.2386 66.6174 11.6483 65.8891 11.6483H64.2953V8.46088H74.6293C77.1138 8.46088 79.1351 10.4822 79.1351 12.9665V20.3846H6.05145V12.9667C6.05145 10.4822 8.07275 8.46088 10.5571 8.46088ZM6.05145 26.209V23.0215H79.1353V26.209H6.05145ZM46.8229 46.456C46.8229 46.3801 46.8847 46.3184 46.9605 46.3184H49.8725C49.9484 46.3184 50.0101 46.3802 50.0101 46.456V48.7357C49.6983 48.9846 49.3933 49.2414 49.0948 49.5058H46.9603C46.8844 49.5058 46.8227 49.4439 46.8227 49.3682L46.8229 46.456ZM64.434 87.3633C53.1179 87.3633 43.9116 78.1569 43.9116 66.8408C43.9116 55.5247 53.1179 46.3184 64.434 46.3184C75.7501 46.3184 84.9565 55.5247 84.9565 66.8408C84.9565 78.1569 75.7501 87.3633 64.434 87.3633Z" fill="black"/>
<path d="M64.431 49.5059C54.8726 49.5059 47.0962 57.2822 47.0962 66.8409C47.0962 76.3995 54.8726 84.1759 64.431 84.1759C73.9897 84.1759 81.7661 76.3995 81.7661 66.8409C81.7661 57.2822 73.9897 49.5059 64.431 49.5059ZM64.431 81.5392C56.3263 81.5392 49.7329 74.9456 49.7329 66.8409C49.7329 58.7361 56.3265 52.1426 64.431 52.1426C72.5356 52.1426 79.1293 58.7361 79.1293 66.8409C79.1293 74.9456 72.5358 81.5392 64.431 81.5392Z" fill="black"/>
<path d="M71.715 65.5224H68.4537C68.0348 64.2487 67.0269 63.2406 65.7532 62.8217V56.6484C65.7532 55.9204 65.1631 55.3301 64.4348 55.3301C63.7066 55.3301 63.1165 55.9204 63.1165 56.6484V62.8217C61.4276 63.3772 60.2045 64.9683 60.2045 66.8408C60.2045 69.1736 62.1022 71.0713 64.4348 71.0713C66.3072 71.0713 67.8984 69.848 68.4537 68.1591H71.715C72.4432 68.1591 73.0333 67.5688 73.0333 66.8408C73.0333 66.1127 72.4432 65.5224 71.715 65.5224ZM64.4346 68.4346C63.5559 68.4346 62.841 67.7197 62.841 66.8408C62.841 65.9619 63.5559 65.247 64.4346 65.247C65.3134 65.247 66.0283 65.9619 66.0283 66.8408C66.0283 67.7197 65.3134 68.4346 64.4346 68.4346Z" fill="black"/>
</svg>
