<svg width="64" height="64" viewBox="0 0 64 64" fill="none" xmlns="http://www.w3.org/2000/svg">
<g clip-path="url(#clip0_2028_24445)">
<path d="M60.1785 41.6115C56.8864 38.3168 52.3183 36.9211 46.4517 38.4933L25.5319 17.5523L25.8084 16.5068C27.0133 11.9861 25.7114 7.12672 22.4119 3.82722C19.0524 0.465096 14.2764 -0.768529 9.75955 0.472221C9.11543 0.649096 8.61405 1.15522 8.44342 1.8011C8.2728 2.44697 8.45992 3.13347 8.93205 3.60585L13.9692 8.64297C15.4418 10.1192 15.4274 12.4835 13.9728 13.942C12.5297 15.389 10.1039 15.3867 8.66655 13.9456L3.62842 8.9071C3.15605 8.43447 2.46755 8.2491 1.82167 8.42072C1.17567 8.59222 0.671425 9.09485 0.495175 9.7396C-0.72745 14.2068 0.4753 19.0125 3.85092 22.3881C7.14167 25.6812 11.7041 27.082 17.5742 25.5063L38.4955 46.4473C36.9343 52.3122 38.281 56.8361 41.6174 60.1725C44.9812 63.5387 49.7594 64.7632 54.2664 63.5266C54.9107 63.3499 55.4122 62.8436 55.5829 62.1977C55.7537 61.5519 55.5667 60.8652 55.0943 60.3927L50.0583 55.3567C48.5857 53.8805 48.6 51.516 50.0547 50.0577C51.5158 48.6041 53.9362 48.6272 55.3609 50.0559L60.3994 55.093C60.8718 55.5653 61.5603 55.7507 62.206 55.5791C62.8519 55.4075 63.3562 54.9051 63.5324 54.2605C64.7551 49.794 63.5525 44.9871 60.1785 41.6115Z" fill="#F9ED20"/>
<path d="M20.0693 33.3252L2.19531 51.2014C-0.729816 54.1266 -0.729816 58.8833 2.19531 61.8083C5.12043 64.7334 9.87718 64.7334 12.8022 61.8083L30.6758 43.9326L20.0693 33.3252ZM11.0407 55.9894C10.3082 56.7219 9.12193 56.7219 8.38943 55.9894C7.65706 55.2571 7.65706 54.0706 8.38943 53.3382L19.7619 41.9636C20.4943 41.2312 21.6809 41.2312 22.4132 41.9636C23.1456 42.6959 23.1456 43.8824 22.4132 44.6148L11.0407 55.9894Z" fill="#F9ED20"/>
<path d="M63.4499 3.78164L60.2175 0.549269C59.6091 -0.0591063 58.665 -0.175356 57.9273 0.267019L47.9839 6.23239C46.9376 6.86002 46.76 8.30339 47.6225 9.16602L48.414 9.95727L35.7915 22.5281L41.0959 27.8325L53.7184 15.2616L54.8333 16.3768C55.6959 17.2391 57.1394 17.0616 57.7669 16.0154L63.7323 6.07202C64.1745 5.33414 64.0583 4.39002 63.4499 3.78164Z" fill="#F9ED20"/>
</g>
<defs>
<clipPath id="clip0_2028_24445">
<rect width="64" height="64" fill="white"/>
</clipPath>
</defs>
</svg>
