<svg width="12" height="13" viewBox="0 0 12 13" fill="none" xmlns="http://www.w3.org/2000/svg">
<g id="call" clip-path="url(#clip0_2127_9900)">
<g id="XMLID_7_">
<path id="XMLID_8_" d="M10.265 6.01222C10.2794 4.32037 8.83845 2.76939 7.05288 2.55492C7.01736 2.55071 6.97868 2.5443 6.93772 2.53751C6.84932 2.52287 6.75791 2.50781 6.66567 2.50781C6.29971 2.50781 6.20188 2.76488 6.17613 2.9182C6.15109 3.06727 6.17497 3.19245 6.24701 3.29042C6.3682 3.45522 6.58145 3.48447 6.75273 3.50791C6.80293 3.51484 6.85029 3.52129 6.88994 3.5302C8.49422 3.88867 9.0344 4.45226 9.2984 6.04289C9.30485 6.08176 9.30776 6.12965 9.31085 6.18045C9.32237 6.37058 9.34637 6.76617 9.77166 6.76617H9.7717C9.8071 6.76617 9.84515 6.76312 9.88476 6.75708C10.2808 6.69689 10.2684 6.33529 10.2624 6.16155C10.2608 6.11262 10.2591 6.06633 10.2633 6.03555C10.2644 6.0278 10.265 6.02001 10.265 6.01222Z" fill="#CDB9DA"/>
<path id="XMLID_9_" d="M6.56177 1.93388C6.60929 1.93731 6.65427 1.94059 6.69172 1.94633C9.3261 2.35146 10.5376 3.59961 10.8734 6.25459C10.8791 6.29972 10.8799 6.35476 10.8809 6.41305C10.8842 6.62048 10.8911 7.05199 11.3545 7.06094L11.3689 7.06108C11.5143 7.06108 11.6299 7.01726 11.7126 6.93072C11.8568 6.77983 11.8468 6.55567 11.8386 6.37552C11.8367 6.33132 11.8348 6.28969 11.8353 6.25325C11.8688 3.53789 9.51832 1.07562 6.80539 0.984053C6.79413 0.983681 6.7834 0.984277 6.77256 0.985805C6.76723 0.986587 6.75735 0.987556 6.74043 0.987556C6.71338 0.987556 6.6801 0.985208 6.6448 0.982823C6.60213 0.979917 6.55376 0.976562 6.50472 0.976562C6.07268 0.976562 5.99054 1.28364 5.98003 1.4667C5.95581 1.88976 6.36508 1.91953 6.56177 1.93388Z" fill="#CDB9DA"/>
<path id="XMLID_10_" d="M10.7463 9.68643C10.6903 9.64365 10.6324 9.59937 10.5782 9.5557C10.2906 9.32423 9.98456 9.11088 9.68862 8.90453C9.62721 8.86175 9.56579 8.81893 9.5046 8.77599C9.12552 8.50972 8.78471 8.38033 8.46272 8.38033C8.02904 8.38033 7.65093 8.61996 7.33886 9.09247C7.2006 9.30194 7.03286 9.4038 6.82614 9.4038C6.7039 9.4038 6.56501 9.36891 6.41337 9.30008C5.18978 8.74521 4.31605 7.89448 3.81641 6.77151C3.57488 6.22875 3.65318 5.87397 4.07825 5.58522C4.31963 5.4214 4.76892 5.1164 4.73709 4.53235C4.70106 3.86911 3.23765 1.8735 2.62107 1.64684C2.36001 1.55084 2.08573 1.54994 1.80436 1.6446C1.09554 1.88289 0.586884 2.30136 0.333244 2.8547C0.0881384 3.38937 0.0992067 4.01717 0.365256 4.67024C1.13437 6.55842 2.21572 8.20465 3.57936 9.56315C4.91411 10.893 6.55465 11.9823 8.45534 12.8007C8.62666 12.8744 8.80636 12.9147 8.93758 12.944C8.9823 12.954 9.02091 12.9626 9.04904 12.9703C9.06451 12.9745 9.08046 12.9768 9.09645 12.977L9.11147 12.977C9.11147 12.977 9.11147 12.977 9.11154 12.977C10.0055 12.977 11.0789 12.1601 11.4086 11.2288C11.6974 10.4134 11.1701 10.0103 10.7463 9.68643Z" fill="#CDB9DA"/>
<path id="XMLID_11_" d="M6.95724 4.09017C6.80419 4.09405 6.48567 4.10195 6.3739 4.42636C6.32162 4.57796 6.32788 4.70959 6.39253 4.81759C6.48742 4.97605 6.66921 5.0246 6.83456 5.05125C7.43422 5.14747 7.7422 5.47908 7.8038 6.09473C7.83242 6.3818 8.02573 6.58226 8.27393 6.58226C8.29226 6.58226 8.31104 6.58118 8.32971 6.5789C8.62822 6.54339 8.77293 6.32407 8.75985 5.9271C8.76462 5.5128 8.5478 5.04246 8.17904 4.66781C7.80902 4.29201 7.36297 4.08037 6.95724 4.09017Z" fill="#CDB9DA"/>
</g>
</g>
<defs>
<clipPath id="clip0_2127_9900">
<rect width="12" height="12" fill="white" transform="translate(0 0.976562)"/>
</clipPath>
</defs>
</svg>
