<svg width="13" height="12" viewBox="0 0 13 12" fill="none" xmlns="http://www.w3.org/2000/svg">
<g id="icon-coupon" clip-path="url(#clip0_2127_5951)">
<g id="Group">
<g id="Group_2">
<g id="Group_3">
<path id="Vector" d="M6.5 0C3.18642 0 0.5 2.68642 0.5 6C0.5 9.31358 3.18642 12 6.5 12C9.81358 12 12.5 9.31358 12.5 6C12.5 2.68642 9.81358 0 6.5 0ZM8.22346 8.36543C7.96173 8.68395 7.62099 8.89877 7.22346 9.00741C7.05062 9.05432 6.9716 9.14568 6.98148 9.32593C6.98889 9.5037 6.98148 9.67901 6.97901 9.85679C6.97901 10.0148 6.89753 10.0988 6.74198 10.1037C6.64074 10.1062 6.53951 10.1086 6.43827 10.1086C6.34938 10.1086 6.26049 10.1086 6.17161 10.1062C6.0037 10.1037 5.92469 10.0074 5.92469 9.84445C5.92222 9.71605 5.92222 9.58519 5.92222 9.45679C5.91975 9.17037 5.90988 9.16049 5.6358 9.11605C5.28519 9.05926 4.93951 8.98025 4.61852 8.82469C4.36667 8.70123 4.33951 8.63951 4.41111 8.37284C4.46543 8.17531 4.51975 7.97778 4.58148 7.78272C4.62593 7.63951 4.6679 7.57531 4.74444 7.57531C4.78889 7.57531 4.84568 7.59753 4.92222 7.63704C5.27778 7.82222 5.65556 7.92593 6.05309 7.97531C6.11975 7.98272 6.18642 7.98765 6.25309 7.98765C6.43827 7.98765 6.61852 7.95309 6.79383 7.87654C7.2358 7.68395 7.30494 7.17284 6.9321 6.86667C6.80617 6.76296 6.66049 6.68642 6.50988 6.61975C6.12222 6.44938 5.71975 6.32099 5.35432 6.10123C4.76173 5.74568 4.38642 5.25926 4.43086 4.53827C4.48025 3.72346 4.94198 3.21481 5.69012 2.94321C5.99877 2.8321 6.00123 2.83457 6.00123 2.51358C6.00123 2.40494 5.99877 2.2963 6.0037 2.18519C6.01111 1.94321 6.05062 1.90123 6.29259 1.89383C6.31975 1.89383 6.34938 1.89383 6.37654 1.89383C6.42346 1.89383 6.47037 1.89383 6.51728 1.89383C6.53704 1.89383 6.55679 1.89383 6.57407 1.89383C7.03333 1.89383 7.03333 1.91358 7.0358 2.40988C7.03827 2.77531 7.03827 2.77531 7.40123 2.8321C7.68025 2.87654 7.94444 2.95802 8.20123 3.0716C8.34198 3.13333 8.3963 3.2321 8.35185 3.38272C8.28765 3.60494 8.22593 3.82963 8.15679 4.04938C8.11235 4.18272 8.07037 4.24444 7.99136 4.24444C7.94691 4.24444 7.89259 4.22716 7.82346 4.19259C7.4679 4.01975 7.09506 3.9358 6.70494 3.9358C6.65556 3.9358 6.6037 3.93827 6.55432 3.94074C6.43827 3.94815 6.32469 3.96296 6.21605 4.00988C5.83086 4.17778 5.76914 4.60247 6.09753 4.8642C6.26296 4.99753 6.45309 5.09136 6.64815 5.17284C6.98889 5.31358 7.32963 5.44938 7.65309 5.62716C8.67037 6.19506 8.94691 7.48642 8.22346 8.36543Z" fill="#FFBF3F"/>
</g>
</g>
</g>
</g>
<defs>
<clipPath id="clip0_2127_5951">
<rect width="12" height="12" fill="white" transform="translate(0.5)"/>
</clipPath>
</defs>
</svg>
