<svg width="90" height="90" viewBox="0 0 90 90" fill="none" xmlns="http://www.w3.org/2000/svg">
<g clip-path="url(#clip0_2028_27893)">
<path d="M12.7238 4.54369L7.74441 10.8862C-1.02918 22.0622 -0.0709963 38.0307 9.97578 48.0777L41.9231 80.025C51.9699 90.0718 67.9386 91.03 79.1146 82.2564L85.4571 77.2774C88.8928 74.5804 89.1983 69.4869 86.1098 66.3985L72.1893 52.478C69.345 49.6337 64.7336 49.6337 61.8891 52.478L57.3603 57.0068C55.2217 59.1454 51.7548 59.1454 49.6162 57.0068L32.9831 40.3737C30.8445 38.2352 30.8445 34.7682 32.9831 32.6297L37.5119 28.1008C40.3562 25.2565 40.3562 20.6451 37.5119 17.8006L23.6027 3.89137C20.514 0.802714 15.4208 1.10822 12.7238 4.54369Z" fill="#FFBF3F"/>
<path d="M72.184 52.478C69.3397 49.6336 64.7283 49.6336 61.8838 52.478L57.355 57.0068C57.302 57.0597 57.2477 57.1103 57.1932 57.1606L80.8908 80.8582L85.4518 77.2775C88.8875 74.5805 89.193 69.4871 86.1045 66.3986L72.184 52.478Z" fill="#F9ED20"/>
<path d="M23.6 3.89107C20.5117 0.802768 15.4183 1.10828 12.7213 4.54374L9.14062 9.10492L32.8268 32.7911C32.8771 32.7366 32.9277 32.6823 32.9806 32.6294L37.5094 28.1005C40.3538 25.2562 40.3538 20.6448 37.5094 17.8003L23.6 3.89107Z" fill="#F9ED20"/>
<path d="M87.3518 65.1551L73.4312 51.2345C69.9057 47.7092 64.17 47.7092 60.6448 51.2345L56.116 55.7635C54.6662 57.2132 52.3075 57.2132 50.8582 55.7635L34.2249 39.1302C32.7751 37.6805 32.7751 35.3219 34.2249 33.8724L38.7537 29.3436C40.4615 27.6359 41.4017 25.3655 41.4017 22.9504C41.4017 20.5354 40.4613 18.265 38.7537 16.5573L24.8445 2.64804C23.0171 0.820617 20.4897 -0.137918 17.91 0.0160665C15.3304 0.170754 12.9355 1.42548 11.3398 3.45821L6.36077 9.80075C-2.95317 21.6651 -1.93399 38.6551 8.73171 49.3206L40.6791 81.2678C46.4646 87.0531 54.1079 90.0002 61.7871 89.9995C68.2655 89.999 74.7701 87.9007 80.1987 83.6387L86.5415 78.6597C88.5742 77.0638 89.8287 74.6691 89.9836 72.0894C90.1385 69.51 89.1792 66.9824 87.3518 65.1551ZM86.474 71.8791C86.3794 73.4557 85.6128 74.9191 84.3704 75.8945L81.011 78.5318L70.4673 67.988C69.7809 67.3018 68.6677 67.3018 67.9811 67.988C67.2946 68.6745 67.2946 69.7877 67.9811 70.4743L78.2254 80.7186L78.028 80.8735C67.5617 89.0902 52.5744 88.1909 43.1653 78.7821L11.2178 46.8345C1.80909 37.4258 0.909798 22.438 9.12617 11.9718L14.1052 5.62929C15.0802 4.38704 16.544 3.62029 18.1204 3.52571C19.6984 3.43167 21.2415 4.01737 22.3583 5.13411L36.2675 19.0433C38.4219 21.1975 38.4219 24.7031 36.2675 26.8572L32.8166 30.3081L20.2303 17.7218C19.5438 17.0354 18.4306 17.0354 17.744 17.7218C17.0576 18.4082 17.0576 19.5215 17.744 20.2081L30.5289 32.993C29.0046 35.7438 29.4062 39.2844 31.7385 41.6163L48.3718 58.2496C51.192 61.0696 55.7811 61.0698 58.6019 58.2496L63.1307 53.7206C65.2851 51.566 68.7905 51.566 70.9447 53.7206L84.8652 67.6412C85.9823 68.7581 86.5685 70.3027 86.474 71.8791Z" fill="black"/>
<path d="M64.5998 66.3617C64.1375 66.3617 63.684 66.1736 63.3568 65.8465C63.0299 65.5197 62.8418 65.0662 62.8418 64.6037C62.8418 64.1412 63.0299 63.6879 63.3568 63.3607C63.6838 63.0338 64.1373 62.8457 64.5998 62.8457C65.0638 62.8457 65.5156 63.0336 65.8427 63.3607C66.1699 63.6879 66.3578 64.1412 66.3578 64.6037C66.3578 65.0662 66.1697 65.5195 65.8427 65.8465C65.5156 66.1736 65.0621 66.3617 64.5998 66.3617Z" fill="black"/>
<path d="M22.0314 49.6878C21.5674 49.6878 21.1156 49.5015 20.7867 49.1728C20.4598 48.8459 20.2734 48.3925 20.2734 47.9299C20.2734 47.4676 20.4598 47.016 20.7867 46.6871C21.1137 46.3601 21.5672 46.1719 22.0314 46.1719C22.4937 46.1719 22.9472 46.36 23.2744 46.6871C23.6013 47.0158 23.7894 47.4674 23.7894 47.9299C23.7894 48.3941 23.6013 48.8457 23.2744 49.1728C22.9472 49.5015 22.4937 49.6878 22.0314 49.6878Z" fill="black"/>
<path d="M16.6956 44.3562C16.2458 44.3562 15.7958 44.1846 15.4525 43.8413L14.2222 42.611C9.21293 37.6016 7.25684 30.242 9.11766 23.4045C9.37254 22.4677 10.3381 21.9142 11.2756 22.1698C12.2123 22.4246 12.7651 23.3909 12.5102 24.3277C10.9797 29.9518 12.5885 36.0048 16.7086 40.1248L17.9389 41.3551C18.6253 42.0415 18.6253 43.1547 17.9389 43.8413C17.5954 44.1846 17.1454 44.3562 16.6956 44.3562Z" fill="black"/>
<path d="M88.2435 37.935C87.2726 37.935 86.4855 37.148 86.4855 36.177C86.4855 18.1675 71.8338 3.5158 53.8243 3.5158C52.8534 3.5158 52.0663 2.72883 52.0663 1.75781C52.0663 0.786797 52.8534 0 53.8244 0C73.7726 0 90.0015 16.229 90.0015 36.1772C90.0015 37.148 89.2145 37.935 88.2435 37.935Z" fill="#F9ED20"/>
<path d="M76.1457 37.935C75.1748 37.935 74.3877 37.1481 74.3877 36.1771C74.3877 24.8383 65.163 15.6136 53.8243 15.6136C52.8534 15.6136 52.0663 14.8267 52.0663 13.8556C52.0663 12.8848 52.8533 12.0977 53.8243 12.0977C67.1016 12.0977 77.9037 22.8996 77.9037 36.1771C77.9037 37.1481 77.1165 37.935 76.1457 37.935Z" fill="#F9ED20"/>
<path d="M63.3908 37.9351C62.42 37.9351 61.6328 37.1481 61.6328 36.1771C61.6328 31.8713 58.1299 28.3685 53.8243 28.3685C52.8534 28.3685 52.0663 27.5815 52.0663 26.6105C52.0663 25.6395 52.8533 24.8525 53.8243 24.8525C60.0687 24.8525 65.1488 29.9326 65.1488 36.1771C65.1488 37.1481 64.3617 37.9351 63.3908 37.9351Z" fill="#F9ED20"/>
</g>
<defs>
<clipPath id="clip0_2028_27893">
<rect width="90" height="90" fill="white"/>
</clipPath>
</defs>
</svg>
