<svg width="301" height="123" viewBox="0 0 301 123" fill="none" xmlns="http://www.w3.org/2000/svg">
<path d="M125.245 83.3221C121.803 84.0728 118.379 84.9025 114.977 85.8129C113.636 86.1717 114.003 87.9478 115.291 88.0517C122.408 88.6243 129.627 87.0331 135.794 83.59C141.637 82.5869 147.523 81.8236 153.436 81.2846C151.491 82.8837 149.546 84.4832 147.601 86.0826C147.109 86.4872 147.186 87.279 147.601 87.6944C151.641 91.7338 155.703 83.7916 158.644 82.182C160.536 81.1468 162.918 81.4053 164.97 81.7446C167.338 82.1362 169.674 82.7383 172.075 82.9305C172.785 82.9871 173.488 82.985 174.179 82.9255C173.15 84.084 172.121 85.2421 171.092 86.4006C170.396 87.1852 171.036 88.7259 172.242 88.3055C176.821 86.7075 181.4 85.1095 185.979 83.5118C185.765 84.2856 185.604 85.0763 185.496 85.8793C185.393 86.6397 186.33 87.1442 186.991 86.9783C190.268 86.1558 192.878 83.5594 193.572 80.3539C193.741 79.5733 193.025 78.6355 192.119 78.952C191.535 79.1558 190.951 79.3595 190.367 79.5632C190.964 78.7122 191.649 77.9176 192.412 77.1921C194.133 79.1947 195.854 81.1973 197.576 83.1999C198.193 83.9182 199.274 83.4227 199.55 82.6969C200.524 80.1394 201.351 77.5372 202.035 74.9014C201.671 78.6088 200.962 82.2862 199.898 85.8904C199.481 87.3039 201.76 87.9071 202.176 86.4966C204.545 78.471 205.257 70.0366 204.23 61.75C204.052 60.3124 201.983 60.2587 201.867 61.75C201.38 68.0109 200.059 74.1752 197.984 80.1188C196.443 78.3264 194.902 76.5341 193.362 74.7417C192.931 74.2398 192.141 74.3757 191.691 74.7417C189.653 76.3974 188.081 78.4505 187.008 80.7358C183.249 82.0475 179.49 83.3593 175.732 84.671C176.836 83.4281 177.94 82.1856 179.043 80.9427C180.025 79.8372 178.497 78.3182 177.372 79.331C174.338 82.063 169.239 80.1603 165.718 79.5675C163.617 79.2138 161.413 78.9585 159.317 79.4868C158.92 79.587 158.551 79.7272 158.194 79.8844C158.19 79.2783 157.697 78.6441 157.016 78.6949C150.795 79.1615 144.599 79.8945 138.444 80.8627C138.309 80.4469 137.95 80.1228 137.372 80.1549C131.229 80.4967 125.092 81.0008 118.976 81.6718C121.495 80.3647 124.003 79.0389 126.496 77.6864C129.14 76.2521 131.769 74.7921 134.382 73.3073C136.718 71.9801 139.11 70.6968 141.329 69.1904C145.244 66.5322 149.046 62.7867 148.241 57.7949C148.139 57.1585 147.353 56.887 146.788 56.9988C138.589 58.6196 130.455 60.5183 122.384 62.6428C127.974 59.3317 133.481 55.8897 138.892 52.3136C149.159 45.5287 159.094 38.2734 168.648 30.5796C173.449 26.7125 178.176 22.7473 182.76 18.6404C186.471 15.3149 190.827 10.2824 190.323 5.03507C190.205 3.80157 189.822 2.5994 189.124 1.55267C188.788 1.04931 188.411 0.426998 187.749 0.334693C186.932 0.221474 185.838 0.537317 185.021 0.643324C181.573 1.09079 178.13 1.56566 174.691 2.07046C167.751 3.08907 160.829 4.2245 153.93 5.47711C140.195 7.97117 126.549 10.926 113.026 14.3352C99.5032 17.7444 86.1034 21.6068 72.8593 25.9149C66.2072 28.0786 59.5944 30.3545 53.0252 32.7422C49.7699 33.9252 46.5249 35.1335 43.2924 36.3728C41.1127 37.2086 37.8791 38.6163 38.3377 41.4172C38.6842 43.5341 41.2724 45.0964 43.1178 43.5204C44.2587 42.5461 42.5824 40.939 41.4469 41.9086C41.2205 42.1019 40.6635 41.2625 40.6497 41.0213C40.6029 40.2031 41.6856 39.588 42.3145 39.2599C44.3625 38.1912 46.699 37.5108 48.8671 36.702C53.7041 34.8981 58.5657 33.1555 63.45 31.4734C73.2181 28.1093 83.0764 24.9893 93.0119 22.117C112.762 16.4074 132.815 11.6753 153.067 7.94775C164.341 5.87267 175.677 4.11093 187.057 2.66505C188.658 5.01993 187.913 7.96826 186.619 10.3401C185.006 13.296 182.624 15.6769 180.092 17.911C174.684 22.6824 169.136 27.3045 163.455 31.7705C152.084 40.7094 140.18 49.0147 127.835 56.6562C123.169 59.5444 118.44 62.3367 113.652 65.0326C105.289 67.4131 96.9944 70.0236 88.7683 72.8137C69.7617 79.2607 51.1149 86.6494 32.6249 94.3562C22.2063 98.6989 11.8356 103.147 1.46601 107.597C0.193928 108.143 1.13101 109.948 2.37642 109.68C14.5903 107.048 26.6708 103.848 38.5642 100.091C50.3941 96.3534 62.034 92.0648 73.4456 87.2693C84.8677 82.469 96.0537 77.1467 106.955 71.3282C109.523 69.958 112.072 68.5575 114.607 67.1326C114.633 67.125 114.659 67.1171 114.686 67.1095C125.022 64.1756 135.47 61.6072 146.018 59.481C145.882 63.0683 142.232 65.8897 139.384 67.7178C135.165 70.4264 130.664 72.7946 126.255 75.2C121.676 77.698 117.051 80.1177 112.386 82.4622C102.715 83.7249 93.1071 85.4275 83.6198 87.6349C66.1542 91.6988 49.0809 97.482 33.0266 105.29C23.9889 109.685 15.2985 114.733 7.07825 120.43C6.02106 121.163 6.62358 122.829 7.98869 122.513C28.7564 117.714 49.1729 111.521 69.0482 103.986C84.0759 98.2882 98.7943 91.8337 113.123 84.6544C117.154 84.1334 121.195 83.6895 125.245 83.3221ZM188.743 82.5469C189.272 82.3619 189.802 82.1773 190.332 81.9924C189.798 82.7957 189.096 83.4772 188.254 83.9859C188.391 83.4977 188.554 83.0171 188.743 82.5469ZM89.5818 77.5321C76.433 83.8042 62.9231 89.3653 49.1278 94.1749C37.7309 98.1484 26.1401 101.602 14.4082 104.532C28.849 98.3611 43.3262 92.2685 57.9635 86.5434C73.1121 80.6182 88.441 75.0921 104.012 70.2872C99.2544 72.7971 94.4434 75.2137 89.5822 77.5325L89.5818 77.5321ZM98.8311 89.0047C80.1061 97.6688 60.7709 105.096 41.0005 111.229C31.9651 114.032 22.8383 116.558 13.6402 118.814C26.6788 110.426 40.7745 103.615 55.4493 98.3091C71.7362 92.4211 88.6879 88.3247 105.855 85.6824C103.524 86.8088 101.182 87.9169 98.8311 89.0047Z" fill="#512D6D"/>
<path d="M257.545 99.4327C214.68 100.02 171.95 101.052 129.541 102.523C117.461 102.942 105.409 103.398 93.3869 103.888C89.9604 104.028 91.4113 105.16 94.8288 105.021C136.781 103.31 179.1 102.033 221.618 101.203C233.58 100.969 245.557 100.771 257.545 100.607C261.012 100.56 261.037 99.3851 257.545 99.4331L257.545 99.4327Z" fill="#512D6D"/>
<path d="M299.722 72.1694C281.051 73.3092 262.438 75.3122 243.965 78.1679C239.576 78.8465 235.195 79.5773 230.823 80.3525C230.823 80.3356 230.827 80.3212 230.827 80.3039C230.775 78.258 230.724 76.2121 230.673 74.1666C231.709 73.8417 232.684 73.3196 233.519 72.5794C236.37 70.0507 236.812 65.4347 234.575 62.411C234.205 61.9105 233.545 61.6715 232.959 62.0021C232.447 62.2913 232.163 63.0579 232.535 63.5616C234.141 65.7322 234.002 68.9258 231.993 70.8346C231.59 71.2183 231.12 71.5229 230.612 71.7566L230.61 71.6574C230.599 71.2063 230.255 70.6327 229.743 70.5584C228.079 70.3176 226.406 70.3291 224.771 70.5591C224.205 70.4455 223.582 70.5306 222.937 70.8916C222.92 70.9009 222.907 70.915 222.892 70.9251C216.881 72.4182 211.692 76.8803 209.981 82.7965C209.823 83.3428 210.175 84.0988 210.806 84.1984C214.884 84.8416 219.136 83.9233 222.513 81.6041C224.93 79.9444 227.389 77.4424 227.359 74.5304C227.679 74.5575 227.999 74.5629 228.32 74.555C228.368 76.4714 228.416 78.3878 228.464 80.3042C228.469 80.4752 228.507 80.6241 228.567 80.7553C228.45 80.7766 228.334 80.7964 228.217 80.8177C226.724 81.0888 227.357 83.2861 228.845 83.0157C247.119 79.6952 265.553 77.217 284.073 75.6053C289.284 75.152 294.501 74.7677 299.723 74.449C301.233 74.3567 301.244 72.0768 299.723 72.1694H299.722ZM222.429 78.7653C219.831 81.0463 216.222 82.3184 212.702 82.1291C214.477 77.7618 218.596 74.3574 223.289 73.1202C223.799 73.4642 224.35 73.7404 224.921 73.9626C224.966 74.2092 224.992 74.4616 224.991 74.7061C224.989 76.3791 223.638 77.7038 222.429 78.7653Z" fill="#512D6D"/>
</svg>
