<svg width="1440" height="479" viewBox="0 0 1440 479" fill="none" xmlns="http://www.w3.org/2000/svg">
<g opacity="0.15" clip-path="url(#clip0_2190_7825)">
<path d="M442.788 467.618C442.666 467.622 442.545 467.626 442.423 467.631C442.301 467.635 442.179 467.639 442.056 467.643C441.934 467.648 441.812 467.651 441.69 467.656C441.568 467.66 441.446 467.664 441.325 467.668C428.483 468.109 415.802 468.532 403.281 468.938C390.918 469.338 378.708 469.721 366.647 470.087C354.737 470.449 342.969 470.794 331.342 471.122C319.856 471.446 308.506 471.754 297.288 472.045C291.728 472.187 286.201 472.326 280.705 472.46C275.242 472.594 269.81 472.723 264.408 472.848C259.039 472.972 253.699 473.091 248.388 473.206C243.109 473.319 237.858 473.428 232.636 473.532C230.036 473.582 227.443 473.632 224.856 473.68C222.278 473.729 219.707 473.776 217.143 473.822C214.585 473.868 212.035 473.912 209.492 473.955C206.955 473.998 204.425 474.038 201.902 474.077C199.386 474.117 196.876 474.155 194.372 474.19C191.875 474.225 189.385 474.258 186.9 474.289C184.423 474.319 181.951 474.347 179.485 474.373C177.026 474.399 174.573 474.422 172.126 474.443C174.517 474.29 176.917 474.14 179.324 473.991C181.738 473.842 184.16 473.694 186.59 473.549C189.027 473.403 191.472 473.259 193.926 473.117C196.386 472.974 198.855 472.834 201.332 472.695C203.815 472.554 206.306 472.415 208.805 472.277C211.312 472.138 213.826 472.001 216.349 471.865C218.879 471.728 221.417 471.593 223.963 471.458C226.517 471.322 229.078 471.187 231.648 471.052C236.81 470.783 242.005 470.517 247.233 470.254C252.492 469.99 257.785 469.728 263.111 469.469C268.469 469.208 273.861 468.95 279.287 468.693C284.746 468.435 290.24 468.178 295.768 467.923C306.928 467.412 318.23 466.908 329.678 466.41C341.269 465.906 353.01 465.408 364.905 464.916C376.951 464.419 389.155 463.927 401.521 463.441C414.047 462.949 426.74 462.463 439.603 461.983C439.726 461.978 439.848 461.973 439.97 461.969C440.092 461.964 440.214 461.959 440.336 461.955C440.458 461.95 440.58 461.946 440.702 461.942C440.824 461.937 440.947 461.932 441.069 461.928C453.998 461.446 467.1 460.97 480.379 460.5C493.836 460.025 507.476 459.556 521.304 459.094C535.32 458.626 549.53 458.164 563.938 457.711C578.546 457.252 593.36 456.801 608.385 456.357C616.048 456.134 623.767 455.912 631.542 455.692C639.373 455.471 647.261 455.253 655.207 455.038C663.209 454.822 671.272 454.609 679.394 454.399C687.575 454.189 695.817 453.982 704.12 453.78C708.296 453.68 712.487 453.58 716.693 453.481C720.915 453.382 725.152 453.284 729.405 453.186C733.674 453.089 737.96 452.993 742.262 452.898C746.579 452.804 750.914 452.711 755.265 452.621L781.717 452.094C783.95 452.056 786.186 452.017 788.426 451.977C790.671 451.936 792.919 451.896 795.172 451.855C797.43 451.815 799.691 451.776 801.958 451.738C804.229 451.701 806.504 451.665 808.784 451.633C806.517 451.763 804.255 451.89 801.996 452.015C799.742 452.14 797.492 452.262 795.247 452.384C793.006 452.504 790.769 452.625 788.536 452.745C786.308 452.864 784.085 452.984 781.865 453.106L755.558 454.468C751.232 454.689 746.921 454.905 742.627 455.119C738.35 455.332 734.088 455.542 729.842 455.749C725.613 455.956 721.399 456.16 717.201 456.362C713.018 456.564 708.851 456.764 704.7 456.962C696.443 457.353 688.247 457.735 680.11 458.108C672.034 458.479 664.016 458.842 656.056 459.197C648.154 459.549 640.308 459.894 632.519 460.233C624.785 460.569 617.106 460.899 609.482 461.222C594.533 461.853 579.79 462.46 565.248 463.044C550.906 463.621 536.756 464.176 522.794 464.71C509.02 465.237 495.425 465.743 482.007 466.231C468.766 466.711 455.693 467.173 442.787 467.617" fill="#CDB9DA"/>
<path d="M437.295 443.489C437.026 443.501 436.757 443.514 436.488 443.526C436.219 443.539 435.949 443.552 435.68 443.564C435.411 443.577 435.141 443.589 434.872 443.602C434.604 443.614 434.335 443.627 434.067 443.639C406.686 444.917 380.05 446.142 354.127 447.316C328.894 448.459 304.319 449.554 280.375 450.603C257.044 451.626 234.295 452.605 212.107 453.542C190.464 454.456 169.341 455.331 148.718 456.168C138.589 456.576 128.58 456.976 118.686 457.366C108.907 457.751 99.2404 458.128 89.683 458.495C80.2354 458.858 70.8937 459.211 61.6552 459.555C52.5208 459.894 43.4867 460.225 34.5502 460.544C30.118 460.701 25.7105 460.857 21.3262 461.01C16.9666 461.163 12.63 461.313 8.31659 461.461C4.02698 461.609 -0.240608 461.753 -4.48571 461.895C-8.70793 462.036 -12.9081 462.174 -17.0871 462.308C-21.2432 462.443 -25.3782 462.577 -29.4924 462.706C-33.5845 462.835 -37.656 462.961 -41.708 463.083C-45.7383 463.205 -49.7493 463.323 -53.7412 463.436C-57.7124 463.548 -61.6646 463.656 -65.5991 463.759C-61.7575 463.481 -57.8922 463.207 -54.0043 462.936C-50.0954 462.662 -46.163 462.392 -42.2083 462.123C-38.2314 461.853 -34.2317 461.584 -30.2087 461.316C-26.1636 461.047 -22.0952 460.778 -18.0034 460.51C-13.8901 460.239 -9.75256 459.97 -5.59084 459.701C-1.40578 459.431 2.80347 459.161 7.03735 458.892C11.295 458.62 15.5772 458.35 19.8846 458.079C24.2161 457.806 28.5727 457.533 32.9547 457.26C41.7944 456.71 50.7387 456.161 59.7893 455.612C68.9448 455.055 78.2101 454.499 87.5868 453.941C97.0742 453.376 106.676 452.811 116.396 452.243C126.232 451.668 136.188 451.091 146.267 450.511C166.801 449.335 187.853 448.147 209.443 446.948C231.583 445.718 254.301 444.474 277.621 443.215C301.558 441.923 326.144 440.615 351.404 439.289C377.361 437.927 404.047 436.545 431.495 435.143C431.85 435.125 432.205 435.107 432.56 435.088C432.914 435.07 433.269 435.052 433.624 435.034C433.979 435.016 434.333 434.998 434.689 434.979C435.045 434.961 435.401 434.943 435.757 434.925C463.749 433.495 492.552 432.044 522.202 430.569C552.73 429.051 584.18 427.508 616.595 425.938C650.011 424.321 684.483 422.673 720.058 420.997C756.786 419.266 794.727 417.501 833.939 415.701C854.305 414.77 875.022 413.829 896.1 412.879C917.547 411.912 939.373 410.935 961.589 409.949C984.205 408.946 1007.23 407.933 1030.68 406.911C1054.56 405.87 1078.89 404.82 1103.67 403.761C1116.24 403.227 1128.92 402.689 1141.73 402.148C1154.66 401.602 1167.71 401.053 1180.89 400.501C1194.2 399.944 1207.64 399.385 1221.21 398.824C1234.91 398.258 1248.75 397.691 1262.72 397.123C1276.84 396.547 1291.09 395.969 1305.49 395.389C1320.04 394.804 1334.73 394.217 1349.57 393.63C1364.56 393.038 1379.71 392.446 1395.02 391.856C1410.48 391.259 1426.1 390.665 1441.89 390.074C1426.05 391.03 1410.39 391.965 1394.89 392.882C1379.55 393.79 1364.38 394.679 1349.37 395.553C1334.51 396.418 1319.81 397.268 1305.26 398.104C1290.86 398.932 1276.6 399.747 1262.49 400.551C1248.52 401.348 1234.7 402.133 1221.01 402.905C1207.45 403.67 1194.03 404.423 1180.75 405.165C1167.59 405.901 1154.56 406.626 1141.66 407.342C1128.88 408.051 1116.22 408.751 1103.68 409.443C1078.97 410.803 1054.71 412.127 1030.9 413.417C1007.53 414.682 984.589 415.916 962.056 417.118C939.926 418.299 918.185 419.452 896.825 420.576C875.835 421.682 855.206 422.761 834.928 423.816C795.767 425.848 757.883 427.789 721.211 429.645C685.699 431.443 651.286 433.163 617.922 434.809C585.563 436.405 554.159 437.933 523.667 439.398C494.054 440.82 465.275 442.183 437.295 443.489" fill="#CDB9DA"/>
<path d="M426.23 415.709C426.18 415.712 426.13 415.716 426.08 415.719C426.03 415.722 425.979 415.725 425.929 415.728C425.879 415.731 425.828 415.734 425.778 415.737C425.728 415.74 425.678 415.743 425.628 415.746C417.335 416.252 409.109 416.744 400.948 417.222C392.856 417.695 384.826 418.155 376.86 418.6C368.959 419.042 361.119 419.47 353.339 419.883C345.622 420.293 337.964 420.689 330.363 421.071C322.822 421.446 315.337 421.809 307.906 422.157C300.534 422.501 293.215 422.83 285.947 423.138C278.735 423.444 271.571 423.729 264.454 423.991C257.392 424.25 250.374 424.485 243.399 424.692C250.204 424.04 257.074 423.41 264.006 422.797C270.994 422.179 278.046 421.578 285.162 420.99C292.334 420.398 299.572 419.819 306.872 419.248C314.232 418.673 321.656 418.106 329.144 417.543C336.695 416.981 344.312 416.424 351.996 415.875C359.743 415.32 367.558 414.772 375.441 414.229C383.391 413.683 391.41 413.141 399.5 412.606C407.658 412.066 415.889 411.532 424.193 411.003C424.291 410.997 424.389 410.991 424.487 410.984C424.585 410.978 424.683 410.972 424.781 410.966C424.88 410.959 424.978 410.953 425.076 410.947C425.174 410.94 425.272 410.934 425.37 410.928C433.657 410.401 442.017 409.88 450.451 409.365C458.957 408.846 467.54 408.333 476.199 407.827C484.933 407.316 493.746 406.812 502.638 406.316C511.608 405.814 520.659 405.32 529.793 404.834C539.118 404.342 548.53 403.856 558.03 403.381C567.616 402.901 577.292 402.432 587.061 401.981C596.918 401.525 606.871 401.087 616.921 400.671C627.063 400.252 637.304 399.857 647.647 399.49C637.419 400.407 627.281 401.282 617.235 402.122C607.283 402.953 597.42 403.75 587.643 404.518C577.958 405.279 568.357 406.012 558.841 406.722C549.412 407.427 540.064 408.11 530.799 408.776C521.67 409.429 512.62 410.063 503.647 410.681C494.753 411.292 485.933 411.887 477.187 412.466C468.517 413.04 459.919 413.598 451.391 414.14C442.936 414.678 434.549 415.2 426.231 415.709" fill="#CDB9DA"/>
<path d="M419.106 389.464C418.991 389.473 418.876 389.481 418.76 389.49C418.644 389.498 418.529 389.507 418.413 389.516C418.298 389.524 418.183 389.533 418.067 389.541C417.952 389.55 417.837 389.558 417.722 389.567C406.373 390.414 395.152 391.24 384.055 392.045C373.085 392.84 362.236 393.614 351.504 394.367C340.893 395.112 330.395 395.837 320.009 396.54C309.737 397.236 299.572 397.912 289.513 398.567C284.524 398.89 279.56 399.208 274.622 399.522C269.711 399.834 264.824 400.14 259.961 400.442C255.125 400.741 250.312 401.035 245.524 401.324C240.761 401.611 236.021 401.892 231.304 402.167C228.953 402.302 226.609 402.437 224.271 402.571C221.939 402.704 219.613 402.836 217.291 402.966C214.977 403.096 212.667 403.224 210.362 403.35C208.064 403.476 205.771 403.599 203.482 403.721C201.201 403.844 198.925 403.965 196.653 404.083C194.387 404.2 192.127 404.315 189.87 404.428C187.62 404.54 185.374 404.649 183.133 404.756C180.897 404.863 178.667 404.967 176.441 405.069C178.612 404.835 180.791 404.603 182.976 404.372C185.167 404.141 187.364 403.911 189.569 403.684C191.779 403.455 193.995 403.229 196.22 403.004C198.449 402.779 200.685 402.555 202.929 402.333C205.177 402.109 207.433 401.886 209.695 401.664C211.963 401.441 214.238 401.22 216.519 400.999C218.806 400.778 221.1 400.558 223.401 400.337C225.708 400.117 228.021 399.896 230.341 399.676C235 399.235 239.686 398.798 244.399 398.362C249.137 397.924 253.903 397.488 258.696 397.053C263.515 396.616 268.362 396.181 273.237 395.746C278.139 395.309 283.068 394.873 288.026 394.438C298.026 393.563 308.142 392.693 318.375 391.825C328.724 390.948 339.194 390.073 349.787 389.201C360.502 388.319 371.343 387.439 382.313 386.562C393.41 385.674 404.641 384.788 416.007 383.904C416.123 383.895 416.238 383.886 416.354 383.877C416.469 383.868 416.584 383.859 416.7 383.85C416.815 383.841 416.931 383.832 417.046 383.823C417.161 383.814 417.277 383.805 417.393 383.796C428.792 382.91 440.329 382.026 452.006 381.144C463.821 380.252 475.781 379.362 487.888 378.475C500.14 377.577 512.545 376.682 525.103 375.79C537.816 374.887 550.689 373.987 563.724 373.09C570.371 372.635 577.06 372.181 583.793 371.728C590.568 371.271 597.386 370.817 604.249 370.364C611.156 369.908 618.107 369.455 625.104 369.003C632.146 368.55 639.235 368.098 646.371 367.651C649.956 367.427 653.553 367.203 657.161 366.979C660.782 366.755 664.415 366.531 668.06 366.309C671.716 366.085 675.385 365.863 679.067 365.642C682.76 365.42 686.466 365.2 690.184 364.982C693.915 364.76 697.658 364.541 701.414 364.324C705.182 364.106 708.964 363.891 712.758 363.678C716.565 363.465 720.385 363.253 724.218 363.045C728.065 362.836 731.924 362.63 735.798 362.426C731.954 362.81 728.123 363.189 724.305 363.564C720.5 363.937 716.708 364.306 712.928 364.671C709.162 365.035 705.408 365.394 701.665 365.749C697.936 366.103 694.219 366.453 690.513 366.798C686.821 367.144 683.141 367.487 679.473 367.826C675.818 368.164 672.174 368.499 668.541 368.831C664.921 369.162 661.313 369.49 657.717 369.816C654.132 370.141 650.56 370.464 646.999 370.784C639.912 371.42 632.87 372.046 625.872 372.662C618.92 373.274 612.013 373.877 605.149 374.471C598.329 375.061 591.551 375.642 584.817 376.216C578.124 376.786 571.474 377.348 564.864 377.904C551.902 378.988 539.097 380.046 526.446 381.076C513.949 382.093 501.6 383.085 489.397 384.052C477.339 385.007 465.421 385.937 453.64 386.844C441.998 387.74 430.487 388.613 419.105 389.463" fill="#CDB9DA"/>
<path d="M412.934 363.407C412.681 363.429 412.428 363.451 412.174 363.474C411.92 363.496 411.666 363.518 411.412 363.541C411.158 363.563 410.905 363.586 410.651 363.608C410.398 363.63 410.145 363.653 409.893 363.675C385.889 365.794 362.464 367.845 339.597 369.829C317.273 371.765 295.466 373.639 274.159 375.452C253.34 377.224 232.986 378.938 213.081 380.596C193.616 382.217 174.57 383.786 155.928 385.303C146.756 386.046 137.68 386.778 128.699 387.497C119.814 388.208 111.019 388.908 102.314 389.595C93.7 390.275 85.1722 390.943 76.7295 391.598C68.3733 392.246 60.0991 392.882 51.9052 393.505C47.8386 393.813 43.7922 394.118 39.7657 394.42C35.7591 394.722 31.7719 395.02 27.8041 395.315C23.8558 395.609 19.9261 395.899 16.0145 396.186C12.1224 396.472 8.2484 396.754 4.39212 397.032C0.554855 397.309 -3.26427 397.583 -7.06612 397.854C-10.8494 398.123 -14.6158 398.389 -18.3654 398.65C-22.0972 398.91 -25.8127 399.166 -29.5121 399.417C-33.1943 399.666 -36.8605 399.91 -40.512 400.148C-36.9499 399.733 -33.3675 399.32 -29.7657 398.91C-26.1462 398.497 -22.5068 398.086 -18.8475 397.677C-15.1701 397.265 -11.4732 396.855 -7.75649 396.445C-4.02118 396.033 -0.266003 395.622 3.50862 395.21C7.30182 394.795 11.1153 394.38 14.9492 393.966C18.8024 393.549 22.6764 393.133 26.5707 392.716C30.4849 392.297 34.4202 391.878 38.3758 391.457C42.3518 391.035 46.3489 390.612 50.3672 390.187C58.4669 389.333 66.6542 388.477 74.9297 387.619C83.2921 386.751 91.7455 385.88 100.291 385.005C108.928 384.121 117.66 383.233 126.488 382.34C135.412 381.437 144.435 380.529 153.559 379.615C172.112 377.762 191.087 375.886 210.499 373.985C230.354 372.04 250.675 370.069 271.479 368.07C292.774 366.024 314.584 363.946 336.929 361.837C359.82 359.675 383.285 357.479 407.343 355.245C407.599 355.221 407.855 355.197 408.11 355.174C408.366 355.15 408.621 355.126 408.876 355.103C409.132 355.079 409.387 355.055 409.644 355.032C409.899 355.008 410.156 354.984 410.412 354.96C434.897 352.688 460.011 350.376 485.778 348.024C512.217 345.611 539.36 343.154 567.236 340.652C595.867 338.082 625.29 335.463 655.537 332.793C686.639 330.048 718.634 327.248 751.562 324.39C768.568 322.918 785.827 321.43 803.346 319.926C821.13 318.399 839.185 316.856 857.517 315.298C876.131 313.715 895.037 312.117 914.239 310.502C933.744 308.862 953.56 307.207 973.694 305.535C983.883 304.691 994.153 303.841 1004.51 302.987C1014.95 302.126 1025.47 301.26 1036.08 300.39C1046.78 299.513 1057.56 298.631 1068.44 297.746C1079.4 296.853 1090.46 295.957 1101.61 295.058C1112.86 294.151 1124.2 293.238 1135.63 292.323C1147.16 291.399 1158.8 290.473 1170.53 289.543C1182.36 288.606 1194.3 287.668 1206.33 286.728C1218.48 285.78 1230.73 284.832 1243.09 283.885C1230.71 285.178 1218.45 286.45 1206.29 287.703C1194.25 288.944 1182.31 290.167 1170.48 291.373C1158.75 292.569 1147.13 293.748 1135.6 294.912C1124.18 296.067 1112.85 297.206 1101.62 298.334C1090.49 299.453 1079.45 300.559 1068.5 301.651C1057.65 302.733 1046.89 303.803 1036.22 304.861C1025.63 305.91 1015.14 306.948 1004.73 307.975C994.403 308.993 984.163 310.002 974.007 311.001C953.939 312.969 934.191 314.895 914.757 316.782C895.628 318.638 876.797 320.457 858.257 322.239C840.002 323.994 822.024 325.714 804.318 327.402C786.877 329.064 769.695 330.695 752.765 332.296C719.985 335.389 688.132 338.371 657.167 341.248C627.055 344.045 597.759 346.744 569.243 349.351C541.482 351.888 514.44 354.339 488.089 356.708C462.408 359.016 437.365 361.248 412.936 363.407" fill="#CDB9DA"/>
<path d="M403.042 335.014C402.896 335.029 402.75 335.044 402.604 335.059C402.458 335.075 402.312 335.089 402.166 335.105C402.02 335.12 401.874 335.135 401.728 335.15C401.582 335.165 401.436 335.18 401.291 335.195C383.808 337.003 366.632 338.763 349.756 340.476C333.176 342.16 316.879 343.799 300.857 345.393C285.109 346.961 269.621 348.487 254.388 349.971C239.407 351.431 224.667 352.851 210.162 354.232C202.997 354.911 195.889 355.581 188.836 356.242C181.84 356.898 174.898 357.544 168.009 358.18C161.175 358.812 154.392 359.433 147.66 360.045C140.981 360.651 134.352 361.247 127.772 361.833C124.5 362.123 121.241 362.411 117.994 362.697C114.759 362.982 111.536 363.265 108.325 363.545C105.126 363.824 101.939 364.1 98.7631 364.373C95.599 364.645 92.446 364.914 89.3035 365.18L70.6865 366.733L61.5211 367.471L56.977 367.835L52.4502 368.185L56.8664 367.592L61.3111 367.009L70.2809 365.833L88.5608 363.499C91.6502 363.108 94.7526 362.717 97.868 362.328C100.995 361.936 104.136 361.545 107.29 361.155C110.456 360.762 113.635 360.37 116.827 359.978C120.032 359.584 123.25 359.189 126.481 358.794C132.983 358 139.54 357.207 146.151 356.412C152.815 355.611 159.536 354.809 166.312 354.006C173.144 353.196 180.034 352.384 186.981 351.57C193.985 350.748 201.049 349.925 208.173 349.098C222.602 347.429 237.279 345.748 252.212 344.055C267.4 342.333 282.855 340.597 298.585 338.846C314.589 337.065 330.883 335.269 347.472 333.456C364.358 331.611 381.556 329.747 399.073 327.866C399.289 327.843 399.504 327.82 399.72 327.796C399.936 327.773 400.151 327.75 400.367 327.727C400.582 327.704 400.798 327.681 401.014 327.658C401.23 327.635 401.446 327.612 401.662 327.588C419.33 325.692 437.327 323.776 455.662 321.842C474.341 319.872 493.378 317.881 512.782 315.871C532.559 313.821 552.723 311.75 573.288 309.657C594.258 307.522 615.651 305.364 637.479 303.183C648.696 302.065 660.029 300.941 671.481 299.81C683.052 298.667 694.744 297.518 706.561 296.364C718.503 295.197 730.571 294.025 742.77 292.848C755.099 291.658 767.562 290.463 780.161 289.263C786.512 288.661 792.898 288.056 799.318 287.45C805.773 286.84 812.264 286.228 818.791 285.616C825.353 285 831.952 284.384 838.587 283.767C845.259 283.146 851.968 282.526 858.715 281.905L900.007 278.139L921.186 276.251L931.914 275.296L942.731 274.355L931.943 275.692L921.244 276.995L900.131 279.564L858.985 284.485C852.265 285.284 845.582 286.074 838.937 286.857C832.329 287.635 825.757 288.406 819.222 289.171C812.724 289.931 806.262 290.685 799.834 291.433C793.443 292.177 787.087 292.915 780.765 293.648C768.226 295.097 755.822 296.522 743.551 297.925C731.412 299.312 719.401 300.677 707.519 302.021C695.761 303.35 684.126 304.659 672.612 305.949C661.219 307.225 649.941 308.483 638.78 309.723C616.974 312.14 595.601 314.489 574.646 316.773C554.102 319.012 533.952 321.19 514.184 323.308C494.792 325.385 475.759 327.407 457.076 329.374C438.738 331.305 420.729 333.184 403.042 335.014" fill="#CDB9DA"/>
<path d="M395.947 306.944C395.691 306.974 395.433 307.005 395.175 307.035C394.918 307.065 394.659 307.096 394.401 307.127C394.143 307.157 393.885 307.188 393.627 307.218C393.37 307.248 393.113 307.279 392.858 307.309C368.811 310.154 345.349 312.911 322.452 315.582C300.105 318.19 278.28 320.717 256.96 323.167C236.134 325.561 215.776 327.881 195.872 330.131C176.411 332.33 157.374 334.463 138.744 336.531C129.58 337.546 120.513 338.545 111.541 339.529C102.665 340.503 93.8806 341.461 85.1865 342.404C76.5835 343.337 68.0678 344.255 59.6377 345.157C51.2943 346.049 43.034 346.927 34.8548 347.789C30.7955 348.215 26.7565 348.638 22.7378 349.058C18.7389 349.476 14.7599 349.89 10.8 350.301C6.85989 350.71 2.9388 351.114 -0.964138 351.514C-4.84763 351.913 -8.71299 352.307 -12.5602 352.696C-16.3888 353.085 -20.1993 353.47 -23.9921 353.851C-27.7663 354.229 -31.5236 354.604 -35.2641 354.973C-38.9865 355.341 -42.6924 355.703 -46.3828 356.06C-50.0554 356.415 -53.7126 356.764 -57.355 357.106C-53.8046 356.58 -50.2343 356.057 -46.6446 355.535C-43.0367 355.01 -39.409 354.488 -35.7614 353.965C-32.0956 353.441 -28.4096 352.917 -24.7041 352.393C-20.98 351.866 -17.2356 351.339 -13.4713 350.811C-9.68894 350.279 -5.88623 349.747 -2.06322 349.215C1.77967 348.681 5.6433 348.146 9.52766 347.609C13.4319 347.071 17.3573 346.531 21.3039 345.989C25.2707 345.445 29.2588 344.899 33.268 344.352C41.3499 343.25 49.5205 342.144 57.7795 341.032C66.1263 339.909 74.5651 338.78 83.0963 337.644C91.7196 336.496 100.439 335.341 109.255 334.179C118.167 333.003 127.18 331.82 136.293 330.628C154.829 328.209 173.792 325.754 193.195 323.262C213.046 320.712 233.368 318.122 254.177 315.489C275.482 312.792 297.31 310.05 319.676 307.26C342.596 304.4 366.097 301.488 390.198 298.521C390.456 298.489 390.713 298.458 390.971 298.426C391.229 298.394 391.487 298.362 391.745 298.331C392.003 298.299 392.261 298.267 392.519 298.235C392.778 298.204 393.036 298.172 393.294 298.14C417.83 295.12 443.003 292.042 468.838 288.904C495.355 285.683 522.586 282.397 550.561 279.044C579.303 275.598 608.85 272.08 639.234 268.485C670.487 264.788 702.651 261.008 735.764 257.141C752.871 255.148 770.236 253.13 787.867 251.089C805.767 249.017 823.943 246.921 842.403 244.8C861.151 242.646 880.196 240.466 899.544 238.263C919.201 236.024 939.176 233.759 959.477 231.468C969.75 230.311 980.108 229.147 990.552 227.974C1001.08 226.792 1011.7 225.602 1022.4 224.406C1033.2 223.199 1044.08 221.986 1055.06 220.766C1066.13 219.537 1077.3 218.301 1088.55 217.059C1099.91 215.805 1111.36 214.544 1122.91 213.276C1134.56 211.997 1146.32 210.712 1158.17 209.422C1170.13 208.121 1182.19 206.814 1194.36 205.505C1206.64 204.183 1219.03 202.858 1231.52 201.531C1219.01 203.224 1206.61 204.891 1194.33 206.535C1182.15 208.164 1170.09 209.77 1158.13 211.355C1146.28 212.926 1134.54 214.477 1122.9 216.009C1111.36 217.528 1099.92 219.029 1088.58 220.514C1077.34 221.987 1066.2 223.443 1055.15 224.883C1044.2 226.31 1033.34 227.721 1022.57 229.117C1011.89 230.501 1001.31 231.871 990.807 233.227C980.395 234.572 970.07 235.903 959.83 237.223C939.599 239.823 919.696 242.37 900.113 244.867C880.842 247.323 861.875 249.731 843.205 252.093C824.825 254.418 806.729 256.699 788.908 258.938C771.359 261.143 754.073 263.307 737.045 265.434C704.087 269.542 672.073 273.507 640.962 277.337C610.719 281.06 581.304 284.658 552.682 288.136C524.826 291.522 497.7 294.797 471.274 297.967C445.527 301.055 420.427 304.046 395.948 306.943" fill="#CDB9DA"/>
<path d="M386.778 277.35C386.54 277.382 386.302 277.414 386.064 277.446C385.826 277.478 385.587 277.51 385.349 277.542C385.111 277.574 384.872 277.606 384.634 277.638C384.397 277.67 384.159 277.701 383.922 277.733C363.381 280.491 343.269 283.173 323.572 285.781C304.283 288.336 285.383 290.822 266.859 293.239C248.708 295.608 230.91 297.913 213.455 300.155C196.339 302.353 179.546 304.492 163.066 306.573C154.941 307.596 146.891 308.605 138.916 309.6C131.014 310.586 123.184 311.557 115.424 312.515C107.736 313.464 100.115 314.399 92.5622 315.32C85.0773 316.232 77.6573 317.131 70.3016 318.014C66.6475 318.452 63.0094 318.886 59.3868 319.318C55.7803 319.748 52.1893 320.174 48.6134 320.597C45.053 321.018 41.5078 321.436 37.9768 321.849C34.4614 322.26 30.9607 322.668 27.4738 323.071C24.0029 323.474 20.5458 323.873 17.1026 324.268C13.6744 324.661 10.2597 325.05 6.8579 325.434C3.4708 325.817 0.0966682 326.194 -3.26494 326.566C-6.61229 326.937 -9.94754 327.302 -13.2703 327.66C-10.0326 327.123 -6.77819 326.588 -3.50731 326.055C-0.22217 325.519 3.07981 324.986 6.39735 324.453C9.73001 323.918 13.0787 323.383 16.4433 322.849C19.823 322.312 23.2188 321.775 26.6301 321.237C30.0565 320.697 33.4997 320.156 36.9599 319.615C40.4351 319.072 43.9272 318.528 47.4361 317.984C50.9606 317.437 54.5019 316.89 58.0601 316.341C61.6342 315.79 65.2253 315.238 68.8331 314.684C76.0994 313.57 83.4361 312.453 90.8432 311.331C98.3194 310.2 105.869 309.063 113.491 307.921C121.185 306.768 128.955 305.61 136.801 304.445C144.721 303.27 152.72 302.087 160.798 300.897C177.19 298.488 193.913 296.05 210.975 293.581C228.378 291.062 246.141 288.511 264.272 285.925C282.778 283.286 301.677 280.61 320.978 277.894C340.69 275.121 360.832 272.307 381.415 269.448C381.653 269.415 381.89 269.382 382.126 269.349C382.362 269.317 382.598 269.284 382.835 269.251C383.071 269.218 383.307 269.185 383.544 269.152C383.78 269.119 384.018 269.087 384.256 269.054C405.111 266.159 426.43 263.219 448.228 260.233C470.514 257.18 493.311 254.077 516.635 250.924C540.499 247.698 564.927 244.416 589.938 241.079C615.548 237.661 641.783 234.183 668.664 230.643C682.514 228.823 696.538 226.985 710.74 225.13C725.122 223.252 739.689 221.357 754.445 219.446C769.391 217.509 784.533 215.555 799.873 213.585C815.416 211.588 831.165 209.575 847.126 207.544C855.186 206.521 863.301 205.492 871.471 204.459C879.697 203.418 887.978 202.373 896.315 201.322C904.71 200.265 913.162 199.204 921.672 198.138C930.241 197.065 938.869 195.989 947.557 194.91C956.305 193.821 965.115 192.728 973.987 191.631C982.92 190.527 991.917 189.419 1000.98 188.309C1010.1 187.191 1019.29 186.071 1028.55 184.95C1037.87 183.821 1047.26 182.692 1056.72 181.563C1047.27 183.015 1037.89 184.449 1028.58 185.864C1019.34 187.268 1010.16 188.656 1001.05 190.027C992.011 191.389 983.033 192.735 974.12 194.067C965.27 195.389 956.483 196.699 947.759 197.996C939.096 199.286 930.494 200.562 921.952 201.826C913.47 203.08 905.045 204.323 896.68 205.554C888.372 206.776 880.121 207.987 871.927 209.188C863.789 210.381 855.705 211.564 847.678 212.738C831.784 215.056 816.101 217.334 800.626 219.572C785.355 221.78 770.283 223.951 755.405 226.086C740.72 228.193 726.222 230.266 711.908 232.306C697.775 234.32 683.82 236.302 670.037 238.254C643.288 242.036 617.18 245.704 591.69 249.263C566.798 252.739 542.481 256.113 518.718 259.389C495.493 262.59 472.784 265.701 450.573 268.723C428.848 271.68 407.589 274.554 386.779 277.348" fill="#CDB9DA"/>
<path d="M379.622 247.896C379.246 247.952 378.87 248.009 378.493 248.065C378.116 248.122 377.74 248.178 377.363 248.235C376.987 248.291 376.611 248.348 376.235 248.404C375.859 248.461 375.484 248.517 375.11 248.573C346.091 252.931 317.934 257.136 290.598 261.198C264.055 265.141 238.264 268.951 213.192 272.633C188.816 276.212 165.099 279.674 142.014 283.022C119.544 286.28 97.6555 289.434 76.3258 292.485C65.8647 293.978 55.5354 295.448 45.3348 296.893C35.2629 298.321 25.315 299.725 15.4885 301.106C5.78348 302.469 -3.80495 303.81 -13.2798 305.128C-22.6396 306.43 -31.8894 307.71 -41.0324 308.966C-45.5639 309.588 -50.0686 310.204 -54.5475 310.816C-58.9995 311.424 -63.4265 312.027 -67.828 312.625C-72.2036 313.219 -76.555 313.807 -80.8822 314.39C-85.1843 314.969 -89.4627 315.543 -93.7181 316.11C-97.9481 316.675 -102.155 317.235 -106.339 317.79C-110.499 318.34 -114.637 318.886 -118.754 319.424C-122.848 319.96 -126.92 320.489 -130.972 321.01C-135.001 321.529 -139.01 322.04 -143 322.543C-139.115 321.842 -135.205 321.142 -131.271 320.443C-127.314 319.74 -123.331 319.037 -119.323 318.333C-115.292 317.626 -111.236 316.918 -107.155 316.208C-103.05 315.495 -98.9193 314.779 -94.7641 314.062C-90.5838 313.339 -86.3771 312.615 -82.1441 311.889C-77.8861 311.159 -73.6016 310.427 -69.2904 309.693C-64.9533 308.954 -60.589 308.212 -56.1974 307.468C-51.7795 306.718 -47.3339 305.966 -42.8603 305.21C-33.8304 303.687 -24.6853 302.153 -15.4235 300.607C-6.04588 299.041 3.4527 297.463 13.0744 295.87C22.8183 294.258 32.6897 292.631 42.6908 290.988C52.8214 289.323 63.0863 287.643 73.4883 285.945C94.7086 282.489 116.509 278.96 138.912 275.355C161.934 271.65 185.61 267.864 209.966 263.99C235.024 260.005 260.821 255.924 287.39 251.745C314.758 247.439 342.968 243.024 372.059 238.495C372.436 238.436 372.812 238.377 373.189 238.319C373.565 238.26 373.942 238.201 374.318 238.143C374.695 238.084 375.071 238.025 375.449 237.967C375.826 237.908 376.204 237.849 376.582 237.79C406.34 233.157 437.044 228.4 468.741 223.514C501.47 218.469 535.29 213.281 570.254 207.944C606.415 202.424 643.84 196.739 682.595 190.88C722.746 184.81 764.374 178.546 807.56 172.078C830.052 168.714 852.979 165.292 876.352 161.813C900.184 158.266 924.489 154.657 949.282 150.986C974.575 147.241 1000.39 143.43 1026.73 139.553C1053.62 135.595 1081.08 131.567 1109.12 127.468C1123.36 125.388 1137.76 123.288 1152.31 121.168C1167.02 119.025 1181.9 116.861 1196.93 114.677C1212.13 112.469 1227.5 110.241 1243.04 107.994C1258.75 105.721 1274.64 103.428 1290.71 101.116C1306.96 98.775 1323.4 96.4108 1340.02 94.0252C1356.84 91.6121 1373.86 89.1769 1391.07 86.7216C1408.48 84.2372 1426.1 81.732 1443.93 79.2074C1461.97 76.6526 1480.23 74.0778 1498.71 71.4844C1480.16 74.5537 1461.85 77.5718 1443.76 80.5427C1425.89 83.4773 1408.24 86.3659 1390.8 89.2116C1373.57 92.0233 1356.54 94.7937 1339.71 97.5255C1323.08 100.225 1306.64 102.888 1290.4 105.516C1274.34 108.116 1258.46 110.681 1242.77 113.211C1227.25 115.712 1211.9 118.18 1196.73 120.617C1181.72 123.027 1166.88 125.407 1152.2 127.757C1137.68 130.082 1123.32 132.38 1109.12 134.651C1081.16 139.113 1053.79 143.468 1026.99 147.72C1000.75 151.884 975.039 155.951 949.848 159.925C925.161 163.82 900.962 167.628 877.236 171.352C853.971 175.004 831.152 178.577 808.765 182.076C765.786 188.784 724.359 195.22 684.399 201.4C645.834 207.365 608.585 213.099 572.586 218.614C537.778 223.946 504.099 229.081 471.49 234.028C439.91 238.819 409.302 243.438 379.621 247.896" fill="#CDB9DA"/>
<path d="M366.6 215.598C366.484 215.617 366.368 215.637 366.253 215.656C366.137 215.676 366.021 215.695 365.905 215.714C365.789 215.734 365.674 215.753 365.558 215.773C365.442 215.792 365.326 215.812 365.211 215.831C354.507 217.63 343.919 219.396 333.445 221.129C323.086 222.843 312.837 224.525 302.694 226.176C292.662 227.808 282.734 229.409 272.907 230.979C263.185 232.533 253.561 234.056 244.033 235.55C234.603 237.021 225.268 238.467 216.023 239.881C206.872 241.28 197.809 242.649 188.83 243.981C179.941 245.3 171.132 246.583 162.4 247.825C153.755 249.055 145.183 250.245 136.682 251.389C144.96 249.683 153.336 247.993 161.811 246.314C170.372 244.618 179.035 242.932 187.796 241.252C196.649 239.553 205.604 237.86 214.66 236.166C223.812 234.454 233.067 232.74 242.426 231.02C251.888 229.286 261.458 227.549 271.136 225.806C280.921 224.044 290.817 222.277 300.827 220.504C310.947 218.712 321.185 216.913 331.541 215.107C342.014 213.282 352.609 211.449 363.329 209.608C363.444 209.588 363.558 209.569 363.673 209.549C363.787 209.529 363.902 209.509 364.016 209.49C364.131 209.47 364.245 209.451 364.36 209.431C364.475 209.411 364.59 209.392 364.705 209.372C375.447 207.528 386.315 205.678 397.312 203.82C408.435 201.94 419.69 200.054 431.08 198.16C442.602 196.244 454.264 194.32 466.066 192.39C478.008 190.436 490.096 188.475 502.332 186.506C514.85 184.499 527.525 182.48 540.36 180.458C553.353 178.41 566.513 176.358 579.842 174.309C593.339 172.234 607.013 170.163 620.866 168.103C634.897 166.017 649.113 163.942 663.521 161.887C649.252 164.702 635.165 167.435 621.254 170.095C607.525 172.72 593.966 175.274 580.575 177.767C567.353 180.228 554.293 182.629 541.391 184.98C528.651 187.302 516.062 189.575 503.625 191.806C491.469 193.982 479.454 196.115 467.577 198.208C455.841 200.275 444.239 202.304 432.768 204.294C421.429 206.261 410.217 208.19 399.129 210.084C388.168 211.957 377.325 213.794 366.6 215.598Z" fill="#CDB9DA"/>
<path d="M357.01 183.96C356.897 183.981 356.784 184.002 356.672 184.023C356.559 184.044 356.446 184.065 356.333 184.086C356.22 184.107 356.107 184.128 355.994 184.149C355.882 184.17 355.769 184.191 355.657 184.212C345.455 186.106 335.359 187.967 325.366 189.795C315.478 191.603 305.691 193.379 296.002 195.123C286.414 196.849 276.92 198.543 267.519 200.206C258.214 201.852 248.999 203.468 239.872 205.053C230.835 206.617 221.884 208.154 213.016 209.659C204.236 211.15 195.536 212.609 186.912 214.031C178.371 215.44 169.905 216.812 161.508 218.143C153.192 219.462 144.943 220.74 136.759 221.972C144.722 220.177 152.778 218.398 160.924 216.63C169.152 214.845 177.474 213.07 185.887 211.3C194.386 209.512 202.979 207.729 211.665 205.944C220.44 204.142 229.311 202.338 238.278 200.526C247.339 198.701 256.499 196.872 265.76 195.037C275.118 193.184 284.579 191.324 294.144 189.459C303.811 187.574 313.586 185.683 323.47 183.785C333.46 181.866 343.562 179.941 353.779 178.007C353.945 177.976 354.111 177.944 354.276 177.913C354.442 177.882 354.607 177.85 354.772 177.819C354.938 177.788 355.103 177.756 355.269 177.725C355.435 177.693 355.601 177.662 355.768 177.631C365.95 175.704 376.246 173.771 386.658 171.83C397.185 169.868 407.831 167.899 418.598 165.922C429.485 163.924 440.496 161.918 451.635 159.905C462.899 157.869 474.294 155.826 485.821 153.775C497.674 151.672 509.669 149.559 521.809 147.442C534.091 145.3 546.524 143.153 559.111 141.01C571.848 138.841 584.743 136.675 597.802 134.52C611.019 132.338 624.404 130.168 637.961 128.018C624.547 130.922 611.295 133.745 598.2 136.496C585.268 139.213 572.487 141.859 559.857 144.445C547.379 146.999 535.046 149.495 522.855 151.94C510.808 154.356 498.899 156.723 487.126 159.05C475.615 161.318 464.232 163.544 452.975 165.73C441.844 167.891 430.834 170.013 419.943 172.096C409.173 174.157 398.518 176.18 387.974 178.168C377.545 180.134 367.224 182.065 357.01 183.962" fill="#CDB9DA"/>
</g>
<defs>
<clipPath id="clip0_2190_7825">
<rect width="1728" height="479" fill="white" transform="translate(-130)"/>
</clipPath>
</defs>
</svg>
