<svg width="27" height="27" viewBox="0 0 27 27" fill="none" xmlns="http://www.w3.org/2000/svg">
<path d="M13.9659 26.3695C7.01913 26.4365 0.947116 20.7113 0.986519 13.2798C1.02198 6.33306 6.68815 0.324087 14.1196 0.371371C20.9481 0.414714 27.1581 5.97843 26.9965 13.7408C26.8586 20.4945 21.2712 26.4208 13.9659 26.3695ZM14.1235 24.6791C20.5305 24.6594 25.4637 19.1548 25.314 13.1616C25.1485 6.64829 19.6715 1.99084 13.9186 2.05782C7.38952 2.13269 2.55476 7.64912 2.66903 13.5635C2.79118 19.8247 8.09484 24.8446 14.1235 24.6791Z" fill="white"/>
<path d="M11.1897 12.5591C11.1424 12.6339 11.1109 12.6891 11.0754 12.7364C10.3859 13.7057 9.69633 14.675 9.00677 15.6404C8.96343 15.6995 8.92403 15.7625 8.8728 15.8138C8.84128 15.8453 8.79399 15.8571 8.75459 15.8807C8.73489 15.8374 8.70337 15.798 8.70337 15.7547C8.69549 15.5655 8.69943 15.3764 8.69943 15.1872V14.7144C8.68761 14.7065 8.67579 14.6986 8.66396 14.6908C8.6088 14.7381 8.53787 14.7735 8.49453 14.8326C7.97441 15.5734 7.73011 16.3733 8.05716 17.2599C8.35662 18.0637 9.45203 19.1354 10.7366 19.1039C11.4379 19.0882 12.0566 18.8202 12.6279 18.4301C13.2308 18.0164 13.7233 17.4884 14.208 16.9486C15.8235 15.1557 17.3208 13.2604 18.7945 11.3533C19.0112 11.0736 19.2279 10.7938 19.4486 10.514C19.6535 10.25 19.7796 9.94664 19.8899 9.63535C20.0515 9.17827 20.2524 8.74484 20.6149 8.40597C20.9696 8.07499 21.3833 7.87797 21.8837 7.95678C22.4196 8.04347 22.7703 8.50054 22.79 9.09947C22.8097 9.65899 22.5457 10.0924 22.1713 10.4628C21.8876 10.7386 21.5645 10.9711 21.2611 11.2312C21.0917 11.377 20.9104 11.5109 20.7765 11.6843C19.358 13.4456 17.9552 15.2227 16.5367 16.9801C15.8235 17.8627 15.063 18.7099 14.1962 19.4507C13.3845 20.1442 12.4624 20.6249 11.3985 20.7982C10.1573 20.9992 9.03829 20.684 8.0414 19.9393C7.23363 19.3403 6.61894 18.5799 6.31554 17.6066C5.88211 16.2157 6.24855 14.0761 8.18719 12.9649C9.09346 12.4448 10.047 12.3384 11.0557 12.5197C11.0873 12.5236 11.1227 12.5394 11.1897 12.5591ZM20.8671 10.0648C20.8829 10.0767 20.8947 10.0845 20.9104 10.0964C20.9735 10.053 21.0444 10.0215 21.0917 9.96634C21.2927 9.72992 21.4857 9.48956 21.6709 9.24132C21.7143 9.18616 21.7103 9.09553 21.7261 9.02066C21.6512 9.04824 21.5448 9.05218 21.5015 9.10735C21.2887 9.37529 21.0878 9.65505 20.8907 9.93481C20.871 9.96634 20.875 10.0215 20.8671 10.0648Z" fill="white"/>
</svg>
