<svg width="64" height="64" viewBox="0 0 64 64" fill="none" xmlns="http://www.w3.org/2000/svg">
<g clip-path="url(#clip0_2028_24458)">
<path fill-rule="evenodd" clip-rule="evenodd" d="M28.5086 58.3683H1.7528C1.10025 58.3683 0.570312 57.8384 0.570312 57.1902V1.05749C0.570312 0.404937 1.10025 -0.125 1.7528 -0.125H36.2486C36.2469 -0.0900635 36.2461 -0.0549932 36.2461 -0.0199229V6.59766C36.2461 8.09565 37.4809 9.3306 38.979 9.3306H45.5965C45.6317 9.3306 45.6667 9.32967 45.7017 9.32793V22.4709H34.896C31.3809 22.4709 28.5086 25.3432 28.5086 28.8582V58.3683ZM14.1451 22.2918C18.6026 22.2918 22.2386 18.656 22.2386 14.1983C22.2386 9.74061 18.6026 6.10467 14.1451 6.10467C9.68739 6.10467 6.05146 9.74061 6.05146 14.1983C6.05146 18.656 9.68739 22.2918 14.1451 22.2918ZM13.0742 9.30584V9.07828C13.0742 8.48731 13.554 8.00743 14.1451 8.00743C14.736 8.00743 15.2159 8.48731 15.2159 9.07828V9.29473C16.18 9.56338 17.0524 10.2203 17.5168 11.3267C17.7454 11.8716 17.4887 12.4998 16.9436 12.7284C16.3987 12.9572 15.7705 12.7003 15.5419 12.1554C15.1825 11.299 14.2171 11.1401 13.528 11.4111C13.1722 11.551 12.869 11.8245 12.8898 12.2421L12.8899 12.2447C12.9045 12.554 13.1211 12.7182 13.36 12.835C13.657 12.9799 14.0012 13.0588 14.3252 13.1116L14.3271 13.1119C15.8857 13.3685 17.5667 14.1121 17.7897 15.9649C18.0016 17.7147 16.6831 18.7826 15.2159 19.1254V19.321C15.2159 19.9119 14.736 20.3918 14.1451 20.3918C13.554 20.3918 13.0742 19.9119 13.0742 19.321V19.1096C11.86 18.796 10.8379 17.9503 10.5107 16.6357C10.3681 16.0622 10.7177 15.4806 11.2913 15.3379C11.8647 15.1952 12.4463 15.5449 12.589 16.1185C12.7688 16.8406 13.5176 17.1217 14.2239 17.1042H14.2263C14.556 17.0967 14.915 17.0283 15.2181 16.8798C15.476 16.7535 15.7041 16.5568 15.6635 16.2221L15.6634 16.221C15.6184 15.8463 15.349 15.6528 15.0525 15.5181C14.717 15.3658 14.3357 15.2839 13.981 15.2255C12.4444 14.9752 10.8367 14.1678 10.7506 12.3458C10.6815 10.9346 11.541 9.89133 12.744 9.41801C12.8516 9.37571 12.9619 9.33823 13.0742 9.30584ZM6.05146 48.523H25.0548C25.6459 48.523 26.1256 48.0432 26.1256 47.4522C26.1256 46.8611 25.6459 46.3813 25.0548 46.3813H6.05146C5.46048 46.3813 4.98061 46.8611 4.98061 47.4522C4.98061 48.0432 5.46048 48.523 6.05146 48.523ZM6.05146 35.8339H15.5531C16.1441 35.8339 16.624 35.354 16.624 34.763C16.624 34.172 16.1441 33.6922 15.5531 33.6922H6.05146C5.46048 33.6922 4.98061 34.172 4.98061 34.763C4.98061 35.354 5.46048 35.8339 6.05146 35.8339ZM20.0331 35.8339H25.0548C25.6459 35.8339 26.1256 35.354 26.1256 34.763C26.1256 34.172 25.6459 33.6922 25.0548 33.6922H20.0331C19.442 33.6922 18.9623 34.172 18.9623 34.763C18.9623 35.354 19.442 35.8339 20.0331 35.8339ZM6.05146 42.1784H10.8023C11.3933 42.1784 11.8731 41.6986 11.8731 41.1075C11.8731 40.5166 11.3933 40.0367 10.8023 40.0367H6.05146C5.46048 40.0367 4.98061 40.5166 4.98061 41.1075C4.98061 41.6986 5.46048 42.1784 6.05146 42.1784ZM14.5163 42.1784H25.0548C25.6459 42.1784 26.1256 41.6986 26.1256 41.1075C26.1256 40.5166 25.6459 40.0367 25.0548 40.0367H14.5163C13.9253 40.0367 13.4454 40.5166 13.4454 41.1075C13.4454 41.6986 13.9253 42.1784 14.5163 42.1784ZM6.05146 54.8676H25.0548C25.6459 54.8676 26.1256 54.3877 26.1256 53.7967C26.1256 53.2056 25.6459 52.7259 25.0548 52.7259H6.05146C5.46048 52.7259 4.98061 53.2056 4.98061 53.7967C4.98061 54.3877 5.46048 54.8676 6.05146 54.8676ZM6.05146 29.4894H10.3567C10.9476 29.4894 11.4275 29.0095 11.4275 28.4185C11.4275 27.8275 10.9476 27.3477 10.3567 27.3477H6.05146C5.46048 27.3477 4.98061 27.8275 4.98061 28.4185C4.98061 29.0095 5.46048 29.4894 6.05146 29.4894ZM15.0114 29.4894H25.0548C25.6459 29.4894 26.1256 29.0095 26.1256 28.4185C26.1256 27.8275 25.6459 27.3477 25.0548 27.3477H15.0114C14.4204 27.3477 13.9405 27.8275 13.9405 28.4185C13.9405 29.0095 14.4204 29.4894 15.0114 29.4894ZM38.3878 -0.0199229C38.5148 0.0370999 38.6286 0.115941 38.7338 0.221018L45.3557 6.84289C45.4607 6.94796 45.5396 7.06187 45.5965 7.1889H38.979C38.6549 7.1889 38.3878 6.92173 38.3878 6.59766V-0.0199229ZM59.1878 24.6126C61.5208 24.6126 63.43 26.5218 63.43 28.8582V59.8803C63.43 62.2133 61.5208 64.126 59.1878 64.126H34.896C32.5595 64.126 30.6503 62.2133 30.6503 59.8803V28.8582C30.6503 26.5218 32.5595 24.6126 34.896 24.6126H59.1878ZM56.8755 41.1299H53.2295C52.6918 41.1299 52.2542 41.5711 52.2542 42.1086V43.3768C52.2542 43.9109 52.6918 44.3521 53.2295 44.3521H56.8755C57.413 44.3521 57.8507 43.9109 57.8507 43.3768V42.1086C57.8507 41.5711 57.413 41.1299 56.8755 41.1299ZM40.8509 41.1299H37.2049C36.6673 41.1299 36.2296 41.5711 36.2296 42.1086V43.3768C36.2296 43.9109 36.6673 44.3521 37.2049 44.3521H40.8509C41.3886 44.3521 41.8296 43.9109 41.8296 43.3768V42.1086C41.8296 41.5711 41.3886 41.1299 40.8509 41.1299ZM57.7715 30.7053H36.3088C35.7713 30.7053 35.3337 31.143 35.3337 31.6806V35.5093C35.3337 36.0468 35.7713 36.4845 36.3088 36.4845H57.7715C58.3091 36.4845 58.7468 36.0468 58.7468 35.5093V31.6806C58.7468 31.143 58.3091 30.7053 57.7715 30.7053ZM48.8632 54.8145H45.2171C44.6795 54.8145 44.242 55.2521 44.242 55.7898V57.058C44.242 57.5955 44.6795 58.0333 45.2171 58.0333H48.8632C49.4008 58.0333 49.8385 57.5955 49.8385 57.058V55.7898C49.8385 55.2521 49.4008 54.8145 48.8632 54.8145ZM48.8632 41.1299H45.2171C44.6795 41.1299 44.242 41.5711 44.242 42.1086V43.3768C44.242 43.9109 44.6795 44.3521 45.2171 44.3521H48.8632C49.4008 44.3521 49.8385 43.9109 49.8385 43.3768V42.1086C49.8385 41.5711 49.4008 41.1299 48.8632 41.1299ZM56.8755 47.974H53.2295C52.6918 47.974 52.2542 48.4117 52.2542 48.9492V50.2174C52.2542 50.755 52.6918 51.1927 53.2295 51.1927H56.8755C57.413 51.1927 57.8507 50.755 57.8507 50.2174V48.9492C57.8507 48.4117 57.413 47.974 56.8755 47.974ZM40.8509 54.8145H37.2049C36.6673 54.8145 36.2296 55.2521 36.2296 55.7898V57.058C36.2296 57.5955 36.6673 58.0333 37.2049 58.0333H40.8509C41.3886 58.0333 41.8296 57.5955 41.8296 57.058V55.7898C41.8296 55.2521 41.3886 54.8145 40.8509 54.8145ZM56.8755 54.8145H53.2295C52.6918 54.8145 52.2542 55.2521 52.2542 55.7898V57.058C52.2542 57.5955 52.6918 58.0333 53.2295 58.0333H56.8755C57.413 58.0333 57.8507 57.5955 57.8507 57.058V55.7898C57.8507 55.2521 57.413 54.8145 56.8755 54.8145ZM48.8632 47.974H45.2171C44.6795 47.974 44.242 48.4117 44.242 48.9492V50.2174C44.242 50.755 44.6795 51.1927 45.2171 51.1927H48.8632C49.4008 51.1927 49.8385 50.755 49.8385 50.2174V48.9492C49.8385 48.4117 49.4008 47.974 48.8632 47.974ZM40.8509 47.974H37.2049C36.6673 47.974 36.2296 48.4117 36.2296 48.9492V50.2174C36.2296 50.755 36.6673 51.1927 37.2049 51.1927H40.8509C41.3886 51.1927 41.8296 50.755 41.8296 50.2174V48.9492C41.8296 48.4117 41.3886 47.974 40.8509 47.974Z" fill="#F9ED20"/>
</g>
<defs>
<clipPath id="clip0_2028_24458">
<rect width="64" height="64" fill="white"/>
</clipPath>
</defs>
</svg>
