<svg width="90" height="90" viewBox="0 0 90 90" fill="none" xmlns="http://www.w3.org/2000/svg">
<path d="M75.4168 54.5137H29.7136C27.2393 54.5137 25.0053 55.5376 23.408 57.1831V71.5848L23.5488 71.6133C24.5745 71.8211 25.3108 72.6701 25.3395 73.6782C25.3632 74.5174 24.8928 75.3042 24.1412 75.6827L23.8293 75.8396L24.1412 75.9966C24.8809 76.3691 25.3404 77.1128 25.3404 77.9379C25.3404 78.7629 24.8809 79.5068 24.1412 79.8791L23.8293 80.0361L24.1412 80.193C24.8809 80.5655 25.3404 81.3092 25.3404 82.1344C25.3404 82.9593 24.8809 83.7032 24.1412 84.0755L23.8293 84.2325L24.1412 84.3895C24.893 84.7679 25.3634 85.5547 25.3395 86.3939C25.3064 87.5579 24.2997 88.505 23.0955 88.505H22.9197V88.6808H82.448C83.4188 88.6808 84.2058 87.8938 84.2058 86.923V63.3027C84.2058 58.4487 80.2708 54.5137 75.4168 54.5137Z" fill="#1B95E8"/>
<path d="M78.9314 55.248V81.6506C78.9314 82.6214 78.1444 83.4084 77.1736 83.4084H24.9277C24.7271 83.6849 24.46 83.9155 24.1402 84.0765L23.8284 84.2335L24.1402 84.3905C24.892 84.7689 25.3624 85.5557 25.3385 86.3949C25.3055 87.5589 24.2988 88.506 23.0945 88.506H22.9187V88.6818H82.447C83.4179 88.6818 84.2048 87.8948 84.2048 86.924V63.3034C84.2048 59.6997 82.035 56.6044 78.9314 55.248Z" fill="#0077C8"/>
<path d="M37.7322 67.8799V54.5137H30.7009V67.7041L31.4041 67.8799H37.7322Z" fill="#FFF1BA"/>
<path d="M37.7322 67.7041V54.5137H34.2166V62.0628C34.2166 63.0336 33.4296 63.8206 32.4587 63.8206H30.7009V67.7041H37.7322Z" fill="#FFE57F"/>
<path d="M67.3984 54.5137V67.8799H73.7266L74.4297 67.7041V54.5137H67.3984Z" fill="#FFF1BA"/>
<path d="M70.9141 54.5137V62.0628C70.9141 63.0336 70.1271 63.8206 69.1562 63.8206H67.3984V67.8799H73.7266L74.4297 67.7041V54.5137H70.9141Z" fill="#FFE57F"/>
<path d="M30.7009 67.7051H74.4295V88.6821H30.7009V67.7051Z" fill="#FFBF3F"/>
<path d="M30.7009 67.7051H74.4295V88.6821H30.7009V67.7051Z" fill="#FFBF3F"/>
<path d="M30.7009 83.4082H74.4295V88.6816H30.7009V83.4082Z" fill="#EAA825"/>
<path d="M41.2303 88.6826H63.9065V78.5156C63.9065 78.0303 63.5129 77.6367 63.0276 77.6367H42.1093C41.6239 77.6367 41.2303 78.0303 41.2303 78.5156V88.6826Z" fill="#FFF1BA"/>
<path d="M41.2303 83.4082H63.9065V88.6816H41.2303V83.4082Z" fill="#FFE57F"/>
<path d="M39.1544 39.081V29.0508H38.8144C37.9181 29.9016 37.0897 30.8425 36.3428 31.8707C35.8814 32.5059 35.136 32.8851 34.3496 32.8853C33.8282 32.8853 33.3288 32.7227 32.9056 32.4151C32.6735 32.2465 32.4819 32.0431 32.3279 31.8192C31.9405 32.5478 31.7201 33.379 31.7201 34.2618C31.7201 37.1399 34.0532 39.473 36.9313 39.473H39.1644C39.1599 39.3428 39.1544 39.2125 39.1544 39.081Z" fill="#FFB09E"/>
<path d="M72.8046 31.8193C72.6506 32.0433 72.459 32.2465 72.227 32.4151C71.8037 32.7227 71.3043 32.8853 70.7828 32.8853C69.9963 32.8853 69.2512 32.5061 68.7894 31.8707C68.0424 30.8425 67.2141 29.9014 66.3178 29.0508H65.9782V39.081C65.9782 39.2125 65.9727 39.3428 65.9681 39.4732H68.2011C71.0792 39.4732 73.4123 37.1401 73.4123 34.262C73.4123 33.379 73.192 32.5479 72.8046 31.8193Z" fill="#F89580"/>
<path d="M54.8644 50.1946H50.2712C49.1274 50.1946 48.0235 50.0206 46.9843 49.6982V54.5143L51.8845 60.5675C52.2362 61.002 52.8989 61.002 53.2507 60.5675L58.1509 54.5143V49.6982C57.1121 50.0206 56.0082 50.1946 54.8644 50.1946Z" fill="#F89580"/>
<path d="M52.5641 23.6035C47.4192 23.6035 42.6398 25.4967 38.9778 28.8956V39.0795C38.9778 45.3146 44.0324 50.3692 50.2675 50.3692H54.8607C61.0958 50.3692 66.1504 45.3146 66.1504 39.0795V28.8958C62.4885 25.4969 57.709 23.6035 52.5641 23.6035Z" fill="#FFCEBF"/>
<path d="M61.4361 25.6455V36.4158C61.4361 41.8764 57.0094 46.3031 51.5488 46.3031H41.6017C43.6722 48.7876 46.7878 50.3705 50.2749 50.3705H54.8681C61.1032 50.3705 66.1578 45.316 66.1578 39.0808V28.8971C64.7377 27.5786 63.1488 26.488 61.4361 25.6455Z" fill="#FFB09E"/>
<path d="M52.5688 18.6827C59.6875 18.6827 66.2454 21.5917 70.9564 26.7509V19.7058C70.9564 9.55072 62.724 1.31836 52.5688 1.31836C42.4135 1.31836 34.1812 9.55072 34.1812 19.706V26.7511C38.8919 21.5917 45.4498 18.6827 52.5688 18.6827Z" fill="#FFBF3F"/>
<path d="M53.4292 1.33887C59.6318 4.29357 63.9189 10.6198 63.9189 17.9477V21.3809C66.5377 22.7165 68.9164 24.5234 70.9502 26.7507V19.7055C70.9502 9.84088 63.1819 1.7915 53.4292 1.33887Z" fill="#EAA825"/>
<path d="M70.7792 33.0595C69.9637 33.0595 69.1597 32.6824 68.6438 31.9725C64.8608 26.7656 59.0001 23.7793 52.5638 23.7793C46.128 23.7793 40.2671 26.7656 36.4839 31.9725C35.628 33.1504 33.979 33.4118 32.8011 32.5557C31.623 31.6998 31.3618 30.0508 32.2177 28.8727C37.0044 22.2845 44.4204 18.5059 52.5638 18.5059C60.7074 18.5059 68.1235 22.2845 72.9102 28.8727C73.766 30.0508 73.5048 31.6998 72.3267 32.5557C71.8588 32.8957 71.3165 33.0595 70.7792 33.0595Z" fill="#FFE57F"/>
<path d="M53.4469 13.5762H51.6891C49.9972 13.5762 48.6129 12.1919 48.6129 10.5C48.6129 8.80811 49.9972 7.42383 51.6891 7.42383H53.4469C55.1388 7.42383 56.5231 8.80811 56.5231 10.5C56.5231 12.1919 55.1388 13.5762 53.4469 13.5762Z" fill="#1B95E8"/>
<path d="M54.429 7.58887C54.4681 7.78381 54.4893 7.9849 54.4893 8.19092C54.4893 9.88281 53.1051 11.2671 51.4132 11.2671H48.7139C49.0572 12.5905 50.2621 13.5767 51.6891 13.5767H53.447C55.1388 13.5767 56.5231 12.1924 56.5231 10.5005C56.5231 9.15191 55.6426 8.00143 54.429 7.58887Z" fill="#0077C8"/>
<path d="M22.7039 45.2305H18.5825C18.0972 45.2305 17.7036 45.624 17.7036 46.1094V50.011H22.9171L23.5828 49.8352V46.1094C23.5828 45.6239 23.1892 45.2305 22.7039 45.2305Z" fill="#E0DBE3"/>
<path d="M22.7037 45.2305H20.067V50.011H22.917L23.5826 49.8352V46.1094C23.5826 45.6239 23.1891 45.2305 22.7037 45.2305Z" fill="#B5ADB6"/>
<path d="M7.15735 55.5381H11.8853V61.3396H7.15735V55.5381Z" fill="#E0DBE3"/>
<path d="M7.15735 65.3828V68.7956C7.15735 70.1011 8.21573 71.1597 9.52143 71.1597C10.827 71.1597 11.8855 70.1013 11.8855 68.7956V65.3828H7.15735Z" fill="#E0DBE3"/>
<path d="M19.9453 34.9502H10.7952C8.78759 34.9502 7.16003 36.5778 7.16003 38.5854V50.0111H11.888V40.5571C11.888 40.0718 12.2816 39.6782 12.7669 39.6782H23.0531C23.3444 39.6782 23.5805 39.4421 23.5805 39.1508V38.5854C23.5805 36.5778 21.9529 34.9502 19.9453 34.9502Z" fill="#E0DBE3"/>
<path d="M17.8835 61.165H6.67249C6.18715 61.165 5.79358 61.5586 5.79358 62.0439V64.6807C5.79358 65.166 6.18715 65.5596 6.67249 65.5596H17.8835V61.165Z" fill="#DCD008"/>
<path d="M17.708 57.472V72.076C18.2894 71.7524 18.9579 71.5673 19.6691 71.5673H23.0989C23.2664 71.5673 23.4296 71.5874 23.5872 71.622V49.835H6.67285C6.18752 49.835 5.79395 50.2285 5.79395 50.7139V54.8352C5.79395 55.3206 6.18752 55.7141 6.67285 55.7141H15.9502C16.9211 55.7141 17.708 56.5011 17.708 57.472Z" fill="#F9ED20"/>
<path d="M20.0754 49.8359V71.5683H23.1027C23.2703 71.5683 23.4334 71.5883 23.5911 71.623V49.8359H20.0754Z" fill="#DCD008"/>
<path d="M25.5219 77.9382C25.5219 77.0198 24.9939 76.2265 24.2259 75.8399C25.0129 75.4439 25.5478 74.6207 25.5209 73.6734C25.4845 72.3904 24.3846 71.3916 23.1011 71.3916H19.6712C17.34 71.3916 15.4502 73.2814 15.4502 75.6126V84.4602C15.4502 86.7914 17.34 88.6813 19.6712 88.6813H23.1011C24.3845 88.6813 25.4845 87.6823 25.5209 86.3995C25.5478 85.4522 25.0127 84.6292 24.2259 84.233C24.9939 83.8464 25.5219 83.0531 25.5219 82.1346C25.5219 81.2162 24.9939 80.4229 24.2259 80.0364C24.9939 79.6498 25.5219 78.8565 25.5219 77.9382Z" fill="#FFCEBF"/>
<path d="M25.5223 82.1348C25.5223 81.2164 24.9943 80.4231 24.2263 80.0365C24.9943 79.65 25.5223 78.8567 25.5223 77.9382C25.5223 77.0198 24.9943 76.2265 24.2263 75.8399C25.0132 75.4439 25.5481 74.6207 25.5212 73.6734C25.4849 72.3904 24.385 71.3916 23.1014 71.3916H20.7106V81.5962C20.7106 83.0524 19.5301 84.2329 18.0739 84.2329H15.4506V84.4602C15.4506 86.7914 17.3404 88.6813 19.6716 88.6813H23.1014C24.385 88.6813 25.4849 87.6823 25.5212 86.3993C25.5481 85.4522 25.0131 84.629 24.2263 84.2329C24.9943 83.8466 25.5223 83.0533 25.5223 82.1348Z" fill="#FFB09E"/>
<path d="M47.5602 32.9044V30.8291C47.5602 30.101 46.9701 29.5107 46.2418 29.5107C45.5136 29.5107 44.9235 30.101 44.9235 30.8291V32.9044C44.9235 33.6325 45.5136 34.2227 46.2418 34.2227C46.9701 34.2227 47.5602 33.6325 47.5602 32.9044Z" fill="black"/>
<path d="M58.8981 34.2227C59.6263 34.2227 60.2164 33.6325 60.2164 32.9044V30.8291C60.2164 30.101 59.6263 29.5107 58.8981 29.5107C58.1698 29.5107 57.5797 30.101 57.5797 30.8291V32.9044C57.5797 33.6325 58.1698 34.2227 58.8981 34.2227Z" fill="black"/>
<path d="M50.2552 39.1404L51.7138 40.3908C51.9624 40.6038 52.2674 40.7082 52.5711 40.7082C52.9427 40.7082 53.312 40.552 53.5727 40.2479C54.0464 39.695 53.9826 38.8629 53.4298 38.389L51.9712 37.1386C51.9638 37.1323 51.9445 37.1158 51.9431 37.0804C51.9418 37.0455 51.9599 37.0274 51.9668 37.0205L52.6462 36.3409C53.4483 35.539 53.8902 34.4724 53.8902 33.3379C53.8902 32.6098 53.3001 32.0195 52.5718 32.0195C51.8436 32.0195 51.2535 32.6098 51.2535 33.3379C51.2535 33.768 51.0861 34.1723 50.7817 34.4766L50.1023 35.1562C49.5688 35.6897 49.2793 36.4278 49.3083 37.1817C49.3371 37.9354 49.6823 38.6495 50.2552 39.1404Z" fill="black"/>
<path d="M57.672 44.0601C58.1869 43.5453 58.1869 42.7105 57.6719 42.1958C57.1572 41.6807 56.3224 41.6809 55.8075 42.1958C54.9416 43.0619 53.7913 43.5388 52.5688 43.5388C51.3462 43.5388 50.1959 43.0619 49.33 42.1958C48.8151 41.6809 47.9803 41.6807 47.4656 42.1958C46.9506 42.7106 46.9506 43.5453 47.4655 44.0601C48.8295 45.4242 50.6418 46.1755 52.5688 46.1755C54.4957 46.1755 56.308 45.4242 57.672 44.0601Z" fill="black"/>
<path d="M53.4489 14.8945C55.872 14.8945 57.8434 12.9231 57.8434 10.5C57.8434 8.07686 55.872 6.10547 53.4489 6.10547H51.691C49.2679 6.10547 47.2965 8.07686 47.2965 10.5C47.2965 12.9231 49.2679 14.8945 51.691 14.8945H53.4489ZM49.9332 10.5C49.9332 9.53074 50.7218 8.74219 51.691 8.74219H53.4489C54.4181 8.74219 55.2067 9.53074 55.2067 10.5C55.2067 11.4693 54.4181 12.2578 53.4489 12.2578H51.691C50.7218 12.2578 49.9332 11.4693 49.9332 10.5Z" fill="black"/>
<path d="M75.4206 53.1958H59.4709V50.8157C63.6404 49.1729 66.7305 45.3693 67.3545 40.7909H68.2026C71.803 40.7909 74.7322 37.8617 74.7322 34.2613C74.7322 33.5167 74.6079 32.792 74.3627 32.0984C74.95 30.837 74.856 29.3022 73.9818 28.0988C73.4441 27.3588 72.8731 26.6546 72.2748 25.9831V19.7058C72.2748 8.84004 63.4347 0 52.569 0C47.0855 0 41.9928 2.19885 38.2288 6.19137C37.7294 6.72117 37.7538 7.55561 38.2836 8.055C38.8136 8.55475 39.6478 8.52996 40.1472 8.00016C43.4078 4.54148 47.8192 2.63672 52.569 2.63672C61.981 2.63672 69.6381 10.2939 69.6381 19.7058V23.4042C64.9278 19.4022 58.9618 17.1886 52.569 17.1886C46.1762 17.1886 40.21 19.4022 35.4999 23.4044V19.706C35.4999 17.2849 35.9969 14.9451 36.9767 12.7515C37.2736 12.0867 36.9754 11.3071 36.3106 11.0101C35.6458 10.713 34.8662 11.0111 34.5692 11.6761C33.4371 14.2103 32.863 16.9119 32.863 19.706V25.9835C32.2647 26.6549 31.6937 27.3591 31.156 28.0992C30.5352 28.9538 30.2842 29.9992 30.4494 31.0426C30.5083 31.4142 30.6195 31.7686 30.7744 32.1005C30.5295 32.7936 30.4056 33.5178 30.4056 34.2617C30.4056 37.8621 33.3348 40.7913 36.9352 40.7913H37.7832C38.4072 45.3697 41.4974 49.173 45.6669 50.8159V53.196H29.7173C28.0129 53.196 26.3686 53.6212 24.9058 54.417V46.1097C24.9058 44.898 23.9202 43.9124 22.7085 43.9124H18.5873C17.3757 43.9124 16.3901 44.898 16.3901 46.1097V48.5172H13.2135V40.9968H23.0602C24.078 40.9968 24.906 40.1688 24.906 39.1511V38.5856C24.906 35.8541 22.6839 33.632 19.9524 33.632H10.8023C8.07085 33.632 5.8488 35.8543 5.8488 38.5856V48.6793C5.04478 49.0061 4.47595 49.7946 4.47595 50.7147V54.836C4.47595 55.7561 5.04478 56.5444 5.8488 56.8714V60.0084C5.04478 60.3352 4.47595 61.1237 4.47595 62.0437V64.6805C4.47595 65.6005 5.04478 66.3889 5.8488 66.7158V68.7964C5.8488 70.8268 7.50062 72.4788 9.53124 72.4788C11.5617 72.4788 13.2135 70.827 13.2135 68.7964V66.8777H16.3901V71.1524C15.0205 72.1619 14.13 73.7852 14.13 75.6134V76.6663C14.13 77.3944 14.7203 77.9846 15.4484 77.9846C16.1765 77.9846 16.7668 77.3944 16.7668 76.6663V75.6134C16.7668 74.0129 18.0689 72.7105 19.6694 72.7105H23.0993C23.6913 72.7105 24.1856 73.1595 24.2012 73.7114C24.2127 74.1155 23.9944 74.4803 23.6314 74.6629C23.1865 74.8869 22.9057 75.3425 22.9057 75.8405C22.9057 76.3385 23.1865 76.7941 23.6312 77.018C23.9831 77.195 24.2016 77.548 24.2016 77.9388C24.2016 78.3295 23.9831 78.6823 23.6312 78.8593C23.1863 79.0833 22.9057 79.5389 22.9057 80.0369C22.9057 80.5349 23.1865 80.9905 23.6312 81.2145C23.9831 81.3915 24.2016 81.7444 24.2016 82.1352C24.2016 82.526 23.9831 82.8787 23.6312 83.0558C23.1863 83.2797 22.9057 83.7353 22.9057 84.2333C22.9057 84.7313 23.1865 85.1869 23.6314 85.4109C23.9944 85.5937 24.2128 85.9583 24.2012 86.3624C24.1856 86.9143 23.6913 87.3633 23.0993 87.3633H19.6694C18.0689 87.3633 16.7668 86.0611 16.7668 84.4606V82.8183C16.7668 82.0902 16.1765 81.4999 15.4484 81.4999C14.7203 81.4999 14.13 82.0902 14.13 82.8183V84.4606C14.13 87.515 16.6151 90 19.6694 90H82.4518C84.1479 90 85.528 88.6199 85.528 86.9238V63.3032C85.528 57.7299 80.9939 53.1958 75.4206 53.1958ZM19.0268 46.549H22.2692V48.517H19.0268V46.549ZM8.48552 38.5852C8.48552 37.3076 9.52492 36.2684 10.8023 36.2684H19.9524C21.1539 36.2684 22.1446 37.1876 22.2583 38.3597H12.7741C11.5624 38.3597 10.5768 39.3453 10.5768 40.557V48.5169H8.48552V38.5852ZM10.5768 68.796C10.5768 69.3726 10.1078 69.8418 9.53124 69.8418C8.95468 69.8418 8.48552 69.3728 8.48552 68.796V66.8774H10.5768V68.796ZM16.3901 64.2407H7.11267V62.4829H16.3901V64.2407ZM8.48552 59.8461V57.0329H10.5768V59.8461H8.48552ZM16.3901 59.8461H13.2135V57.0329H15.9506C16.1928 57.0329 16.3901 57.2302 16.3901 57.4724V59.8461ZM22.2692 70.0736H19.6693C19.4518 70.0736 19.2377 70.0875 19.0266 70.1121V57.4726C19.0266 55.7764 17.6465 54.3964 15.9504 54.3964H7.11267V51.1539H22.2692V70.0736ZM29.3864 87.3633H26.6817C26.7717 87.0674 26.8279 86.7579 26.8369 86.4371C26.8594 85.6404 26.6184 84.8719 26.1777 84.2384C26.6012 83.6348 26.8385 82.906 26.8385 82.135C26.8385 81.3662 26.6024 80.6393 26.1814 80.0367C26.6026 79.4341 26.8385 78.7073 26.8385 77.9384C26.8385 77.1674 26.6012 76.4385 26.1777 75.835C26.6186 75.2015 26.8596 74.433 26.8369 73.6363C26.7993 72.311 26.0225 71.1545 24.9061 70.5408V57.5965C26.1696 56.5276 27.7325 55.9123 29.3864 55.8399V87.3633ZM68.7205 55.8325H73.115L73.1148 66.3863H68.7205V55.8325ZM68.2026 38.1544H67.4737V32.6036C67.5097 32.6521 67.5468 32.6997 67.5823 32.7486C68.3243 33.7695 69.5213 34.3789 70.7843 34.3789H70.7845C71.2357 34.3789 71.6755 34.3009 72.0925 34.1543C72.0934 34.19 72.0955 34.2257 72.0955 34.2615C72.0955 36.408 70.3491 38.1544 68.2026 38.1544ZM37.6642 38.1544H36.9354C34.7889 38.1544 33.0425 36.408 33.0425 34.2615C33.0425 34.2258 33.0444 34.1903 33.0455 34.1546C33.4626 34.3018 33.9012 34.3796 34.3473 34.3796C34.5555 34.3796 34.7652 34.3633 34.9745 34.3301C36.018 34.1648 36.9345 33.603 37.5555 32.7486C37.5912 32.6995 37.6281 32.6521 37.6642 32.6036V38.1544ZM35.4224 31.1985C35.2153 31.4835 34.9098 31.6707 34.562 31.7259C34.2139 31.7807 33.8659 31.6972 33.5809 31.4903C33.296 31.2834 33.1088 30.9778 33.0536 30.6299C32.9986 30.282 33.0821 29.9336 33.289 29.6488C37.8248 23.4058 44.852 19.8253 52.5686 19.8253C60.2853 19.8253 67.3125 23.4058 71.8485 29.6487C72.0554 29.9336 72.1391 30.282 72.0839 30.6299C72.0289 30.9778 71.8417 31.2833 71.5567 31.4903C71.3298 31.6552 71.0626 31.7424 70.784 31.7424C70.3558 31.7424 69.9662 31.5443 69.7151 31.1989C65.6812 25.6467 59.4317 22.4622 52.5686 22.4622C45.7061 22.462 39.4564 25.6463 35.4224 31.1985ZM40.3009 39.0806V29.719C43.6483 26.7481 47.9495 25.0987 52.569 25.0987C57.1885 25.0987 61.4895 26.7481 64.8369 29.719V39.0806C64.8369 44.5788 60.3638 49.0521 54.8656 49.0521H50.2724C44.7742 49.0519 40.3009 44.5788 40.3009 39.0806ZM56.8342 51.532V54.0475L52.569 59.316L48.3038 54.0475V51.532C48.9456 51.6331 49.6025 51.6887 50.2724 51.6887H54.8656C55.5355 51.6887 56.1922 51.6333 56.8342 51.532ZM39.0544 55.8325H46.3567L50.8613 61.3969C51.2805 61.9147 51.903 62.2116 52.5692 62.2116C53.2354 62.2116 53.8578 61.9147 54.2769 61.3969L58.7816 55.8325H66.0839V66.3863H39.0544V55.8325ZM32.0232 55.8325H36.4177V66.3863H32.0232V55.8325ZM62.5887 87.3633H42.5493V78.9541H62.5885V87.3633H62.5887ZM82.8913 86.9238C82.8913 87.1661 82.6942 87.3633 82.4518 87.3633H75.7517V79.0942C75.7517 78.3661 75.1616 77.7758 74.4334 77.7758C73.7051 77.7758 73.115 78.3661 73.115 79.0942V87.3633H65.2254V78.5146C65.2254 77.303 64.2398 76.3174 63.0282 76.3174H42.1098C40.8982 76.3174 39.9126 77.303 39.9126 78.5146V87.3633H32.023V69.023H73.1148V72.9418C73.1148 73.6699 73.7049 74.2602 74.4332 74.2602C75.1615 74.2602 75.7516 73.6699 75.7516 72.9418V55.841C79.7177 56.015 82.8911 59.2949 82.8911 63.3032V86.9238H82.8913Z" fill="black"/>
</svg>
