<svg width="64" height="64" viewBox="0 0 64 64" fill="none" xmlns="http://www.w3.org/2000/svg">
<g clip-path="url(#clip0_2028_24501)">
<path d="M54.7468 26.8562C54.8237 17.833 47.1386 9.5611 37.6155 8.41725C37.4261 8.39479 37.2198 8.3606 37.0013 8.32442C36.5299 8.24631 36.0423 8.16602 35.5504 8.16602C33.5986 8.16602 33.0769 9.53705 32.9395 10.3547C32.806 11.1498 32.9334 11.8174 33.3176 12.3399C33.9639 13.2188 35.1012 13.3749 36.0147 13.4999C36.2824 13.5368 36.535 13.5712 36.7465 13.6187C45.3027 15.5306 48.1836 18.5364 49.5916 27.0198C49.626 27.2271 49.6415 27.4825 49.658 27.7534C49.7194 28.7675 49.8474 30.8773 52.1157 30.8773H52.1159C52.3047 30.8773 52.5076 30.861 52.7189 30.8288C54.8311 30.5078 54.7649 28.5792 54.7331 27.6526C54.7242 27.3917 54.7156 27.1448 54.7377 26.9806C54.7436 26.9393 54.7466 26.8977 54.7468 26.8562Z" fill="white"/>
<path d="M34.9968 5.10569C35.2502 5.12397 35.4901 5.14147 35.6898 5.17207C49.7398 7.33277 56.2012 13.9896 57.9919 28.1495C58.0223 28.3902 58.027 28.6837 58.032 28.9946C58.0499 30.1009 58.0867 32.4023 60.5582 32.45L60.6349 32.4508C61.4101 32.4508 62.0266 32.217 62.4677 31.7555C63.2371 30.9508 63.1834 29.7552 63.1401 28.7944C63.1295 28.5587 63.1194 28.3367 63.122 28.1423C63.3007 13.6604 50.765 0.528298 36.2961 0.0399503C36.236 0.0379627 36.1788 0.0411429 36.1209 0.0492919C36.0925 0.0534658 36.0399 0.0586335 35.9496 0.0586335C35.8053 0.0586335 35.6278 0.0461118 35.4396 0.0333913C35.212 0.0178882 34.954 0 34.6925 0C32.3883 0 31.9502 1.63776 31.8942 2.61406C31.765 4.87036 33.9477 5.02917 34.9968 5.10569Z" fill="white"/>
<path d="M57.3136 46.4507C57.0149 46.2225 56.706 45.9864 56.4168 45.7534C54.8828 44.5189 53.2508 43.3811 51.6725 42.2805C51.3449 42.0524 51.0174 41.824 50.691 41.595C48.6693 40.1749 46.8516 39.4848 45.1344 39.4848C42.8214 39.4848 40.8048 40.7628 39.1404 43.2829C38.403 44.4001 37.5084 44.9433 36.4059 44.9433C35.754 44.9433 35.0132 44.7572 34.2045 44.3901C27.6787 41.4308 23.0188 36.8936 20.354 30.9044C19.0659 28.0097 19.4835 26.1175 21.7505 24.5776C23.0379 23.7038 25.4341 22.0772 25.2643 18.9623C25.0721 15.425 17.2673 4.7817 13.9789 3.57285C12.5866 3.06085 11.1237 3.05608 9.6231 3.56093C5.84273 4.83178 3.12988 7.06363 1.77714 10.0148C0.469909 12.8664 0.52894 16.2146 1.94787 19.6977C6.04983 29.7679 11.817 38.5479 19.0897 45.7932C26.2084 52.8856 34.958 58.6953 45.095 63.0603C46.0087 63.4534 46.9671 63.6679 47.6669 63.8243C47.9054 63.878 48.1113 63.9237 48.2614 63.9648C48.3439 63.9873 48.429 63.9994 48.5142 64.0002L48.5943 64.0006C48.5943 64.0006 48.5943 64.0006 48.5947 64.0006C53.3625 64.0006 59.0873 59.6438 60.8456 54.6769C62.3859 50.3276 59.5735 48.1779 57.3136 46.4507Z" fill="white"/>
<path d="M37.1056 16.6092C36.2893 16.6298 34.5905 16.672 33.9945 18.4022C33.7156 19.2107 33.749 19.9127 34.0938 20.4887C34.5999 21.3338 35.5694 21.5928 36.4513 21.7349C39.6495 22.2481 41.2921 24.0167 41.6206 27.3001C41.7732 28.8312 42.8042 29.9003 44.1279 29.9003C44.2257 29.9003 44.3259 29.8945 44.4255 29.8824C46.0175 29.693 46.7893 28.5233 46.7195 26.4061C46.745 24.1965 45.5886 21.688 43.6219 19.6899C41.6484 17.6856 39.2695 16.5569 37.1056 16.6092Z" fill="white"/>
</g>
<defs>
<clipPath id="clip0_2028_24501">
<rect width="64" height="64" fill="white"/>
</clipPath>
</defs>
</svg>
