<svg width="1440" height="601" viewBox="0 0 1440 601" fill="none" xmlns="http://www.w3.org/2000/svg">
<g opacity="0.25" clip-path="url(#clip0_2239_5185)">
<path d="M1157.44 439.36C1157.58 439.37 1157.72 439.38 1157.86 439.39C1158 439.4 1158.14 439.41 1158.28 439.42C1158.43 439.431 1158.57 439.441 1158.71 439.451C1158.85 439.461 1158.99 439.471 1159.13 439.481C1170.89 440.324 1182.57 441.153 1194.17 441.968C1205.68 442.776 1217.1 443.57 1228.44 444.35C1239.7 445.123 1250.88 445.883 1261.98 446.628C1273 447.369 1283.94 448.094 1294.81 448.806C1305.6 449.509 1316.32 450.2 1326.97 450.876C1337.53 451.547 1348.03 452.203 1358.47 452.839C1368.83 453.471 1379.13 454.085 1389.36 454.676C1399.53 455.263 1409.63 455.828 1419.68 456.369C1409.89 455.473 1400 454.592 1390.03 453.722C1379.99 452.846 1369.86 451.981 1359.64 451.125C1349.36 450.262 1338.98 449.406 1328.52 448.556C1317.98 447.699 1307.36 446.846 1296.65 445.993C1285.86 445.137 1274.98 444.284 1264.01 443.433C1252.96 442.575 1241.82 441.72 1230.59 440.866C1219.28 440.006 1207.87 439.148 1196.37 438.292C1184.78 437.429 1173.09 436.567 1161.32 435.707C1161.17 435.696 1161.03 435.686 1160.89 435.676C1160.75 435.665 1160.61 435.655 1160.47 435.645C1160.33 435.634 1160.19 435.624 1160.05 435.614C1159.91 435.604 1159.77 435.593 1159.63 435.583C1147.88 434.726 1136.05 433.87 1124.11 433.016C1112.08 432.156 1099.96 431.297 1087.73 430.44C1075.41 429.577 1062.98 428.715 1050.46 427.856C1037.83 426.99 1025.1 426.126 1012.26 425.266C999.158 424.391 985.948 423.517 972.624 422.648C959.191 421.772 945.642 420.901 931.973 420.04C918.192 419.172 904.289 418.313 890.261 417.469C876.116 416.618 861.844 415.782 847.442 414.965C861.66 416.219 875.765 417.436 889.758 418.62C903.631 419.795 917.395 420.938 931.049 422.054C944.589 423.161 958.023 424.242 971.35 425.302C984.566 426.353 997.68 427.384 1010.69 428.398C1023.44 429.388 1036.1 430.361 1048.65 431.317C1061.11 432.266 1073.47 433.198 1085.74 434.114C1097.92 435.022 1110 435.915 1122 436.793C1133.9 437.663 1145.71 438.519 1157.44 439.36Z" fill="#CDB9DA"/>
<path d="M1169 418.552C1169.18 418.566 1169.36 418.58 1169.54 418.594C1169.72 418.609 1169.9 418.623 1170.08 418.637C1170.26 418.651 1170.44 418.665 1170.62 418.679C1170.79 418.694 1170.97 418.708 1171.15 418.722C1190.04 420.21 1208.7 421.67 1227.14 423.101C1245.35 424.515 1263.35 425.902 1281.14 427.261C1298.71 428.604 1316.09 429.92 1333.26 431.211C1350.24 432.486 1367.02 433.736 1383.62 434.96C1391.84 435.565 1400.02 436.164 1408.16 436.757C1416.25 437.346 1424.3 437.93 1432.3 438.506C1440.26 439.079 1448.17 439.646 1456.05 440.206C1463.88 440.762 1471.67 441.312 1479.41 441.855C1483.27 442.124 1487.12 442.392 1490.96 442.659C1494.79 442.925 1498.6 443.189 1502.41 443.452C1506.21 443.714 1509.99 443.974 1513.77 444.231C1517.54 444.488 1521.3 444.743 1525.05 444.995C1528.79 445.249 1532.52 445.5 1536.24 445.748C1539.95 445.996 1543.65 446.241 1547.35 446.483C1551.03 446.724 1554.71 446.963 1558.38 447.199C1562.03 447.435 1565.68 447.668 1569.33 447.898C1565.77 447.556 1562.21 447.214 1558.63 446.873C1555.05 446.532 1551.45 446.191 1547.84 445.851C1544.22 445.511 1540.59 445.171 1536.95 444.833C1533.3 444.493 1529.63 444.155 1525.96 443.817C1522.27 443.477 1518.58 443.138 1514.87 442.8C1511.15 442.46 1507.42 442.121 1503.67 441.782C1499.92 441.442 1496.16 441.102 1492.38 440.762C1488.6 440.421 1484.8 440.08 1480.99 439.739C1473.34 439.054 1465.64 438.369 1457.89 437.685C1450.1 436.997 1442.26 436.308 1434.38 435.619C1426.45 434.926 1418.46 434.232 1410.44 433.536C1402.36 432.837 1394.23 432.137 1386.06 431.435C1369.56 430.022 1352.86 428.603 1335.95 427.178C1318.84 425.735 1301.51 424.287 1283.96 422.832C1266.21 421.358 1248.22 419.878 1230.01 418.39C1211.57 416.883 1192.9 415.368 1173.98 413.845C1173.71 413.823 1173.45 413.802 1173.18 413.78C1172.91 413.759 1172.65 413.737 1172.38 413.716C1172.11 413.694 1171.85 413.673 1171.58 413.651C1171.31 413.63 1171.05 413.608 1170.78 413.587C1151.85 412.063 1132.68 410.53 1113.27 408.99C1093.6 407.429 1073.68 405.86 1053.5 404.283C1033.05 402.685 1012.34 401.078 991.344 399.462C970.077 397.824 948.523 396.178 926.676 394.522C915.484 393.676 904.215 392.826 892.868 391.975C881.444 391.118 869.94 390.258 858.355 389.397C846.691 388.53 834.945 387.662 823.114 386.792C811.203 385.916 799.205 385.039 787.122 384.161C781.048 383.72 774.952 383.279 768.834 382.837C762.695 382.394 756.534 381.95 750.351 381.506C744.146 381.061 737.918 380.616 731.669 380.171C725.397 379.724 719.102 379.278 712.785 378.832L674.389 376.144C671.15 375.923 667.905 375.7 664.656 375.477C661.4 375.253 658.138 375.028 654.871 374.804C651.598 374.579 648.319 374.354 645.034 374.131C641.742 373.907 638.445 373.685 635.141 373.465C638.42 373.77 641.692 374.072 644.96 374.371C648.222 374.669 651.478 374.965 654.728 375.26C657.973 375.555 661.212 375.848 664.445 376.141C667.672 376.433 670.893 376.725 674.107 377.019L712.241 380.428C718.515 380.985 724.767 381.539 730.997 382.088C737.204 382.635 743.39 383.179 749.554 383.719C755.696 384.257 761.816 384.791 767.915 385.323C773.992 385.853 780.048 386.38 786.082 386.905C798.085 387.946 810.005 388.974 821.843 389.989C833.597 390.998 845.272 391.995 856.865 392.981C868.379 393.96 879.815 394.928 891.173 395.886C902.453 396.837 913.658 397.779 924.788 398.711C946.614 400.535 968.155 402.321 989.417 404.072C1010.4 405.801 1031.11 407.494 1051.57 409.154C1071.75 410.793 1091.69 412.399 1111.38 413.975C1130.82 415.53 1150.03 417.055 1169 418.551" fill="#CDB9DA"/>
<path d="M1180.31 396.826C1180.59 396.85 1180.87 396.874 1181.15 396.898C1181.43 396.922 1181.71 396.946 1181.99 396.97C1182.27 396.994 1182.55 397.018 1182.83 397.043C1183.11 397.067 1183.38 397.091 1183.66 397.115C1204.53 398.915 1225.12 400.681 1245.44 402.41C1265.48 404.117 1285.26 405.79 1304.79 407.429C1324.05 409.046 1343.08 410.632 1361.86 412.185C1380.39 413.717 1398.7 415.219 1416.78 416.691C1425.73 417.417 1434.63 418.136 1443.48 418.848C1452.27 419.555 1461.01 420.255 1469.7 420.947C1478.33 421.635 1486.91 422.315 1495.44 422.987C1503.92 423.655 1512.35 424.315 1520.73 424.966C1524.9 425.289 1529.06 425.61 1533.21 425.93C1537.34 426.249 1541.46 426.567 1545.58 426.882C1549.67 427.196 1553.76 427.508 1557.84 427.817C1561.9 428.126 1565.96 428.432 1570 428.735C1574.03 429.039 1578.05 429.34 1582.06 429.639C1586.05 429.936 1590.04 430.23 1594.02 430.522C1597.98 430.812 1601.94 431.1 1605.88 431.385C1609.81 431.668 1613.74 431.949 1617.65 432.227C1613.83 431.83 1610 431.435 1606.16 431.041C1602.3 430.645 1598.43 430.25 1594.55 429.856C1590.65 429.461 1586.74 429.067 1582.82 428.673C1578.89 428.279 1574.94 427.885 1570.97 427.492C1567 427.096 1563.01 426.701 1559.01 426.306C1555 425.91 1550.98 425.514 1546.94 425.118C1542.88 424.721 1538.82 424.324 1534.74 423.927C1530.65 423.527 1526.54 423.128 1522.42 422.728C1514.15 421.926 1505.81 421.124 1497.42 420.32C1488.98 419.511 1480.48 418.702 1471.93 417.89C1463.32 417.074 1454.65 416.255 1445.93 415.434C1437.15 414.608 1428.31 413.78 1419.41 412.949C1401.43 411.274 1383.21 409.59 1364.74 407.895C1346.03 406.177 1327.06 404.448 1307.83 402.707C1288.33 400.943 1268.57 399.166 1248.52 397.376C1228.2 395.562 1207.59 393.733 1186.69 391.89C1186.41 391.865 1186.12 391.84 1185.84 391.816C1185.56 391.791 1185.28 391.766 1185 391.741C1184.72 391.717 1184.43 391.692 1184.15 391.667C1183.87 391.642 1183.59 391.618 1183.31 391.593C1162.35 389.745 1141.09 387.884 1119.53 386.008C1097.66 384.106 1075.47 382.188 1052.96 380.256C1030.13 378.295 1006.95 376.319 983.433 374.327C959.568 372.306 935.344 370.268 910.753 368.213C898.149 367.162 885.447 366.106 872.646 365.046C859.748 363.978 846.749 362.905 833.648 361.829C820.445 360.744 807.138 359.656 793.725 358.564C780.207 357.464 766.581 356.36 752.845 355.254C745.936 354.698 738.999 354.141 732.035 353.584C725.043 353.024 718.023 352.463 710.975 351.901C703.898 351.337 696.793 350.773 689.657 350.208C682.494 349.641 675.301 349.074 668.079 348.508L624.121 345.078C620.408 344.794 616.687 344.509 612.959 344.223C609.224 343.936 605.481 343.647 601.73 343.36C597.972 343.071 594.205 342.783 590.431 342.496C586.648 342.208 582.857 341.922 579.058 341.638C582.833 342.016 586.599 342.389 590.358 342.759C594.109 343.129 597.854 343.496 601.589 343.861C605.318 344.226 609.038 344.588 612.751 344.951C616.456 345.313 620.153 345.675 623.842 346.037L667.533 350.252C674.71 350.941 681.858 351.625 688.978 352.303C696.069 352.979 703.131 353.65 710.165 354.317C717.171 354.981 724.148 355.641 731.098 356.297C738.019 356.95 744.913 357.6 751.779 358.246C765.431 359.529 778.975 360.794 792.413 362.045C805.745 363.286 818.974 364.512 832.102 365.723C845.126 366.926 858.051 368.114 870.878 369.289C883.605 370.455 896.236 371.609 908.773 372.75C933.235 374.974 957.34 377.151 981.096 379.283C1004.5 381.383 1027.58 383.441 1050.33 385.456C1072.75 387.443 1094.86 389.39 1116.67 391.297C1138.17 393.178 1159.39 395.02 1180.31 396.827" fill="#CDB9DA"/>
<path d="M1195.41 373.93C1195.55 373.942 1195.68 373.954 1195.81 373.967C1195.94 373.979 1196.07 373.991 1196.2 374.004C1196.33 374.016 1196.46 374.029 1196.59 374.041C1196.72 374.053 1196.85 374.066 1196.98 374.078C1207 375.022 1216.95 375.953 1226.85 376.87C1236.67 377.78 1246.44 378.677 1256.15 379.56C1265.8 380.437 1275.39 381.3 1284.92 382.149C1294.39 382.993 1303.81 383.823 1313.17 384.639C1322.48 385.446 1331.73 386.242 1340.93 387.022C1350.07 387.798 1359.16 388.558 1368.2 389.3C1377.19 390.038 1386.13 390.757 1395.03 391.454C1403.88 392.146 1412.68 392.818 1421.44 393.464C1412.92 392.468 1404.33 391.486 1395.67 390.516C1386.96 389.539 1378.18 388.574 1369.33 387.617C1360.43 386.653 1351.45 385.697 1342.42 384.746C1333.32 383.788 1324.16 382.834 1314.94 381.881C1305.65 380.925 1296.3 379.972 1286.88 379.021C1277.4 378.063 1267.85 377.108 1258.23 376.155C1248.55 375.195 1238.8 374.237 1228.98 373.281C1219.1 372.319 1209.14 371.358 1199.11 370.398C1198.98 370.386 1198.85 370.374 1198.72 370.361C1198.59 370.348 1198.46 370.336 1198.33 370.323C1198.2 370.311 1198.07 370.299 1197.94 370.286C1197.81 370.274 1197.68 370.261 1197.55 370.249C1187.57 369.294 1177.53 368.342 1167.41 367.392C1157.23 366.435 1146.97 365.48 1136.64 364.527C1126.24 363.568 1115.77 362.611 1105.21 361.656C1094.59 360.694 1083.89 359.736 1073.12 358.78C1062.12 357.808 1051.04 356.836 1039.89 355.87C1028.65 354.898 1017.33 353.93 1005.92 352.971C994.431 352.006 982.854 351.051 971.185 350.109C959.434 349.162 947.59 348.228 935.651 347.313C947.401 348.648 959.075 349.949 970.672 351.218C982.184 352.479 993.622 353.709 1004.99 354.915C1016.27 356.112 1027.48 357.284 1038.61 358.436C1049.66 359.58 1060.65 360.704 1071.56 361.813C1082.25 362.897 1092.87 363.963 1103.43 365.014C1113.92 366.058 1124.33 367.085 1134.69 368.098C1144.97 369.103 1155.19 370.093 1165.34 371.068C1175.43 372.037 1185.45 372.991 1195.41 373.931" fill="#CDB9DA"/>
<path d="M1206.05 351.937C1206.34 351.967 1206.64 351.997 1206.93 352.028C1207.23 352.058 1207.53 352.088 1207.82 352.118C1208.12 352.149 1208.42 352.179 1208.71 352.209C1209.01 352.239 1209.3 352.27 1209.6 352.299C1232.28 354.614 1254.64 356.881 1276.66 359.103C1298.37 361.292 1319.76 363.437 1340.84 365.538C1361.63 367.609 1382.12 369.638 1402.33 371.626C1422.25 373.586 1441.9 375.507 1461.29 377.388C1470.89 378.317 1480.42 379.237 1489.88 380.147C1499.29 381.051 1508.63 381.945 1517.91 382.83C1527.13 383.708 1536.28 384.578 1545.38 385.436C1554.42 386.289 1563.4 387.133 1572.33 387.965C1576.77 388.379 1581.2 388.791 1585.61 389.2C1590.01 389.608 1594.4 390.014 1598.77 390.417C1603.13 390.819 1607.47 391.218 1611.8 391.614C1616.12 392.009 1620.42 392.401 1624.71 392.79L1650.19 395.084C1652.29 395.268 1654.39 395.453 1656.49 395.638C1658.58 395.823 1660.67 396.008 1662.76 396.192C1664.84 396.376 1666.92 396.559 1669 396.74C1671.07 396.922 1673.14 397.101 1675.22 397.278C1673.2 397.034 1671.18 396.791 1669.15 396.55C1667.13 396.308 1665.09 396.067 1663.06 395.826C1661.01 395.585 1658.97 395.344 1656.92 395.103C1654.87 394.861 1652.82 394.618 1650.76 394.374L1625.77 391.467C1621.55 390.979 1617.32 390.492 1613.08 390.005C1608.81 389.515 1604.54 389.026 1600.25 388.537C1595.94 388.046 1591.61 387.554 1587.28 387.062C1582.92 386.567 1578.56 386.073 1574.17 385.576C1565.36 384.582 1556.48 383.585 1547.54 382.586C1538.54 381.579 1529.47 380.571 1520.34 379.559C1511.14 378.539 1501.87 377.517 1492.54 376.49C1483.15 375.457 1473.68 374.419 1464.14 373.377C1444.87 371.274 1425.31 369.154 1405.46 367.016C1385.33 364.847 1364.89 362.659 1344.14 360.451C1323.09 358.21 1301.71 355.948 1280.01 353.665C1257.97 351.346 1235.6 349.006 1212.88 346.641C1212.68 346.62 1212.48 346.599 1212.27 346.578C1212.07 346.557 1211.87 346.536 1211.67 346.515C1211.47 346.494 1211.27 346.474 1211.07 346.453C1210.87 346.432 1210.67 346.411 1210.47 346.39C1187.56 344.007 1164.29 341.599 1140.65 339.167C1116.64 336.696 1092.25 334.2 1067.47 331.678C1042.28 329.115 1016.69 326.526 990.674 323.908C964.232 321.248 937.348 318.558 910.013 315.84C896.048 314.453 881.965 313.058 867.761 311.656C853.436 310.242 838.988 308.82 824.414 307.391C809.715 305.95 794.886 304.501 779.928 303.046C764.839 301.578 749.617 300.103 734.258 298.621C726.528 297.877 718.763 297.13 710.964 296.381C703.13 295.629 695.26 294.875 687.356 294.119C679.416 293.36 671.439 292.6 663.427 291.838C655.378 291.072 647.293 290.306 639.17 289.538L589.662 284.885L564.386 282.545L551.614 281.363L538.758 280.19L551.541 281.658L564.245 283.101L589.377 285.952L638.606 291.473C646.682 292.375 654.721 293.269 662.724 294.157C670.69 295.041 678.62 295.919 686.515 296.791C694.373 297.659 702.197 298.521 709.986 299.378C717.739 300.232 725.458 301.08 733.143 301.924C748.41 303.598 763.544 305.25 778.546 306.882C793.416 308.5 808.159 310.097 822.776 311.676C837.265 313.241 851.633 314.788 865.879 316.317C880.003 317.833 894.009 319.332 907.898 320.815C934.975 323.702 961.614 326.526 987.824 329.29C1013.61 332.009 1039 334.671 1063.98 337.277C1088.57 339.842 1112.79 342.354 1136.64 344.815C1160.12 347.237 1183.26 349.611 1206.05 351.936" fill="#CDB9DA"/>
<path d="M1220.97 328.605C1221.15 328.625 1221.33 328.645 1221.52 328.666C1221.7 328.686 1221.88 328.706 1222.07 328.727C1222.25 328.747 1222.44 328.767 1222.62 328.788C1222.8 328.808 1222.99 328.828 1223.17 328.848C1242.53 330.984 1261.64 333.08 1280.51 335.139C1299.15 337.171 1317.55 339.166 1335.74 341.125C1353.69 343.059 1371.43 344.958 1388.96 346.822C1406.28 348.663 1423.39 350.471 1440.31 352.245C1448.69 353.121 1457.03 353.991 1465.32 354.852C1473.56 355.707 1481.75 356.555 1489.89 357.394C1497.99 358.228 1506.05 359.053 1514.06 359.87C1522.02 360.682 1529.94 361.486 1537.82 362.28C1541.74 362.674 1545.65 363.067 1549.55 363.457C1553.44 363.847 1557.32 364.235 1561.19 364.62C1565.05 365.005 1568.89 365.386 1572.73 365.766C1576.56 366.144 1580.37 366.519 1584.18 366.892C1587.98 367.266 1591.77 367.636 1595.54 368.002C1599.31 368.368 1603.07 368.731 1606.82 369.091C1610.56 369.449 1614.29 369.805 1618.01 370.157C1621.72 370.509 1625.42 370.857 1629.12 371.203C1625.52 370.736 1621.91 370.27 1618.29 369.806C1614.65 369.339 1611.01 368.874 1607.35 368.409C1603.68 367.943 1600 367.478 1596.31 367.013C1592.61 366.547 1588.89 366.082 1585.16 365.618C1581.42 365.151 1577.67 364.684 1573.91 364.217C1570.14 363.749 1566.35 363.282 1562.55 362.814C1558.75 362.345 1554.92 361.875 1551.09 361.405C1547.25 360.934 1543.39 360.461 1539.52 359.989C1531.75 359.04 1523.93 358.091 1516.05 357.141C1508.13 356.184 1500.16 355.226 1492.14 354.266C1484.07 353.299 1475.95 352.331 1467.78 351.36C1459.56 350.383 1451.29 349.403 1442.96 348.42C1426.15 346.439 1409.13 344.446 1391.88 342.44C1374.42 340.409 1356.73 338.364 1338.81 336.305C1320.66 334.22 1302.28 332.119 1283.64 330.003C1264.77 327.859 1245.64 325.699 1226.26 323.523C1226.07 323.502 1225.89 323.481 1225.71 323.461C1225.52 323.44 1225.34 323.419 1225.15 323.399C1224.97 323.378 1224.79 323.357 1224.6 323.337C1224.42 323.316 1224.23 323.295 1224.05 323.275C1204.57 321.088 1184.82 318.883 1164.81 316.662C1144.53 314.411 1123.97 312.142 1103.13 309.855C1082 307.537 1060.58 305.2 1038.86 302.845C1016.84 300.457 994.511 298.05 971.859 295.622C960.306 294.386 948.668 293.144 936.945 291.898C925.139 290.643 913.246 289.383 901.265 288.118C889.198 286.844 877.041 285.565 864.794 284.283C852.458 282.991 840.029 281.695 827.507 280.395C821.21 279.743 814.89 279.089 808.546 278.434C802.179 277.777 795.789 277.118 789.374 276.459C782.935 275.797 776.472 275.134 769.984 274.471C763.472 273.805 756.934 273.139 750.371 272.473L710.47 268.447C707.102 268.114 703.728 267.778 700.348 267.442C696.962 267.104 693.57 266.766 690.171 266.428C686.766 266.089 683.354 265.75 679.934 265.412C676.508 265.074 673.075 264.737 669.634 264.403C673.047 264.832 676.453 265.256 679.853 265.678C683.246 266.099 686.633 266.517 690.013 266.934C693.387 267.349 696.755 267.764 700.116 268.177C703.47 268.59 706.818 269.002 710.16 269.416L749.769 274.239C756.284 275.029 762.775 275.812 769.241 276.591C775.682 277.367 782.1 278.138 788.494 278.904C794.863 279.668 801.209 280.426 807.532 281.181C813.83 281.933 820.106 282.682 826.359 283.426C838.794 284.904 851.138 286.366 863.393 287.81C875.558 289.245 887.635 290.663 899.625 292.067C911.529 293.461 923.347 294.839 935.081 296.204C946.73 297.559 958.298 298.9 969.784 300.228C992.305 302.829 1014.52 305.379 1036.43 307.88C1058.04 310.348 1079.36 312.768 1100.4 315.143C1121.15 317.487 1141.64 319.786 1161.86 322.043C1181.81 324.271 1201.52 326.457 1220.97 328.604" fill="#CDB9DA"/>
<path d="M1231.33 305.764C1231.74 305.812 1232.14 305.86 1232.55 305.908C1232.95 305.956 1233.36 306.004 1233.77 306.052C1234.17 306.1 1234.58 306.148 1234.98 306.196C1235.39 306.244 1235.79 306.292 1236.19 306.339C1277.43 311.223 1317.55 315.955 1356.6 320.544C1394.61 325.01 1431.62 329.342 1467.69 333.545C1502.84 337.641 1537.11 341.617 1570.53 345.478C1603.14 349.245 1634.96 352.903 1666.03 356.459C1681.29 358.202 1696.38 359.921 1711.28 361.615C1726.02 363.29 1740.58 364.941 1754.99 366.569C1769.22 368.177 1783.3 369.763 1797.22 371.325C1810.99 372.869 1824.6 374.391 1838.07 375.89C1844.75 376.631 1851.39 377.369 1858 378.1C1864.57 378.828 1871.1 379.551 1877.61 380.268C1884.07 380.981 1890.5 381.689 1896.9 382.391C1903.27 383.089 1909.6 383.782 1915.9 384.468C1922.16 385.151 1928.39 385.83 1934.59 386.503C1940.76 387.173 1946.9 387.836 1953.01 388.493C1959.09 389.147 1965.13 389.794 1971.15 390.435C1977.14 391.072 1983.1 391.702 1989.03 392.324C1983.25 391.543 1977.44 390.762 1971.59 389.981C1965.71 389.195 1959.8 388.409 1953.85 387.622C1947.87 386.829 1941.85 386.036 1935.8 385.24C1929.71 384.44 1923.59 383.638 1917.43 382.833C1911.25 382.022 1905.02 381.21 1898.76 380.395C1892.46 379.575 1886.13 378.753 1879.76 377.927C1873.35 377.097 1866.91 376.264 1860.43 375.428C1853.91 374.587 1847.35 373.742 1840.76 372.893C1827.46 371.183 1814 369.459 1800.38 367.72C1786.6 365.962 1772.65 364.188 1758.54 362.398C1744.26 360.588 1729.81 358.76 1715.18 356.915C1700.38 355.048 1685.39 353.162 1670.22 351.258C1639.31 347.383 1607.62 343.429 1575.12 339.391C1541.79 335.25 1507.59 331.019 1472.49 326.694C1436.45 322.254 1399.43 317.712 1361.4 313.064C1322.32 308.287 1282.14 303.395 1240.81 298.381C1240.27 298.316 1239.74 298.252 1239.21 298.187C1238.67 298.122 1238.14 298.057 1237.6 297.992C1237.07 297.927 1236.53 297.863 1236 297.798C1235.46 297.733 1234.93 297.668 1234.39 297.603C1192.24 292.49 1148.87 287.248 1104.22 281.872C1058.25 276.337 1010.89 270.654 962.073 264.818C911.748 258.801 859.833 252.616 806.254 246.255C750.938 239.689 693.794 232.928 634.732 225.965C604.057 222.352 572.852 218.682 541.104 214.956C508.799 211.164 475.922 207.313 442.457 203.4C408.391 199.418 373.706 195.371 338.383 191.26C302.409 187.073 265.763 182.818 228.427 178.494C209.494 176.304 190.383 174.094 171.089 171.866C151.611 169.616 131.945 167.346 112.089 165.058C92.0413 162.747 71.7977 160.417 51.3551 158.068C30.7115 155.696 9.86402 153.306 -11.1918 150.896C-32.4576 148.459 -53.9358 146.002 -75.6305 143.524C-97.5446 141.021 -119.681 138.497 -142.044 135.954C-164.636 133.385 -187.46 130.796 -210.521 128.188C-233.823 125.552 -257.367 122.898 -281.159 120.224C-257.322 123.261 -233.742 126.254 -210.415 129.208C-187.335 132.13 -164.499 135.013 -141.902 137.86C-119.541 140.677 -97.4111 143.458 -75.5101 146.207C-53.8328 148.928 -32.3768 151.616 -11.1371 154.275C9.8885 156.908 30.702 159.509 51.3082 162.081C71.7096 164.627 91.9091 167.144 111.911 169.634C131.718 172.099 151.331 174.537 170.755 176.949C189.993 179.338 209.046 181.702 227.918 184.043C265.129 188.653 301.644 193.166 337.485 197.586C372.667 201.924 407.212 206.175 441.137 210.341C474.455 214.433 507.188 218.444 539.348 222.379C570.95 226.245 602.01 230.038 632.543 233.761C691.506 240.944 748.55 247.869 803.769 254.551C857.244 261.021 909.064 267.269 959.307 273.306C1008.04 279.161 1055.33 284.823 1101.25 290.302C1145.85 295.622 1189.19 300.774 1231.33 305.765" fill="#CDB9DA"/>
<path d="M1250.43 280.096C1250.5 280.105 1250.58 280.115 1250.65 280.125C1250.73 280.134 1250.81 280.144 1250.88 280.154C1250.96 280.163 1251.03 280.173 1251.11 280.183C1251.18 280.193 1251.26 280.202 1251.33 280.212C1263.81 281.807 1276.19 283.379 1288.48 284.929C1300.66 286.466 1312.74 287.981 1324.74 289.474C1336.63 290.954 1348.43 292.413 1360.14 293.849C1371.76 295.274 1383.29 296.678 1394.74 298.06C1406.1 299.427 1417.37 300.776 1428.56 302.101C1439.66 303.417 1450.69 304.709 1461.64 305.975C1472.5 307.231 1483.3 308.461 1494.02 309.662C1504.66 310.852 1515.24 312.014 1525.76 313.142C1515.54 311.601 1505.22 310.074 1494.8 308.554C1484.3 307.023 1473.7 305.5 1463.01 303.982C1452.23 302.451 1441.35 300.924 1430.37 299.398C1419.31 297.859 1408.14 296.32 1396.88 294.776C1385.53 293.224 1374.07 291.669 1362.52 290.112C1350.87 288.542 1339.11 286.969 1327.25 285.392C1315.3 283.803 1303.23 282.21 1291.06 280.613C1278.79 279.002 1266.4 277.388 1253.91 275.769C1253.76 275.75 1253.61 275.731 1253.47 275.712C1253.32 275.692 1253.17 275.673 1253.02 275.654C1252.88 275.635 1252.73 275.616 1252.58 275.597C1252.43 275.578 1252.29 275.558 1252.14 275.539C1239.67 273.925 1227.09 272.306 1214.4 270.683C1201.59 269.047 1188.68 267.407 1175.64 265.762C1162.5 264.104 1149.23 262.442 1135.85 260.776C1122.35 259.096 1108.72 257.412 1094.97 255.724C1080.93 254.006 1066.76 252.281 1052.45 250.556C1038.02 248.815 1023.44 247.073 1008.73 245.335C993.884 243.581 978.891 241.831 963.751 240.092C948.471 238.336 933.039 236.59 917.451 234.859C932.819 237.112 948.052 239.313 963.152 241.467C978.108 243.6 992.935 245.688 1007.63 247.736C1022.19 249.765 1036.63 251.755 1050.94 253.713C1065.12 255.652 1079.18 257.56 1093.11 259.442C1106.84 261.291 1120.45 263.112 1133.95 264.906C1147.33 266.684 1160.6 268.437 1173.75 270.163C1186.8 271.874 1199.73 273.561 1212.57 275.223C1225.29 276.871 1237.91 278.494 1250.43 280.095" fill="#CDB9DA"/>
<path d="M1263.44 255.405C1263.61 255.428 1263.79 255.452 1263.96 255.476C1264.13 255.5 1264.31 255.523 1264.48 255.547C1264.65 255.571 1264.83 255.594 1265 255.618C1265.18 255.642 1265.35 255.666 1265.52 255.689C1282.59 258.023 1299.46 260.32 1316.15 262.579C1332.65 264.812 1348.97 267.009 1365.11 269.169C1381.07 271.305 1396.86 273.406 1412.48 275.472C1427.93 277.516 1443.23 279.525 1458.36 281.501C1465.87 282.478 1473.34 283.448 1480.77 284.41C1488.16 285.367 1495.51 286.315 1502.83 287.255C1510.11 288.19 1517.35 289.116 1524.55 290.033C1531.72 290.946 1538.86 291.85 1545.96 292.744C1549.49 293.189 1553.02 293.632 1556.54 294.072C1560.05 294.512 1563.55 294.95 1567.05 295.385C1570.53 295.819 1574.01 296.251 1577.48 296.68C1580.94 297.108 1584.39 297.533 1587.84 297.956C1591.27 298.379 1594.7 298.799 1598.12 299.216C1601.53 299.631 1604.93 300.044 1608.33 300.453C1611.72 300.862 1615.1 301.267 1618.48 301.669C1621.84 302.07 1625.2 302.468 1628.56 302.862C1625.3 302.345 1622.03 301.829 1618.75 301.314C1615.46 300.797 1612.16 300.281 1608.85 299.767C1605.53 299.25 1602.21 298.735 1598.87 298.22C1595.52 297.704 1592.16 297.189 1588.79 296.674C1585.42 296.156 1582.03 295.639 1578.63 295.122C1575.23 294.603 1571.81 294.085 1568.38 293.567C1564.95 293.047 1561.5 292.527 1558.05 292.006C1554.58 291.485 1551.11 290.962 1547.62 290.439C1540.63 289.39 1533.59 288.341 1526.51 287.289C1519.39 286.232 1512.23 285.174 1505.03 284.113C1497.79 283.046 1490.51 281.977 1483.18 280.906C1475.82 279.828 1468.41 278.748 1460.96 277.664C1445.93 275.483 1430.73 273.29 1415.35 271.083C1399.8 268.852 1384.06 266.608 1368.14 264.35C1352.04 262.066 1335.74 259.768 1319.25 257.454C1302.57 255.114 1285.69 252.758 1268.6 250.385C1268.42 250.361 1268.25 250.337 1268.08 250.312C1267.9 250.288 1267.73 250.264 1267.56 250.24C1267.38 250.216 1267.21 250.192 1267.04 250.168C1266.86 250.144 1266.69 250.12 1266.51 250.095C1249.38 247.717 1232.03 245.321 1214.47 242.91C1196.7 240.47 1178.72 238.013 1160.51 235.54C1142.09 233.036 1123.43 230.515 1104.54 227.976C1085.42 225.406 1066.06 222.818 1046.45 220.212C1036.45 218.885 1026.39 217.553 1016.26 216.217C1006.07 214.872 995.814 213.522 985.489 212.169C975.098 210.807 964.639 209.441 954.111 208.071C943.516 206.693 932.849 205.312 922.112 203.927C916.717 203.232 911.305 202.536 905.875 201.838C900.427 201.139 894.96 200.438 889.474 199.737C883.972 199.033 878.45 198.329 872.909 197.624C867.351 196.918 861.774 196.211 856.178 195.504C850.562 194.792 844.929 194.08 839.275 193.37C833.603 192.657 827.911 191.945 822.199 191.233C816.469 190.519 810.718 189.806 804.947 189.094C799.157 188.379 793.346 187.665 787.514 186.951C793.286 187.837 799.038 188.716 804.772 189.589C810.486 190.459 816.181 191.323 821.857 192.181C827.514 193.036 833.152 193.886 838.773 194.729C844.374 195.57 849.958 196.405 855.525 197.234C861.07 198.062 866.598 198.885 872.108 199.704C877.599 200.519 883.073 201.33 888.53 202.137C893.969 202.94 899.389 203.74 904.792 204.536C910.177 205.329 915.544 206.118 920.894 206.904C931.542 208.466 942.123 210.013 952.638 211.544C963.083 213.064 973.463 214.57 983.778 216.061C994.026 217.543 1004.21 219.011 1014.33 220.465C1024.39 221.911 1034.38 223.343 1044.32 224.763C1063.8 227.543 1083.05 230.276 1102.06 232.961C1120.85 235.614 1139.41 238.223 1157.76 240.787C1175.88 243.32 1193.8 245.811 1211.51 248.261C1229.02 250.681 1246.33 253.062 1263.44 255.404" fill="#CDB9DA"/>
<path d="M1275 230.769C1275.38 230.825 1275.76 230.88 1276.14 230.936C1276.52 230.991 1276.9 231.047 1277.28 231.103C1277.67 231.158 1278.05 231.214 1278.43 231.269C1278.81 231.325 1279.19 231.38 1279.57 231.435C1315.63 236.692 1350.83 241.805 1385.2 246.779C1418.74 251.634 1451.51 256.359 1483.53 260.959C1514.82 265.453 1545.41 269.829 1575.33 274.091C1604.58 278.259 1633.21 282.32 1661.23 286.277C1675.02 288.22 1688.66 290.14 1702.16 292.034C1715.52 293.909 1728.74 295.76 1741.83 297.587C1754.78 299.394 1767.6 301.179 1780.29 302.939C1792.86 304.682 1805.3 306.401 1817.62 308.098C1823.73 308.938 1829.82 309.773 1835.87 310.604C1841.89 311.43 1847.89 312.25 1853.86 313.065C1859.79 313.876 1865.7 314.682 1871.59 315.482C1877.44 316.277 1883.26 317.067 1889.06 317.85C1894.84 318.63 1900.58 319.405 1906.3 320.174C1911.99 320.94 1917.65 321.699 1923.29 322.452C1928.91 323.202 1934.49 323.945 1940.06 324.681C1945.6 325.413 1951.11 326.138 1956.61 326.856C1951.26 325.977 1945.89 325.098 1940.49 324.219C1935.06 323.336 1929.59 322.451 1924.1 321.565C1918.59 320.675 1913.04 319.784 1907.46 318.89C1901.86 317.992 1896.22 317.091 1890.56 316.188C1884.86 315.279 1879.14 314.368 1873.39 313.454C1867.6 312.535 1861.79 311.614 1855.94 310.69C1850.07 309.761 1844.16 308.829 1838.22 307.894C1832.26 306.953 1826.26 306.009 1820.22 305.061C1808.07 303.151 1795.77 301.229 1783.35 299.291C1770.8 297.333 1758.11 295.36 1745.28 293.371C1732.31 291.361 1719.2 289.334 1705.94 287.29C1692.55 285.223 1679 283.139 1665.3 281.035C1637.44 276.762 1608.95 272.41 1579.79 267.976C1549.98 263.441 1519.46 258.818 1488.21 254.103C1456.23 249.277 1423.47 244.353 1389.91 239.326C1355.53 234.175 1320.28 228.915 1284.14 223.539C1283.76 223.482 1283.37 223.425 1282.99 223.368C1282.61 223.311 1282.22 223.253 1281.84 223.197C1281.45 223.139 1281.07 223.082 1280.69 223.025C1280.3 222.968 1279.92 222.911 1279.53 222.853C1242.75 217.383 1205.02 211.791 1166.32 206.073C1126.6 200.206 1085.82 194.202 1043.94 188.058C1000.92 181.747 956.711 175.282 911.263 168.659C864.532 161.849 816.455 154.866 766.974 147.703C741.42 144.007 715.483 140.262 689.156 136.467C662.432 132.615 635.299 128.712 607.749 124.755C579.774 120.739 551.362 116.667 522.503 112.541C493.188 108.35 463.405 104.102 433.144 99.7964C417.83 97.6192 402.393 95.4259 386.83 93.217C371.141 90.9899 355.323 88.7469 339.375 86.4886C323.295 84.2116 307.083 81.9183 290.736 79.61C274.253 77.2825 257.631 74.9389 240.87 72.5805C223.968 70.2015 206.922 67.8051 189.732 65.3927C172.395 62.9596 154.908 60.5101 137.271 58.0451C119.483 55.559 101.54 53.0574 83.4401 50.5413C65.1826 48.0032 46.7652 45.4507 28.1859 42.8854C46.7622 45.7912 65.1719 48.6616 83.4163 51.4986C101.498 54.3103 119.421 57.0898 137.186 59.8388C154.794 62.5637 172.249 65.2587 189.553 67.926C206.706 70.5702 223.713 73.1872 240.574 75.7791C257.291 78.3508 273.865 80.896 290.3 83.4156C306.597 85.914 322.757 88.3877 338.783 90.8378C354.676 93.2675 370.438 95.6746 386.07 98.0596C401.573 100.425 416.951 102.77 432.203 105.094C462.339 109.681 491.995 114.184 521.181 118.607C549.908 122.96 578.19 127.236 606.035 131.438C633.452 135.576 660.453 139.642 687.047 143.642C713.243 147.58 739.05 151.455 764.478 155.266C813.715 162.639 861.562 169.781 908.076 176.701C953.308 183.431 997.318 189.957 1040.16 196.289C1081.86 202.453 1122.49 208.437 1162.08 214.249C1200.66 219.913 1238.29 225.418 1275 230.769" fill="#CDB9DA"/>
<path d="M1292.37 204.347C1292.59 204.381 1292.81 204.415 1293.03 204.449C1293.25 204.483 1293.47 204.517 1293.69 204.551C1293.91 204.586 1294.13 204.62 1294.35 204.654C1294.57 204.688 1294.78 204.722 1295 204.756C1321.25 208.843 1347.04 212.842 1372.37 216.756C1397.27 220.602 1421.74 224.366 1445.8 228.051C1469.44 231.673 1492.7 235.219 1515.58 238.691C1538.08 242.106 1560.21 245.45 1582 248.724C1592.76 250.339 1603.44 251.938 1614.03 253.52C1624.54 255.089 1634.97 256.642 1645.32 258.178C1655.58 259.701 1665.77 261.209 1675.89 262.7C1685.92 264.179 1695.88 265.642 1705.77 267.087C1710.68 267.805 1715.58 268.519 1720.46 269.23C1725.32 269.937 1730.16 270.641 1734.99 271.341C1739.79 272.038 1744.58 272.731 1749.36 273.419C1754.11 274.105 1758.85 274.787 1763.57 275.463L1791.55 279.452L1805.33 281.389L1812.16 282.348L1818.97 283.291L1812.35 282.126L1805.69 280.966L1792.24 278.626L1764.84 273.92C1760.21 273.127 1755.55 272.334 1750.88 271.54C1746.19 270.742 1741.48 269.944 1736.76 269.144C1732.01 268.34 1727.24 267.535 1722.45 266.728C1717.65 265.918 1712.82 265.105 1707.98 264.29C1698.23 262.651 1688.39 261.006 1678.48 259.352C1668.48 257.685 1658.4 256.009 1648.24 254.325C1637.99 252.626 1627.66 250.919 1617.23 249.201C1606.73 247.469 1596.13 245.727 1585.44 243.974C1563.8 240.428 1541.78 236.838 1519.37 233.201C1496.58 229.502 1473.39 225.755 1449.79 221.957C1425.77 218.093 1401.32 214.175 1376.43 210.202C1351.08 206.157 1325.27 202.054 1298.98 197.891C1298.66 197.84 1298.33 197.788 1298.01 197.737C1297.69 197.686 1297.36 197.635 1297.04 197.584C1296.72 197.532 1296.39 197.481 1296.07 197.43C1295.74 197.379 1295.42 197.327 1295.1 197.276C1268.58 193.078 1241.56 188.818 1214.04 184.494C1186 180.09 1157.43 175.619 1128.3 171.079C1098.61 166.451 1068.33 161.751 1037.46 156.977C1005.97 152.108 973.851 147.159 941.076 142.13C924.233 139.55 907.215 136.947 890.018 134.322C872.643 131.67 855.084 128.995 837.338 126.299C819.405 123.574 801.281 120.827 782.96 118.057C764.444 115.258 745.725 112.437 726.802 109.593C717.263 108.161 707.672 106.722 698.028 105.278C688.332 103.825 678.583 102.366 668.779 100.902C658.922 99.4289 649.01 97.9503 639.043 96.4668C629.02 94.9751 618.942 93.4783 608.807 91.9768L546.774 82.8159L514.953 78.1602L498.834 75.8032L482.579 73.4484L498.755 76.1862L514.801 78.8797L546.464 84.1918L608.178 94.461C618.258 96.1329 628.281 97.7921 638.25 99.4389C648.162 101.077 658.019 102.702 667.822 104.316C677.571 105.922 687.265 107.516 696.907 109.1C706.495 110.675 716.03 112.24 725.513 113.795C744.325 116.876 762.934 119.914 781.345 122.913C799.557 125.88 817.577 128.807 835.407 131.698C853.048 134.557 870.505 137.38 887.782 140.169C904.879 142.928 921.801 145.654 938.55 148.347C971.272 153.602 1003.35 158.735 1034.79 163.747C1065.63 168.662 1095.87 173.464 1125.54 178.157C1154.65 182.761 1183.21 187.262 1211.26 191.664C1238.79 195.985 1265.82 200.211 1292.38 204.347" fill="#CDB9DA"/>
<path d="M1305.5 177.869C1305.88 177.932 1306.27 177.996 1306.66 178.06C1307.04 178.124 1307.43 178.188 1307.82 178.252C1308.2 178.316 1308.59 178.38 1308.98 178.444C1309.36 178.508 1309.75 178.572 1310.13 178.635C1346.2 184.607 1381.4 190.414 1415.74 196.063C1449.27 201.577 1482.01 206.943 1513.99 212.167C1545.24 217.27 1575.78 222.239 1605.65 227.079C1634.85 231.811 1663.41 236.422 1691.37 240.915C1705.12 243.123 1718.73 245.302 1732.19 247.455C1745.51 249.584 1758.7 251.686 1771.74 253.761C1784.66 255.815 1797.44 257.842 1810.09 259.842C1822.61 261.822 1835.01 263.775 1847.29 265.703C1853.38 266.658 1859.45 267.608 1865.48 268.552C1871.48 269.491 1877.46 270.424 1883.4 271.35C1889.32 272.273 1895.2 273.188 1901.06 274.098C1906.89 275.002 1912.7 275.9 1918.47 276.791C1924.22 277.679 1929.94 278.561 1935.64 279.437C1941.3 280.308 1946.95 281.172 1952.56 282.03C1958.15 282.883 1963.72 283.729 1969.26 284.567C1974.78 285.401 1980.27 286.228 1985.74 287.046C1980.42 286.061 1975.08 285.075 1969.7 284.089C1964.3 283.098 1958.86 282.106 1953.4 281.111C1947.91 280.112 1942.39 279.111 1936.84 278.107C1931.26 277.098 1925.65 276.086 1920.01 275.071C1914.34 274.049 1908.65 273.025 1902.92 271.998C1897.16 270.965 1891.37 269.93 1885.55 268.89C1879.7 267.845 1873.82 266.797 1867.91 265.744C1861.96 264.686 1855.99 263.623 1849.98 262.556C1837.87 260.407 1825.63 258.242 1813.25 256.06C1800.74 253.855 1788.1 251.631 1775.31 249.389C1762.39 247.123 1749.32 244.837 1736.1 242.531C1722.75 240.2 1709.24 237.848 1695.58 235.474C1667.79 230.65 1639.37 225.735 1610.28 220.724C1580.52 215.598 1550.06 210.37 1518.86 205.036C1486.92 199.574 1454.19 193.998 1420.65 188.302C1386.28 182.466 1351.05 176.502 1314.9 170.404C1314.52 170.339 1314.13 170.274 1313.75 170.209C1313.36 170.143 1312.97 170.078 1312.58 170.013C1312.2 169.948 1311.81 169.882 1311.42 169.817C1311.04 169.752 1310.65 169.686 1310.26 169.621C1273.47 163.414 1235.72 157.065 1196.97 150.57C1157.2 143.904 1116.36 137.079 1074.41 130.09C1031.3 122.908 986.981 115.549 941.405 108.004C894.526 100.243 846.279 92.2808 796.607 84.1083C770.944 79.8902 744.892 75.6139 718.443 71.2798C691.59 66.8794 664.321 62.4184 636.626 57.8959C608.499 53.3031 579.926 48.6458 550.897 43.9248C521.404 39.1281 491.433 34.2637 460.974 29.3314C445.559 26.8377 430.017 24.3247 414.346 21.793C398.546 19.2404 382.615 16.6686 366.551 14.0788C350.353 11.4672 334.018 8.83675 317.546 6.18838C300.935 3.51767 284.183 0.828395 267.288 -1.87861C250.249 -4.61098 233.062 -7.36343 215.728 -10.1354C198.243 -12.9314 180.605 -15.7469 162.813 -18.5809C144.865 -21.4396 126.76 -24.3174 108.494 -27.2122C90.0667 -30.133 71.4756 -33.0713 52.7184 -36.0266C71.4685 -32.7121 90.0484 -29.4378 108.459 -26.2012C126.704 -22.9938 144.786 -19.8233 162.705 -16.6877C180.466 -13.5798 198.069 -10.5059 215.516 -7.46363C232.81 -4.44808 249.953 -1.46371 266.947 1.49195C283.794 4.42323 300.496 7.32466 317.055 10.1976C333.474 13.0457 349.752 15.8657 365.894 18.659C381.9 21.4286 397.771 24.172 413.51 26.8906C429.118 29.5865 444.596 32.2578 459.946 34.9057C490.274 40.1315 520.112 45.2621 549.471 50.3003C578.362 55.2583 606.797 60.1281 634.79 64.9138C662.345 69.625 689.478 74.2552 716.197 78.808C742.509 83.2916 768.427 87.7005 793.959 92.0384C843.377 100.427 891.382 108.55 938.036 116.421C983.387 124.073 1027.5 131.492 1070.42 138.69C1112.2 145.695 1152.88 152.495 1192.52 159.1C1231.13 165.535 1268.78 171.788 1305.5 177.868" fill="#CDB9DA"/>
<path d="M1321.89 150.18C1322.24 150.243 1322.6 150.305 1322.96 150.368C1323.31 150.431 1323.67 150.494 1324.03 150.557C1324.39 150.62 1324.74 150.683 1325.1 150.745C1325.46 150.808 1325.81 150.87 1326.17 150.933C1356.95 156.353 1387.09 161.643 1416.61 166.806C1445.52 171.863 1473.85 176.799 1501.62 181.62C1528.82 186.344 1555.5 190.958 1581.67 195.465C1607.33 199.885 1632.51 204.204 1657.21 208.424C1669.4 210.501 1681.46 212.556 1693.42 214.586C1705.27 216.598 1717.01 218.587 1728.65 220.553C1740.18 222.5 1751.61 224.425 1762.93 226.328C1774.16 228.212 1785.29 230.075 1796.32 231.915C1801.8 232.827 1807.25 233.735 1812.69 234.637C1818.1 235.536 1823.48 236.429 1828.85 237.317C1834.19 238.201 1839.51 239.079 1844.8 239.952C1850.08 240.82 1855.33 241.683 1860.56 242.54C1865.77 243.394 1870.95 244.243 1876.12 245.085C1881.26 245.925 1886.38 246.758 1891.49 247.585C1896.57 248.408 1901.63 249.225 1906.68 250.035C1911.7 250.841 1916.71 251.64 1921.69 252.431C1916.85 251.477 1911.98 250.522 1907.09 249.567C1902.17 248.608 1897.23 247.648 1892.27 246.687C1887.28 245.722 1882.27 244.756 1877.24 243.787C1872.18 242.814 1867.1 241.839 1861.99 240.861C1856.86 239.878 1851.71 238.893 1846.53 237.905C1841.33 236.913 1836.1 235.918 1830.85 234.921C1825.57 233.919 1820.27 232.914 1814.95 231.905C1809.6 230.892 1804.22 229.876 1798.82 228.856C1787.94 226.804 1776.96 224.739 1765.87 222.66C1754.68 220.562 1743.38 218.449 1731.96 216.322C1720.44 214.174 1708.81 212.012 1697.06 209.832C1685.2 207.632 1673.22 205.415 1661.13 203.181C1636.58 198.651 1611.53 194.049 1585.98 189.373C1559.92 184.602 1533.31 179.752 1506.15 174.819C1478.43 169.784 1450.12 164.661 1421.21 159.446C1391.68 154.121 1361.5 148.697 1330.66 143.172C1330.31 143.109 1329.95 143.045 1329.6 142.982C1329.25 142.918 1328.89 142.855 1328.54 142.791C1328.18 142.728 1327.83 142.665 1327.48 142.601C1327.12 142.537 1326.77 142.474 1326.41 142.41C1295.16 136.814 1263.22 131.112 1230.56 125.302C1197.17 119.361 1163.01 113.303 1128.05 107.127C1092.29 100.807 1055.69 94.3589 1018.2 87.7785C979.821 81.0404 940.501 74.1603 900.211 67.1335C879.453 63.5166 858.432 59.8595 837.144 56.1629C815.587 52.4191 793.751 48.634 771.633 44.8078C749.228 40.9321 726.53 37.0133 703.533 33.052C680.233 29.0387 656.622 24.9809 632.694 20.8789C620.61 18.8093 608.443 16.727 596.194 14.6329C583.862 12.5244 571.446 10.4036 558.945 8.27077C546.359 6.1236 533.686 3.96463 520.926 1.79409C508.078 -0.391344 495.141 -2.58819 482.113 -4.79591C468.996 -7.0203 455.786 -9.25771 442.483 -11.5066C429.087 -13.7715 415.595 -16.0479 402.007 -18.3352C388.322 -20.6387 374.54 -22.9528 360.659 -25.2765C346.678 -27.6168 332.597 -29.9665 318.414 -32.3249C332.557 -29.6514 346.597 -27.0065 360.535 -24.388C374.371 -21.789 388.108 -19.2156 401.745 -16.6669C415.284 -14.1365 428.727 -11.6296 442.073 -9.14515C455.324 -6.67853 468.481 -4.23311 481.544 -1.80796C494.515 0.602216 507.396 2.99113 520.187 5.35917C532.889 7.71091 545.504 10.0427 558.032 12.3557C570.473 14.6526 582.829 16.931 595.1 19.1922C607.287 21.4379 619.392 23.6664 631.414 25.8787C655.217 30.2535 678.704 34.5599 701.882 38.8004C724.754 42.9852 747.329 47.1064 769.613 51.1669C791.608 55.1748 813.324 59.1242 834.765 63.017C855.934 66.8605 876.839 70.6496 897.485 74.3864C937.555 81.6315 976.666 88.6805 1014.85 95.5411C1052.15 102.241 1088.58 108.764 1124.18 115.119C1158.98 121.33 1193.01 127.383 1226.29 133.284C1258.84 139.056 1290.7 144.685 1321.89 150.178" fill="#CDB9DA"/>
<path d="M1335.22 122.356C1335.79 122.461 1336.35 122.566 1336.91 122.671C1337.48 122.776 1338.04 122.881 1338.6 122.987C1339.17 123.092 1339.73 123.197 1340.29 123.302C1340.86 123.407 1341.42 123.512 1341.98 123.616C1385.43 131.725 1427.59 139.571 1468.52 147.167C1508.26 154.543 1546.88 161.689 1584.43 168.613C1620.93 175.346 1656.45 181.876 1691.03 188.211C1724.68 194.377 1757.46 200.363 1789.41 206.175C1805.08 209.022 1820.55 211.829 1835.83 214.595C1850.92 217.327 1865.82 220.019 1880.54 222.672C1895.08 225.293 1909.45 227.876 1923.64 230.421C1937.67 232.935 1951.52 235.413 1965.22 237.854C1972.01 239.063 1978.76 240.263 1985.47 241.455C1992.15 242.64 1998.78 243.817 2005.37 244.985C2011.93 246.146 2018.45 247.299 2024.94 248.442C2031.38 249.579 2037.8 250.707 2044.17 251.827C2050.51 252.94 2056.82 254.046 2063.09 255.143C2069.32 256.233 2075.53 257.315 2081.7 258.388C2087.83 259.454 2093.94 260.512 2100.01 261.559C2106.05 262.6 2112.06 263.632 2118.04 264.652C2112.24 263.452 2106.39 262.25 2100.51 261.044C2094.59 259.832 2088.64 258.617 2082.65 257.398C2076.62 256.171 2070.56 254.941 2064.46 253.706C2058.32 252.464 2052.14 251.217 2045.93 249.964C2039.68 248.704 2033.39 247.438 2027.06 246.167C2020.69 244.889 2014.28 243.605 2007.83 242.315C2001.35 241.017 1994.82 239.714 1988.25 238.403C1981.65 237.085 1975 235.76 1968.31 234.428C1954.8 231.741 1941.12 229.029 1927.27 226.289C1913.24 223.515 1899.03 220.712 1884.64 217.879C1870.06 215.01 1855.3 212.11 1840.33 209.178C1825.18 206.207 1809.82 203.203 1794.26 200.163C1762.51 193.97 1729.89 187.629 1696.37 181.133C1661.92 174.458 1626.49 167.616 1590.04 160.599C1552.55 153.38 1513.94 145.969 1474.17 138.359C1433.22 130.52 1390.99 122.463 1347.45 114.176C1346.89 114.069 1346.32 113.962 1345.76 113.854C1345.2 113.747 1344.63 113.64 1344.07 113.532C1343.51 113.425 1342.94 113.318 1342.38 113.21C1341.81 113.103 1341.25 112.995 1340.68 112.888C1296.14 104.411 1250.18 95.6886 1202.74 86.7082C1153.74 77.4351 1103.12 67.8776 1050.77 58.0225C996.639 47.8303 940.61 37.3082 882.589 26.44C822.477 15.1802 760.15 3.5353 695.489 -8.51582C661.811 -14.7878 627.483 -21.1734 592.484 -27.6749C556.8 -34.3041 520.406 -41.056 483.281 -47.9333C445.407 -54.9493 406.757 -62.0982 367.309 -69.3823C327.04 -76.8182 285.922 -84.398 243.93 -92.1249C222.595 -96.0473 201.032 -100.01 179.236 -104.013C157.204 -108.06 134.932 -112.148 112.415 -116.277C89.6505 -120.451 66.634 -124.668 43.3613 -128.926C19.8279 -133.232 -3.96936 -137.581 -28.0357 -141.972C-52.3786 -146.417 -76.9988 -150.909 -101.902 -155.446C-127.094 -160.036 -152.578 -164.674 -178.359 -169.357C-204.444 -174.095 -230.836 -178.882 -257.542 -183.715C-284.567 -188.605 -311.917 -193.544 -339.596 -198.53C-311.855 -193.07 -284.458 -187.691 -257.397 -182.387C-230.664 -177.149 -204.255 -171.983 -178.163 -166.889C-152.382 -161.854 -126.906 -156.888 -101.73 -151.985C-76.8475 -147.141 -52.2549 -142.357 -27.9448 -137.633C-3.91641 -132.961 19.8378 -128.349 43.3236 -123.794C66.5445 -119.29 89.5059 -114.842 112.212 -110.447C134.667 -106.101 156.874 -101.806 178.838 -97.5618C200.563 -93.3631 222.054 -89.2127 243.312 -85.1083C285.149 -77.0375 326.103 -69.1505 366.207 -61.4398C405.482 -53.8883 443.958 -46.5024 481.658 -39.2761C518.604 -32.1944 554.821 -25.2623 590.331 -18.4747C625.151 -11.8184 659.304 -5.29858 692.81 1.0909C757.139 13.3488 819.146 25.1358 878.96 36.4772C936.688 47.4233 992.446 57.9691 1046.34 68.1353C1098.44 77.9653 1148.86 87.452 1197.68 96.6128C1244.96 105.485 1290.78 114.061 1335.22 122.356" fill="#CDB9DA"/>
<path d="M1357.66 92.5346C1357.83 92.569 1358.01 92.6034 1358.18 92.6378C1358.35 92.6722 1358.53 92.7066 1358.7 92.741C1358.87 92.7754 1359.05 92.8098 1359.22 92.8442C1359.39 92.8786 1359.57 92.913 1359.74 92.9474C1375.75 96.1254 1391.59 99.2561 1407.26 102.339C1422.75 105.389 1438.08 108.393 1453.26 111.351C1468.27 114.277 1483.12 117.16 1497.83 119.998C1512.38 122.806 1526.78 125.572 1541.04 128.295C1555.15 130.985 1569.13 133.636 1582.97 136.245C1596.67 138.827 1610.24 141.367 1623.68 143.86C1636.99 146.328 1650.18 148.751 1663.26 151.123C1676.21 153.473 1689.06 155.773 1701.8 158.019C1689.44 155.253 1676.94 152.491 1664.28 149.726C1651.5 146.932 1638.56 144.136 1625.48 141.331C1612.25 138.497 1598.87 135.654 1585.35 132.797C1571.67 129.909 1557.84 127.007 1543.86 124.084C1529.72 121.135 1515.41 118.166 1500.95 115.179C1486.32 112.16 1471.53 109.12 1456.57 106.059C1441.44 102.965 1426.13 99.8485 1410.65 96.7099C1394.99 93.5361 1379.15 90.3393 1363.12 87.1179C1362.94 87.0833 1362.77 87.049 1362.6 87.0145C1362.43 86.9802 1362.26 86.9457 1362.09 86.9114C1361.92 86.8772 1361.74 86.8426 1361.57 86.8081C1361.4 86.7735 1361.23 86.7392 1361.06 86.7046C1344.99 83.4779 1328.74 80.2271 1312.29 76.9525C1295.66 73.6401 1278.82 70.3031 1261.79 66.9411C1244.55 63.5398 1227.1 60.1128 1209.45 56.6599C1191.58 53.1661 1173.49 49.6456 1155.19 46.0984C1136.45 42.4757 1117.49 38.8212 1098.28 35.1415C1078.83 31.4163 1059.14 27.6648 1039.18 23.894C1018.98 20.0758 998.507 16.2374 977.763 12.386C956.755 8.48544 935.464 4.57143 913.883 0.651042C935.188 5.2956 956.228 9.83521 977.006 14.2797C997.513 18.6665 1017.77 22.9618 1037.78 27.1744C1057.53 31.3338 1077.05 35.4135 1096.33 39.4227C1115.37 43.3818 1134.19 47.273 1152.78 51.1037C1170.95 54.8427 1188.91 58.5219 1206.67 62.1424C1224.21 65.7204 1241.56 69.2419 1258.71 72.7086C1275.66 76.1354 1292.43 79.5086 1309.01 82.8305C1325.4 86.1147 1341.62 89.349 1357.66 92.5346Z" fill="#CDB9DA"/>
<path d="M1374.86 62.9033C1375.03 62.9385 1375.2 62.9738 1375.37 63.0094C1375.53 63.0447 1375.7 63.0804 1375.87 63.116C1376.04 63.1517 1376.21 63.187 1376.38 63.2226C1376.55 63.2579 1376.71 63.2934 1376.88 63.3287C1392.13 66.5333 1407.21 69.6913 1422.15 72.8033C1436.92 75.8823 1451.55 78.9167 1466.03 81.9064C1480.36 84.8651 1494.56 87.7805 1508.61 90.653C1522.52 93.4962 1536.3 96.2978 1549.94 99.0577C1563.46 101.785 1576.84 104.475 1590.1 107.123C1603.24 109.744 1616.25 112.325 1629.15 114.859C1641.93 117.368 1654.59 119.833 1667.16 122.248C1679.6 124.64 1691.95 126.983 1704.21 129.273C1692.33 126.463 1680.32 123.656 1668.17 120.847C1655.9 118.011 1643.49 115.172 1630.93 112.326C1618.25 109.452 1605.43 106.569 1592.46 103.673C1579.37 100.747 1566.12 97.8077 1552.74 94.8474C1539.21 91.862 1525.54 88.8589 1511.71 85.8376C1497.74 82.7844 1483.61 79.7123 1469.32 76.6206C1454.89 73.496 1440.29 70.351 1425.53 67.1848C1410.6 63.9844 1395.51 60.7623 1380.25 57.517C1380 57.4643 1379.76 57.4117 1379.51 57.3591C1379.26 57.3064 1379.01 57.2538 1378.77 57.2012C1378.52 57.1486 1378.27 57.096 1378.02 57.0433C1377.78 56.9906 1377.53 56.938 1377.28 56.8852C1362.07 53.652 1346.69 50.396 1331.13 47.118C1315.4 43.8042 1299.49 40.4674 1283.4 37.1073C1267.13 33.7102 1250.68 30.2887 1234.03 26.8436C1217.19 23.3596 1200.16 19.8508 1182.93 16.3169C1165.21 12.6899 1147.28 9.03334 1129.13 5.35339C1110.76 1.63027 1092.17 -2.11734 1073.35 -5.8818C1054.3 -9.69139 1035.01 -13.5191 1015.48 -17.3579C995.705 -21.2431 975.678 -25.1397 955.391 -29.0403C975.397 -24.4221 995.168 -19.9053 1014.71 -15.4801C1034 -11.1096 1053.08 -6.82774 1071.93 -2.62515C1090.55 1.52655 1108.96 5.60132 1127.16 9.60814C1145.15 13.5674 1162.93 17.461 1180.51 21.2968C1197.7 25.0404 1214.69 28.7261 1231.51 32.3557C1248.13 35.9443 1264.57 39.4784 1280.84 42.9597C1296.93 46.4024 1312.85 49.7934 1328.6 53.1347C1344.18 56.4395 1359.6 59.696 1374.86 62.9048" fill="#CDB9DA"/>
</g>
<defs>
<clipPath id="clip0_2239_5185">
<rect width="2619.75" height="647.753" fill="white" transform="matrix(-0.996158 -0.0875695 -0.0875695 0.996158 2211 -44.8672)"/>
</clipPath>
</defs>
</svg>
