<svg width="64" height="64" viewBox="0 0 64 64" fill="none" xmlns="http://www.w3.org/2000/svg">
<g clip-path="url(#clip0_2028_24455)">
<path d="M39.625 11.25C32.3875 11.25 26.5 17.1375 26.5 24.375C26.5 31.6125 32.3875 37.5 39.625 37.5C46.8625 37.5 52.75 31.6125 52.75 24.375C52.75 17.1375 46.8625 11.25 39.625 11.25ZM48.4513 21.9513L39.0763 31.3263C38.3483 32.0544 37.1589 32.0615 36.4238 31.3263L30.7988 25.7013C30.0675 24.9688 30.0675 23.7812 30.7988 23.0487C31.5313 22.3175 32.7188 22.3175 33.4513 23.0487L37.75 27.3487L45.7988 19.2987C46.5313 18.5675 47.7188 18.5675 48.4513 19.2987C49.1825 20.0312 49.1825 21.2188 48.4513 21.9513Z" fill="#F9ED20"/>
<path d="M39.6246 0C26.1846 0 15.2497 10.935 15.2497 24.375C15.2497 30.4212 17.4634 35.9612 21.1221 40.2249C21.1223 40.225 21.1224 40.2252 21.1225 40.2254L18.0344 43.3135L16.7084 41.9874C15.9772 41.2549 14.7884 41.2562 14.0572 41.9874L0.548436 55.4961C-0.182812 56.2286 -0.182812 57.4149 0.548436 58.1474L5.85218 63.4511C6.58467 64.1836 7.77217 64.1824 8.50342 63.4511L22.0121 49.9424C22.7446 49.2099 22.7446 48.0237 22.0121 47.2912L20.686 45.965L23.7741 42.8769C23.7743 42.877 23.7744 42.8772 23.7746 42.8773C28.0384 46.536 33.5784 48.7498 39.6246 48.7498C53.0646 48.7498 63.9996 37.8148 63.9996 24.3748C63.9996 10.9349 53.0646 0 39.6246 0ZM39.6246 41.2499C30.3196 41.2499 22.7496 33.6799 22.7496 24.375C22.7496 15.07 30.3196 7.49998 39.6246 7.49998C48.9296 7.49998 56.4996 15.07 56.4996 24.375C56.4996 33.6799 48.9296 41.2499 39.6246 41.2499Z" fill="#F9ED20"/>
</g>
<defs>
<clipPath id="clip0_2028_24455">
<rect width="64" height="64" fill="white"/>
</clipPath>
</defs>
</svg>
