<svg width="101" height="109" viewBox="0 0 101 109" fill="none" xmlns="http://www.w3.org/2000/svg">
<g id="tankless" filter="url(#filter0_d_2935_15464)">
<g id="Group 2899">
<path id="Vector" d="M45.1493 85.3697V89.6961C45.1468 90.4684 44.5213 91.0939 43.749 91.0958H38.1492C37.3769 91.0939 36.7514 90.4684 36.7495 89.6961V84.7256L45.1493 85.3697Z" fill="#817D86"/>
<path id="Vector_2" d="M64.7509 84.7256V89.6961C64.749 90.4684 64.1235 91.0939 63.3512 91.0958H57.7514C56.9791 91.0939 56.3536 90.4684 56.3511 89.6961V85.3697L64.7509 84.7256Z" fill="#817D86"/>
<path id="Vector_3" d="M77.3474 14.9364V80.4564C77.3493 81.7996 76.3982 82.9564 75.0793 83.214C66.3687 84.8655 57.512 85.6205 48.6475 85.4679C41.186 85.3603 33.7475 84.6066 26.416 83.214C25.0971 82.9564 24.146 81.7996 24.148 80.4564V14.9364C24.146 13.5931 25.0971 12.4364 26.416 12.1787C27.9976 11.8846 29.5658 11.6045 31.1481 11.3668C32.5478 11.1566 33.948 10.9745 35.3477 10.8066V33.6964C35.3394 41.3912 41.0232 47.9063 48.6475 48.9425C49.3422 49.0502 50.0446 49.1021 50.7477 49.0963C54.8325 49.0989 58.7508 47.4769 61.6398 44.5885C64.5282 41.7001 66.1495 37.7812 66.1476 33.6964V10.8066C69.1437 11.1566 72.1115 11.6186 75.0793 12.1787C76.3982 12.4364 77.3493 13.5931 77.3474 14.9364Z" fill="#E5E1E8"/>
<path id="Vector_4" d="M73.1478 14.9364V80.4564C73.1497 81.7996 72.1987 82.9564 70.8798 83.214C63.5476 84.6066 56.1098 85.3603 48.6475 85.4679C41.186 85.3603 33.7475 84.6066 26.416 83.214C25.0971 82.9564 24.146 81.7996 24.148 80.4564V14.9364C24.146 13.5931 25.0971 12.4364 26.416 12.1787C27.9976 11.8846 33.766 11.6045 35.3477 11.3668V33.6964C35.3458 37.7812 36.9672 41.7001 39.8555 44.5885C42.7445 47.4769 46.6628 49.0989 50.7477 49.0963C51.4507 49.1021 52.1531 49.0502 52.8478 48.9425C60.4721 47.9063 66.156 41.3912 66.1476 33.6964V10.8066C67.5473 10.9745 64.7473 11.1566 66.1476 11.3668C67.7293 11.6045 69.2975 11.8846 70.8798 12.1787C72.1987 12.4364 73.1497 13.5931 73.1478 14.9364Z" fill="#F5F5F5"/>
<path id="Vector_5" d="M66.1471 10.8063V33.696C66.149 37.7809 64.5276 41.6998 61.6393 44.5882C58.7503 47.4765 54.832 49.0986 50.7471 49.096C50.0441 49.1018 49.3417 49.0499 48.647 48.9422C41.0227 47.9059 35.3388 41.3909 35.3472 33.696V10.8063C45.5779 9.5893 55.9164 9.5893 66.1471 10.8063Z" fill="#817D86"/>
<path id="Vector_6" d="M61.9469 10.8061V33.6958C61.9552 41.3907 56.272 47.9057 48.647 48.942C41.0227 47.9057 35.3388 41.3907 35.3472 33.6958V10.8061C39.7627 10.2844 44.2014 9.98514 48.647 9.91016C53.0927 9.98514 57.5313 10.2844 61.9469 10.8061Z" fill="#817D86"/>
<path id="Vector_7" d="M60.5489 33.6966C60.5508 36.2966 59.519 38.7902 57.6804 40.6282C55.8424 42.4668 53.3488 43.4986 50.7488 43.4967C50.0432 43.4941 49.3396 43.4191 48.6487 43.2724C44.1524 42.2848 40.9487 38.3005 40.9487 33.6966C40.9487 29.0926 44.1524 25.109 48.6487 24.1208C49.3396 23.974 50.0432 23.8991 50.7488 23.8965C53.3488 23.8946 55.8424 24.927 57.6804 26.765C59.519 28.603 60.5508 31.0972 60.5489 33.6966Z" fill="#0077C8"/>
<path id="Vector_8" d="M56.3487 33.6969C56.3487 28.4085 52.9015 24.1211 48.6487 24.1211C44.3966 24.1211 40.9487 28.4085 40.9487 33.6969C40.9487 38.9859 44.3966 43.2727 48.6487 43.2727C52.9015 43.2727 56.3487 38.9859 56.3487 33.6969Z" fill="#00AAE7"/>
<path id="Vector_9" d="M43.7468 56.0967H57.7471C58.52 56.0967 59.1468 56.7234 59.1468 57.4963V63.0962C59.1468 63.8697 58.52 64.4965 57.7471 64.4965H43.7468C42.9739 64.4965 42.3472 63.8697 42.3472 63.0962V57.4963C42.3472 56.7234 42.9739 56.0967 43.7468 56.0967Z" fill="#DBD00B"/>
<path id="Vector_10" d="M43.7468 56.0967H53.5469C54.3204 56.0967 54.9472 56.7234 54.9472 57.4963V63.0962C54.9472 63.8697 54.3204 64.4965 53.5469 64.4965H43.7468C42.9739 64.4965 42.3472 63.8697 42.3472 63.0962V57.4963C42.3472 56.7234 42.9739 56.0967 43.7468 56.0967Z" fill="#F9ED20"/>
<path id="Vector_11" d="M50.7495 86.9055C42.4965 86.9036 34.262 86.1281 26.1538 84.5894C24.1742 84.2081 22.745 82.4727 22.7495 80.4565V14.9365C22.745 12.9203 24.1748 11.1855 26.1544 10.8035C42.4061 7.71522 59.0936 7.71522 75.3452 10.8035C77.3249 11.1855 78.754 12.9203 78.7495 14.9365V80.4565C78.754 82.4727 77.3242 84.2075 75.3446 84.5894C67.2364 86.1275 59.0019 86.9036 50.7495 86.9055ZM50.7495 11.2874C42.6714 11.29 34.6113 12.0487 26.6748 13.5541C26.0166 13.6849 25.5437 14.2655 25.5495 14.9365V80.4565C25.5443 81.1268 26.016 81.7075 26.6742 81.8382C42.5817 84.8599 58.916 84.8599 74.8242 81.8382H74.8249C75.483 81.7075 75.9547 81.1268 75.9496 80.4565V14.9365C75.9547 14.2661 75.483 13.6855 74.8249 13.5548C66.8877 12.0494 58.8276 11.29 50.7495 11.2874Z" fill="black"/>
<path id="Vector_12" d="M50.7483 50.4969C41.4744 50.486 33.959 42.9706 33.9487 33.6966V10.8069C33.9487 10.034 34.5755 9.40723 35.3484 9.40723C36.1219 9.40723 36.7487 10.034 36.7487 10.8069V33.6966C36.7487 41.4286 43.0163 47.6969 50.7483 47.6969C58.4804 47.6969 64.748 41.4286 64.748 33.6966V10.8069C64.748 10.034 65.3748 9.40723 66.1483 9.40723C66.9212 9.40723 67.548 10.034 67.548 10.8069V33.6966C67.5377 42.9706 60.0223 50.486 50.7483 50.4969Z" fill="black"/>
<path id="Vector_13" d="M50.7461 44.8956C44.5605 44.8956 39.5464 39.8815 39.5464 33.6958C39.5464 27.5102 44.5605 22.4961 50.7461 22.4961C56.9317 22.4961 61.9459 27.5102 61.9459 33.6958C61.9388 39.8783 56.9285 44.8885 50.7461 44.8956ZM50.7461 25.296C46.1069 25.296 42.3463 29.0566 42.3463 33.6958C42.3463 38.335 46.1069 42.0956 50.7461 42.0956C55.3853 42.0956 59.1459 38.335 59.1459 33.6958C59.1408 29.0592 55.3834 25.3012 50.7461 25.296Z" fill="black"/>
<path id="Vector_14" d="M50.7458 35.0965C50.2299 35.0959 49.7557 34.8113 49.5122 34.3563C49.2693 33.9013 49.2962 33.3489 49.582 32.9195L52.3826 28.7199C52.6575 28.2989 53.1375 28.0573 53.64 28.0887C54.1424 28.1194 54.5891 28.4174 54.8108 28.8692C55.0326 29.321 54.9948 29.8568 54.7121 30.2727L51.9122 34.473C51.652 34.8632 51.2143 35.0972 50.7458 35.0965Z" fill="black"/>
<path id="Vector_15" d="M43.747 92.4963H38.1471C36.6013 92.4944 35.3491 91.2415 35.3472 89.6964V84.7258C35.3472 83.9529 35.9739 83.3262 36.7475 83.3262C37.5203 83.3262 38.1471 83.9529 38.1471 84.7258V89.6964H43.747V85.3699C43.747 84.597 44.3737 83.9702 45.1473 83.9702C45.9201 83.9702 46.5469 84.597 46.5469 85.3699V89.6964C46.5456 91.2415 45.2927 92.4944 43.747 92.4963Z" fill="black"/>
<path id="Vector_16" d="M63.3485 92.4963H57.7487C56.2029 92.4944 54.95 91.2415 54.9487 89.6964V85.3699C54.9487 84.597 55.5755 83.9702 56.3484 83.9702C57.1219 83.9702 57.7487 84.597 57.7487 85.3699V89.6964H63.3485V84.7258C63.3485 83.9529 63.9753 83.3262 64.7482 83.3262C65.5217 83.3262 66.1485 83.9529 66.1485 84.7258V89.6964C66.1465 91.2415 64.8943 92.4944 63.3485 92.4963Z" fill="black"/>
<path id="Vector_17" d="M57.749 65.896H43.7487C42.2029 65.8947 40.9507 64.6419 40.9487 63.0961V57.4962C40.9507 55.9505 42.2029 54.6982 43.7487 54.6963H57.749C59.2947 54.6982 60.547 55.9505 60.5489 57.4962V63.0961C60.547 64.6419 59.2947 65.8947 57.749 65.896ZM43.7487 57.4962V63.0961H57.7509L57.749 57.4962H43.7487Z" fill="black"/>
<path id="Vector_18" d="M29.7475 56.0967C28.9739 56.0967 28.3472 55.4699 28.3472 54.6964V53.2968C28.3472 52.5232 28.9739 51.8965 29.7475 51.8965C30.5203 51.8965 31.1477 52.5232 31.1477 53.2968V54.6964C31.1477 55.4699 30.5203 56.0967 29.7475 56.0967Z" fill="black"/>
<path id="Vector_19" d="M29.7475 78.496C28.9739 78.496 28.3472 77.8693 28.3472 77.0964V60.2961C28.3472 59.5232 28.9739 58.8965 29.7475 58.8965C30.5203 58.8965 31.1477 59.5232 31.1477 60.2961V77.0964C31.1477 77.8693 30.5203 78.496 29.7475 78.496Z" fill="black"/>
<path id="Vector_20" d="M42.3521 71.4962H39.5521C38.7786 71.4962 38.1519 70.8695 38.1519 70.0959C38.1519 69.3231 38.7786 68.6963 39.5521 68.6963H42.3521C43.125 68.6963 43.7517 69.3231 43.7517 70.0959C43.7517 70.8695 43.125 71.4962 42.3521 71.4962Z" fill="black"/>
<path id="Vector_21" d="M42.3521 77.0968H39.5521C38.7786 77.0968 38.1519 76.47 38.1519 75.6965C38.1519 74.9236 38.7786 74.2969 39.5521 74.2969H42.3521C43.125 74.2969 43.7517 74.9236 43.7517 75.6965C43.7517 76.47 43.125 77.0968 42.3521 77.0968Z" fill="black"/>
<path id="Vector_22" d="M61.9491 71.4962H59.1492C58.3763 71.4962 57.7495 70.8695 57.7495 70.0959C57.7495 69.3231 58.3763 68.6963 59.1492 68.6963H61.9491C62.7226 68.6963 63.3494 69.3231 63.3494 70.0959C63.3494 70.8695 62.7226 71.4962 61.9491 71.4962Z" fill="black"/>
<path id="Vector_23" d="M61.9491 77.0968H59.1492C58.3763 77.0968 57.7495 76.47 57.7495 75.6965C57.7495 74.9236 58.3763 74.2969 59.1492 74.2969H61.9491C62.7226 74.2969 63.3494 74.9236 63.3494 75.6965C63.3494 76.47 62.7226 77.0968 61.9491 77.0968Z" fill="black"/>
</g>
</g>
<defs>
<filter id="filter0_d_2935_15464" x="-11.2505" y="-7.5127" width="124" height="124" filterUnits="userSpaceOnUse" color-interpolation-filters="sRGB">
<feFlood flood-opacity="0" result="BackgroundImageFix"/>
<feColorMatrix in="SourceAlpha" type="matrix" values="0 0 0 0 0 0 0 0 0 0 0 0 0 0 0 0 0 0 127 0" result="hardAlpha"/>
<feOffset dy="4"/>
<feGaussianBlur stdDeviation="6"/>
<feColorMatrix type="matrix" values="0 0 0 0 0 0 0 0 0 0 0 0 0 0 0 0 0 0 0.18 0"/>
<feBlend mode="normal" in2="BackgroundImageFix" result="effect1_dropShadow_2935_15464"/>
<feBlend mode="normal" in="SourceGraphic" in2="effect1_dropShadow_2935_15464" result="shape"/>
</filter>
</defs>
</svg>
