<svg width="105" height="107" viewBox="0 0 105 107" fill="none" xmlns="http://www.w3.org/2000/svg">
<g id="repair" filter="url(#filter0_d_2935_6569)">
<g id="Group">
<g id="Group_2">
<path id="Vector" d="M86.3892 77.2827H52.015C49.4262 77.2827 47.3276 75.1841 47.3276 72.5953V16.3466C47.3276 13.7577 49.4262 11.6592 52.015 11.6592H86.3892C88.9781 11.6592 91.0766 13.7577 91.0766 16.3466V72.5953C91.0766 75.184 88.9781 77.2827 86.3892 77.2827Z" fill="#EFEDF1"/>
<path id="Vector_2" d="M51.2338 72.5953V16.3466C51.2338 13.7577 53.3323 11.6592 55.9212 11.6592H52.015C49.4262 11.6592 47.3276 13.7577 47.3276 16.3466V72.5953C47.3276 75.1841 49.4262 77.2827 52.015 77.2827H55.9212C53.3325 77.2827 51.2338 75.184 51.2338 72.5953Z" fill="#CDC8D1"/>
<path id="Vector_3" d="M55.5151 77.2822V49.6679C55.5151 47.079 57.6137 44.9805 60.2025 44.9805H78.2006C80.7894 44.9805 82.888 47.079 82.888 49.6679V77.2821H55.5151V77.2822Z" fill="#00AAE7"/>
<path id="Vector_4" d="M69.2025 68.944C73.5171 68.944 77.0148 65.4463 77.0148 61.1317C77.0148 56.817 73.5171 53.3193 69.2025 53.3193C64.8878 53.3193 61.3901 56.817 61.3901 61.1317C61.3901 65.4463 64.8878 68.944 69.2025 68.944Z" fill="#F9ED20"/>
<path id="Vector_5" d="M80.5443 35.845H57.8588C56.5645 35.845 55.5151 34.7956 55.5151 33.5013V21.5712C55.5151 20.2769 56.5645 19.2275 57.8588 19.2275H80.5443C81.8386 19.2275 82.888 20.2769 82.888 21.5712V33.5013C82.888 34.7956 81.8388 35.845 80.5443 35.845Z" fill="#00AAE7"/>
<path id="Vector_6" d="M60.3182 83.9043H55.6308C53.4735 83.9043 51.7246 82.1554 51.7246 79.9981V77.2822H64.2243V79.9981C64.2243 82.1554 62.4755 83.9043 60.3182 83.9043Z" fill="#CDC8D1"/>
<path id="Vector_7" d="M82.6585 83.9043H77.9711C75.8138 83.9043 74.0649 82.1554 74.0649 79.9981V77.2822H86.5647V79.9981C86.5647 82.1554 84.8158 83.9043 82.6585 83.9043Z" fill="#CDC8D1"/>
<path id="Vector_8" d="M55.6309 83.9043H60.3183V90.4851H55.6309V83.9043Z" fill="#EFEDF1"/>
<path id="Vector_9" d="M77.9712 83.9043H82.6586V90.4851H77.9712V83.9043Z" fill="#EFEDF1"/>
<path id="Vector_10" d="M64.1087 44.9805H60.2025C57.6137 44.9805 55.5151 47.0792 55.5151 49.6679V77.2821H59.4213V49.6679C59.4213 47.0792 61.52 44.9805 64.1087 44.9805Z" fill="#0077C8"/>
<path id="Vector_11" d="M59.4213 33.5013V21.5712C59.4213 20.2769 60.4706 19.2275 61.765 19.2275H57.8588C56.5645 19.2275 55.5151 20.2769 55.5151 21.5712V33.5013C55.5151 34.7956 56.5645 35.845 57.8588 35.845H61.765C60.4706 35.845 59.4213 34.7956 59.4213 33.5013Z" fill="#0077C8"/>
<path id="Vector_12" d="M65.2963 61.1317C65.2963 57.4914 67.7861 54.4328 71.1555 53.5654C70.5313 53.4048 69.8768 53.3193 69.2025 53.3193C64.8879 53.3193 61.3901 56.8171 61.3901 61.1317C61.3901 65.4462 64.8879 68.944 69.2025 68.944C69.8768 68.944 70.5313 68.8585 71.1555 68.6979C67.7861 67.8306 65.2963 64.7719 65.2963 61.1317Z" fill="#FFBF3F"/>
<path id="Vector_13" d="M55.6308 83.9043C53.4735 83.9043 51.7246 82.1554 51.7246 79.9981V77.2822H55.6308V83.9043Z" fill="#A6A3AA"/>
<path id="Vector_14" d="M77.9711 83.9043C75.8138 83.9043 74.0649 82.1554 74.0649 79.9981V77.2822H77.9711V83.9043Z" fill="#A6A3AA"/>
<g id="Group_3">
<g id="Group_4">
<path id="Vector_15" d="M36.0771 65.1738C48.5895 65.1738 58.7329 55.0305 58.7329 42.518C58.7329 30.0056 48.5895 19.8623 36.0771 19.8623C23.5647 19.8623 13.4214 30.0056 13.4214 42.518C13.4214 55.0305 23.5647 65.1738 36.0771 65.1738Z" fill="#CDB9DA"/>
<path id="Vector_16" d="M47.2246 37.6162H50.8917C52.5276 37.6162 53.8541 38.9412 53.8541 40.5771C53.8541 41.3958 53.5229 42.1364 52.987 42.6723C52.4495 43.2083 51.7089 43.5395 50.8917 43.5395H47.7855L47.2246 37.6162Z" fill="#F9ED20"/>
<path id="Vector_17" d="M33.7354 43.5401L29.5433 43.5396C29.5418 43.5406 29.5405 43.5414 29.5389 43.5423C27.1995 47.8655 20.9607 47.118 19.2373 42.8318H22.7608L24.3233 40.5788L22.7608 38.3257H19.2373C20.9635 34.0302 27.2034 33.2991 29.5433 37.6163H33.7354V43.5401Z" fill="#F9ED20"/>
<path id="Vector_18" d="M17.3275 42.518C17.3275 30.6638 26.4323 20.9376 38.0302 19.947C37.3863 19.892 36.7352 19.8623 36.0771 19.8623C23.5647 19.8623 13.4214 30.0057 13.4214 42.518C13.4214 55.0304 23.5647 65.1738 36.0771 65.1738C36.7352 65.1738 37.3863 65.1441 38.0302 65.0891C26.4325 64.0985 17.3275 54.3723 17.3275 42.518Z" fill="#A58EB4"/>
<path id="Vector_19" d="M43.5699 35.501H35.8434C34.6796 35.501 33.7361 36.4444 33.7361 37.6083L33.7364 43.5408H29.5215C29.5215 48.9213 33.4326 52.6176 33.4326 52.6176V65.0198C34.3003 65.1208 35.1823 65.1742 36.077 65.1742C39.3284 65.1742 42.4192 64.4878 45.2141 63.2544V52.6175C45.2141 52.6175 47.7844 50.036 47.7844 46.0234V39.7154C47.7844 37.3878 45.8975 35.501 43.5699 35.501Z" fill="#FFDAAA"/>
<path id="Vector_20" d="M36.0771 35.501H35.8434C34.6796 35.501 33.7361 36.4444 33.7361 37.6083L33.7364 43.5408H29.5215C29.5215 48.9213 33.4326 52.6176 33.4326 52.6176V65.0198C34.3003 65.1208 35.1823 65.1742 36.077 65.1742V35.501H36.0771Z" fill="#FFB680"/>
<path id="Vector_21" d="M19.2373 38.3264H22.7608L24.3233 40.5794L22.7608 42.8325H19.2373C20.4746 45.9101 24.04 47.163 26.8184 46.0246V35.1347C24.04 33.9969 20.4763 35.2433 19.2373 38.3264Z" fill="#FFBF3F"/>
</g>
</g>
</g>
<g id="Group_5">
<path id="Vector_22" d="M89.9057 72.5953C89.9057 74.5337 88.3285 76.1108 86.3901 76.1108H84.0605V49.6677C84.0605 46.4368 81.4321 43.8084 78.2012 43.8084H60.2048C60.0927 43.8084 59.9815 43.8126 59.8704 43.8189C59.9993 41.5357 59.7815 39.1812 59.2645 37.018H80.5449C82.4833 37.018 84.0605 35.4408 84.0605 33.5024V21.5714C84.0605 19.633 82.4833 18.0559 80.5449 18.0559H57.8611C55.9227 18.0559 54.3455 19.633 54.3455 21.5714V27.2365C52.6862 25.2562 50.7122 23.5486 48.5003 22.1919V16.3465C48.5003 14.4082 50.0775 12.831 52.0159 12.831H56.8033V10.4873H52.0159C48.785 10.4873 46.1567 13.1157 46.1567 16.3465V20.9297C30.752 13.4622 12.0298 25.3263 12.2515 42.518C12.0288 59.7065 30.7551 71.5761 46.1568 64.1058V72.5951C46.1568 75.321 48.0277 77.618 50.553 78.2694V79.9984C50.553 82.3951 52.2225 84.4078 54.4591 84.9384V90.4852H56.8028V85.0764H59.1465V90.4852H61.4902V84.9384C63.7269 84.4078 65.3964 82.3951 65.3964 79.9984V78.4542H72.8962V79.9984C72.8962 82.3951 74.5657 84.4078 76.8024 84.9384V90.4852H79.1461V85.0764H81.4898V90.4852H83.8335V84.9384C86.0701 84.4078 87.7396 82.3951 87.7396 79.9984V78.2956C90.3219 77.6844 92.2495 75.3613 92.2495 72.595V66.3451H89.9058V72.5953H89.9057ZM56.6894 21.5714C56.6894 20.9252 57.215 20.3996 57.8612 20.3996H80.5451C81.1913 20.3996 81.7169 20.9252 81.7169 21.5714V33.5023C81.7169 34.1485 81.1913 34.6741 80.5451 34.6741H58.5784C58.077 33.2399 57.4426 31.8678 56.6892 30.5726V21.5714H56.6894ZM14.5949 42.5178C14.5949 30.6717 24.2326 21.0339 36.0788 21.0339C58.399 21.2975 65.6175 50.667 46.3877 61.3618V53.0612C47.1596 52.1335 48.9578 49.5897 48.9578 46.0228V44.7114H50.8923C53.1124 44.7575 55.0739 42.8008 55.0266 40.5771C55.0266 38.2982 53.172 36.4444 50.8923 36.4444H47.8474C46.8621 35.1591 45.3125 34.3283 43.5717 34.3283H35.8452C34.4463 34.3283 33.2493 35.2086 32.779 36.4444H30.2036C27.2311 31.9251 20.0791 32.9545 18.1529 37.8887C18.1529 37.8886 17.5064 39.4974 17.5064 39.4974H22.1503L22.9001 40.5787L22.1503 41.6599H17.506L18.1529 43.2689C19.6974 47.3202 25.2052 48.9721 28.6663 46.3215C29.4389 49.7435 31.4314 52.1893 32.2627 53.0913V63.6619C22.2305 61.8561 14.5949 53.062 14.5949 42.5178ZM48.8766 38.7882H50.8925C51.8798 38.7882 52.6831 39.5909 52.6831 40.5772C52.7034 41.5424 51.8543 42.3872 50.8925 42.3678H48.958C48.9374 41.6775 49.0208 39.4307 48.8766 38.7882ZM29.2475 42.3678L28.6761 42.6795C27.3764 45.5609 23.6836 46.0806 21.44 44.0037H23.3772L25.7523 40.5788L23.3772 37.1539H21.4247C23.4739 35.1855 27.1722 35.5333 28.516 38.175L28.8484 38.7882H32.566L32.5663 42.3681L29.2475 42.3678ZM34.6064 63.9503V52.617L34.6043 52.1134C34.1508 51.6286 31.442 49.3149 30.7668 44.7115L34.91 44.712L34.9097 37.6073C34.9097 37.0915 35.3294 36.672 35.8452 36.672H43.5717C45.2493 36.672 46.6143 38.0368 46.6143 39.7148V46.0228C46.5145 49.8177 44.4286 51.7198 44.0442 52.1329V62.4699C41.1677 63.6341 37.8362 64.1834 34.6064 63.9503ZM48.5003 72.5953V62.8438C50.7122 61.4871 52.6862 59.7793 54.3455 57.7992V76.1108H52.0159C50.0775 76.1108 48.5003 74.5337 48.5003 72.5953ZM63.0525 79.9985C63.0525 81.5062 61.8258 82.7329 60.3182 82.7329H55.6308C54.1232 82.7329 52.8965 81.5062 52.8965 79.9985V78.4544H63.0525V79.9985ZM56.6894 76.1108V54.4629C58.1451 51.9607 59.1585 49.1713 59.6215 46.2017C59.8127 46.1698 60.0074 46.1521 60.2049 46.1521H78.2014C80.1398 46.1521 81.7169 47.7293 81.7169 49.6677V76.1108H56.6894ZM85.3958 79.9985C85.3958 81.5062 84.1691 82.7329 82.6614 82.7329H77.9741C76.4664 82.7329 75.2397 81.5062 75.2397 79.9985V78.4544H85.3958V79.9985Z" fill="black"/>
<path id="Vector_23" d="M86.3896 10.4873H59.1465V12.831H86.3896C88.328 12.831 89.9052 14.4082 89.9052 16.3465V64.0017H92.2489V16.3465C92.2489 13.1157 89.6205 10.4873 86.3896 10.4873Z" fill="black"/>
<path id="Vector_24" d="M69.2024 52.1475C64.2485 52.1475 60.2183 56.1777 60.2183 61.1316C60.7117 73.0504 77.6951 73.0468 78.1866 61.1316C78.1866 56.1777 74.1564 52.1475 69.2024 52.1475ZM69.2024 67.7721C65.5408 67.7721 62.562 64.7933 62.562 61.1316C62.5151 56.2603 67.8264 52.9784 72.1466 55.1818L68.2314 60.979L70.1735 62.2907L74.0305 56.5797C78.0019 60.7277 75.0023 67.7896 69.2024 67.7721Z" fill="black"/>
</g>
<g id="Group_6">
<path id="Vector_25" d="M65.6846 26.3652H68.0283V28.7089H65.6846V26.3652Z" fill="white"/>
<path id="Vector_26" d="M70.3721 26.3652H72.7158V28.7089H70.3721V26.3652Z" fill="white"/>
</g>
</g>
</g>
<defs>
<filter id="filter0_d_2935_6569" x="-9.75049" y="-7.5127" width="124" height="124" filterUnits="userSpaceOnUse" color-interpolation-filters="sRGB">
<feFlood flood-opacity="0" result="BackgroundImageFix"/>
<feColorMatrix in="SourceAlpha" type="matrix" values="0 0 0 0 0 0 0 0 0 0 0 0 0 0 0 0 0 0 127 0" result="hardAlpha"/>
<feOffset dy="4"/>
<feGaussianBlur stdDeviation="6"/>
<feColorMatrix type="matrix" values="0 0 0 0 0 0 0 0 0 0 0 0 0 0 0 0 0 0 0.18 0"/>
<feBlend mode="normal" in2="BackgroundImageFix" result="effect1_dropShadow_2935_6569"/>
<feBlend mode="normal" in="SourceGraphic" in2="effect1_dropShadow_2935_6569" result="shape"/>
</filter>
</defs>
</svg>
