<svg width="14" height="15" viewBox="0 0 14 15" fill="none" xmlns="http://www.w3.org/2000/svg">
<g clip-path="url(#clip0_91_21437)">
<path d="M13.6813 7.39771C13.6813 6.82381 13.6347 6.40501 13.5339 5.9707H6.98047V8.56103H10.8272C10.7497 9.20476 10.3309 10.1742 9.40018 10.8256L9.38714 10.9124L11.4592 12.5176L11.6028 12.5319C12.9212 11.3143 13.6813 9.52272 13.6813 7.39771Z" fill="#4285F4"/>
<path d="M6.97767 14.2235C8.86225 14.2235 10.4444 13.6031 11.6 12.5328L9.39739 10.8266C8.80798 11.2376 8.01689 11.5246 6.97767 11.5246C5.13186 11.5246 3.56525 10.307 3.0068 8.62402L2.92494 8.63097L0.770364 10.2984L0.742188 10.3767C1.89 12.6569 4.24769 14.2235 6.97767 14.2235Z" fill="#34A853"/>
<path d="M3.00913 8.62389C2.86177 8.18959 2.77649 7.72422 2.77649 7.2434C2.77649 6.76252 2.86177 6.29721 3.00137 5.8629L2.99747 5.77041L0.815893 4.07617L0.744515 4.11012C0.271447 5.05631 0 6.11884 0 7.2434C0 8.36795 0.271447 9.43043 0.744515 10.3766L3.00913 8.62389Z" fill="#FBBC05"/>
<path d="M6.97767 2.96259C8.28834 2.96259 9.17246 3.52874 9.67659 4.00186L11.6465 2.07847C10.4367 0.953919 8.86225 0.263672 6.97767 0.263672C4.24769 0.263672 1.89 1.83028 0.742188 4.1104L2.99905 5.86318C3.56525 4.18022 5.13186 2.96259 6.97767 2.96259Z" fill="#EB4335"/>
</g>
<defs>
<clipPath id="clip0_91_21437">
<rect width="13.6808" height="14" fill="white" transform="translate(0 0.243164)"/>
</clipPath>
</defs>
</svg>
