<svg width="49" height="64" viewBox="0 0 49 64" fill="none" xmlns="http://www.w3.org/2000/svg">
<g clip-path="url(#clip0_2028_24608)">
<path d="M1.29389 30.8143C0.2552 32.4772 -0.18021 37.7074 0.181757 41.1749C0.307659 42.3185 0.517495 43.2733 0.816511 43.8451C1.23094 44.632 1.92864 45.1041 2.72077 45.1303C3.22963 45.1566 3.54963 45.0674 13.1234 41.988C13.1234 41.988 17.3778 40.6294 17.3988 40.6189C18.4585 40.3461 19.1772 39.3703 19.2454 38.1271C19.3136 36.8471 18.6578 35.7192 17.5667 35.3153C17.5667 35.3153 14.566 34.093 14.5608 34.093C4.26831 29.849 3.80667 29.6812 3.28733 29.6759C2.48995 29.6497 1.787 30.0484 1.29389 30.8143ZM24.3129 62.4418C24.4808 61.9592 24.5018 61.6287 24.528 51.5671C24.528 51.5671 24.549 47.1238 24.5542 47.0766C24.6224 45.9854 23.9195 44.9939 22.7654 44.548C21.5745 44.0917 20.2945 44.3749 19.5759 45.2667C19.5759 45.2667 17.4775 47.7585 17.467 47.7585C10.2591 56.2254 9.95487 56.6189 9.78176 57.1172C9.67159 57.411 9.63487 57.7257 9.66635 58.0405C9.70831 58.4917 9.9129 58.9323 10.2486 59.3467C11.9221 61.3349 19.9378 64.2831 22.4978 63.8425C23.3949 63.6903 24.0401 63.192 24.3129 62.4418ZM40.5804 58.9428C42.9988 57.9776 48.2709 51.2733 48.6434 48.6871C48.7745 47.79 48.4913 47.0136 47.8722 46.5205C47.4683 46.2162 47.1588 46.0956 37.585 42.9533C37.585 42.9533 33.3883 41.5684 33.3306 41.5421C32.3129 41.1487 31.1536 41.5159 30.3772 42.4759C29.564 43.4621 29.4434 44.7684 30.0939 45.7494L31.7831 48.4982C37.4644 57.7257 37.8998 58.3762 38.309 58.6962C38.9385 59.1946 39.7411 59.2785 40.5804 58.9428ZM35.6336 35.1894C46.5083 32.5559 46.9332 32.4143 47.3581 32.131C48.0191 31.6851 48.3496 30.9454 48.2919 30.0431C48.2919 30.0169 48.2972 29.9854 48.2919 29.9539C48.0139 27.2785 43.3345 20.333 41.0263 19.2051C40.208 18.8117 39.3896 18.8379 38.7129 19.2943C38.2932 19.5671 37.9837 19.9815 32.1608 27.95C32.1608 27.95 29.5326 31.533 29.5011 31.5697C28.8086 32.4143 28.7981 33.6208 29.4749 34.6595C30.1778 35.7349 31.3634 36.2543 32.4493 35.9553C32.4493 35.9553 32.4073 36.0339 32.3968 36.0444C32.9319 35.8398 33.8867 35.6038 35.6336 35.1894ZM24.7168 26.2084C24.528 21.8962 23.2322 2.70149 23.0801 1.81493C22.8598 1.00706 22.2303 0.435261 21.328 0.204442C18.5477 -0.482771 7.9352 2.49165 5.96799 4.51657C5.33323 5.17756 5.10241 5.98542 5.29127 6.70411C5.60077 7.33887 18.7522 28.0287 18.7522 28.0287C20.6932 31.1815 22.2827 30.6884 22.8021 30.5258C23.3162 30.3736 24.8952 29.8805 24.7168 26.2084Z" fill="#512D6D"/>
</g>
<defs>
<clipPath id="clip0_2028_24608">
<rect width="48.6144" height="64" fill="white" transform="translate(0.0551758)"/>
</clipPath>
</defs>
</svg>
