<svg width="64" height="64" viewBox="0 0 64 64" fill="none" xmlns="http://www.w3.org/2000/svg">
<path d="M61.0909 20.3662H2.90909C2.52704 20.3661 2.1487 20.4413 1.79571 20.5874C1.44272 20.7336 1.12199 20.9479 0.851831 21.218C0.581677 21.4882 0.367399 21.8089 0.221239 22.1619C0.0750787 22.5149 -9.92747e-05 22.8932 9.83875e-08 23.2753V55.2753C0.00176328 56.8178 0.615315 58.2967 1.70605 59.3874C2.79679 60.4782 4.27565 61.0917 5.81818 61.0935H58.1818C59.7243 61.0915 61.203 60.4779 62.2937 59.3872C63.3844 58.2965 63.998 56.8178 64 55.2753V23.2753C64.0002 22.8932 63.9251 22.5148 63.779 22.1618C63.6329 21.8087 63.4186 21.488 63.1484 21.2178C62.8783 20.9476 62.5575 20.7333 62.2044 20.5872C61.8514 20.4411 61.473 20.366 61.0909 20.3662ZM45.6931 35.028L30.1775 50.5451C29.9074 50.8153 29.5868 51.0297 29.2339 51.1759C28.8809 51.3221 28.5027 51.3974 28.1207 51.3974C27.7386 51.3974 27.3604 51.3221 27.0074 51.1759C26.6545 51.0297 26.3339 50.8153 26.0638 50.5451L18.3069 42.7866C17.7696 42.2394 17.4701 41.5022 17.4735 40.7353C17.477 39.9684 17.7832 39.2339 18.3255 38.6917C18.8677 38.1494 19.6022 37.8432 20.3691 37.8397C21.136 37.8363 21.8732 38.1358 22.4204 38.6731L28.1206 44.3749L41.5796 30.9146C42.1268 30.3772 42.864 30.0777 43.6309 30.0812C44.3978 30.0847 45.1323 30.3908 45.6745 30.9331C46.2168 31.4754 46.523 32.2099 46.5265 32.9768C46.53 33.7436 46.2304 34.4809 45.6931 35.028Z" fill="white"/>
<path d="M61.0909 26.1898H2.90909C2.52704 26.1899 2.1487 26.1147 1.79571 25.9686C1.44272 25.8224 1.12199 25.6081 0.851831 25.338C0.581677 25.0678 0.367399 24.7471 0.221239 24.3941C0.0750787 24.0411 -9.92747e-05 23.6628 9.83875e-08 23.2807V11.6444C0.00176328 10.1018 0.615315 8.62296 1.70605 7.53223C2.79679 6.44149 4.27565 5.82794 5.81818 5.82617H58.1818C59.7243 5.82817 61.203 6.4418 62.2937 7.53249C63.3844 8.62318 63.998 10.1019 64 11.6444V23.2807C64.0002 23.6628 63.9251 24.0412 63.779 24.3942C63.6329 24.7473 63.4186 25.0681 63.1484 25.3382C62.8783 25.6084 62.5575 25.8227 62.2044 25.9688C61.8514 26.1149 61.473 26.19 61.0909 26.1898ZM5.81818 20.3716H58.1818V11.6444H5.81818V20.3716Z" fill="white"/>
<path d="M38.3053 17.4605C37.9232 17.4607 37.5449 17.3856 37.1918 17.2395C36.8388 17.0934 36.518 16.8791 36.2478 16.6089C35.9776 16.3387 35.7634 16.018 35.6172 15.6649C35.4711 15.3119 35.396 14.9335 35.3962 14.5514V5.82413C35.3962 5.05259 35.7027 4.31265 36.2483 3.76709C36.7939 3.22153 37.5338 2.91504 38.3053 2.91504C39.0769 2.91504 39.8168 3.22153 40.3624 3.76709C40.9079 4.31265 41.2144 5.05259 41.2144 5.82413V14.5514C41.2146 14.9335 41.1396 15.3119 40.9934 15.6649C40.8473 16.018 40.633 16.3388 40.3629 16.6089C40.0927 16.8791 39.7719 17.0934 39.4189 17.2395C39.0658 17.3856 38.6874 17.4607 38.3053 17.4605Z" fill="white"/>
<path d="M25.6969 17.4605C25.3149 17.4606 24.9365 17.3854 24.5836 17.2393C24.2306 17.0931 23.9098 16.8788 23.6397 16.6087C23.3695 16.3385 23.1552 16.0178 23.0091 15.6648C22.8629 15.3118 22.7877 14.9335 22.7878 14.5514V5.82413C22.7878 5.05259 23.0943 4.31265 23.6399 3.76709C24.1855 3.22153 24.9254 2.91504 25.6969 2.91504C26.4685 2.91504 27.2084 3.22153 27.754 3.76709C28.2995 4.31265 28.606 5.05259 28.606 5.82413V14.5514C28.6061 14.9335 28.5309 15.3118 28.3848 15.6648C28.2386 16.0178 28.0243 16.3385 27.7542 16.6087C27.484 16.8788 27.1633 17.0931 26.8103 17.2393C26.4573 17.3854 26.079 17.4606 25.6969 17.4605Z" fill="white"/>
<path d="M13.091 17.4605C12.7089 17.4606 12.3306 17.3854 11.9776 17.2393C11.6246 17.0931 11.3039 16.8788 11.0337 16.6087C10.7636 16.3385 10.5493 16.0178 10.4031 15.6648C10.257 15.3118 10.1818 14.9335 10.1819 14.5514V5.82413C10.1819 5.05259 10.4884 4.31265 11.0339 3.76709C11.5795 3.22153 12.3194 2.91504 13.091 2.91504C13.8625 2.91504 14.6025 3.22153 15.148 3.76709C15.6936 4.31265 16.0001 5.05259 16.0001 5.82413V14.5514C16.0002 14.9335 15.925 15.3118 15.7788 15.6648C15.6327 16.0178 15.4184 16.3385 15.1482 16.6087C14.8781 16.8788 14.5573 17.0931 14.2044 17.2393C13.8514 17.3854 13.473 17.4606 13.091 17.4605Z" fill="white"/>
<path d="M50.9091 17.4605C50.527 17.4607 50.1486 17.3856 49.7956 17.2395C49.4425 17.0934 49.1217 16.8791 48.8516 16.6089C48.5814 16.3387 48.3671 16.018 48.221 15.6649C48.0749 15.3119 47.9998 14.9335 48 14.5514V5.82413C48 5.05259 48.3065 4.31265 48.8521 3.76709C49.3976 3.22153 50.1376 2.91504 50.9091 2.91504C51.6806 2.91504 52.4206 3.22153 52.9661 3.76709C53.5117 4.31265 53.8182 5.05259 53.8182 5.82413V14.5514C53.8184 14.9335 53.7433 15.3119 53.5972 15.6649C53.4511 16.018 53.2368 16.3387 52.9666 16.6089C52.6964 16.8791 52.3757 17.0934 52.0226 17.2395C51.6696 17.3856 51.2912 17.4607 50.9091 17.4605Z" fill="white"/>
</svg>
