<svg width="111" height="125" viewBox="0 0 111 125" fill="none" xmlns="http://www.w3.org/2000/svg">
<g id="replacement" filter="url(#filter0_d_2935_6668)">
<g id="Group 2904">
<g id="tank">
<path id="Vector" d="M82.2111 19.8438H32.6318V91.9591H83.7136V19.8438H82.2111Z" fill="#EFEDF1"/>
<path id="Vector_2" d="M50.6641 79.9404H65.6881V85.95H50.6641V79.9404Z" fill="#CDC8D1"/>
<path id="Vector_3" d="M58.1726 46.8872C63.1512 46.8872 67.187 42.8513 67.187 37.8728C67.187 32.8943 63.1512 28.8584 58.1726 28.8584C53.1941 28.8584 49.1582 32.8943 49.1582 37.8728C49.1582 42.8513 53.1941 46.8872 58.1726 46.8872Z" fill="white"/>
<path id="Vector_4" d="M83.7136 91.96V96.4672C83.7078 97.2623 83.3894 98.0233 82.8271 98.5856C82.2649 99.1478 81.5039 99.4663 80.7087 99.472H35.6366C34.8415 99.4663 34.0805 99.1478 33.5183 98.5856C32.956 98.0233 32.6376 97.2623 32.6318 96.4672V91.96H83.7136Z" fill="#817D86"/>
<path id="Vector_5" d="M82.2112 19.8446H34.1343C34.1341 19.0553 34.2894 18.2738 34.5913 17.5445C34.8932 16.8153 35.3359 16.1527 35.894 15.5947C36.4521 15.0366 37.1146 14.5939 37.8439 14.292C38.5731 13.99 39.3546 13.8347 40.1439 13.835H76.2016C76.9908 13.8347 77.7724 13.99 78.5016 14.292C79.2308 14.5939 79.8934 15.0366 80.4515 15.5947C81.0096 16.1527 81.4522 16.8153 81.7542 17.5445C82.0561 18.2738 82.2114 19.0553 82.2112 19.8446Z" fill="#817D86"/>
<path id="Vector_6" d="M37.1387 99.4717H79.206C79.206 99.4717 77.8388 102.867 76.9524 105.091C76.7313 105.648 76.3483 106.126 75.8529 106.463C75.3575 106.801 74.7723 106.982 74.1729 106.984H42.1717C41.5723 106.982 40.9872 106.801 40.4917 106.463C39.9963 106.126 39.6134 105.648 39.3923 105.091C38.4908 102.867 37.1387 99.4717 37.1387 99.4717Z" fill="#98949D"/>
<g id="layer25">
<g id="g9856">
<g id="path7405">
<path id="Vector_7" d="M80.7151 100.974H35.643C35.0503 100.976 34.4633 100.86 33.916 100.632C33.3686 100.405 32.8719 100.071 32.4547 99.6506C31.6125 98.8047 31.1384 97.6604 31.1357 96.4668V19.8442C31.1356 19.6469 31.1744 19.4515 31.2499 19.2691C31.3253 19.0868 31.436 18.9211 31.5755 18.7816C31.7151 18.6421 31.8807 18.5314 32.0631 18.4559C32.2454 18.3805 32.4408 18.3417 32.6381 18.3418H83.7199C83.9172 18.3417 84.1126 18.3805 84.2949 18.4559C84.4773 18.5314 84.6429 18.6421 84.7825 18.7816C84.922 18.9211 85.0327 19.0868 85.1081 19.2691C85.1836 19.4515 85.2224 19.6469 85.2223 19.8442V96.4668C85.2193 97.6618 84.7442 98.8073 83.9003 99.6535C83.4833 100.074 82.987 100.407 82.4402 100.633C81.8934 100.86 81.307 100.976 80.7151 100.974ZM34.1405 21.3466V96.4668C34.1413 96.865 34.2998 97.2467 34.5814 97.5283C34.863 97.8099 35.2447 97.9684 35.643 97.9692H80.7151C80.9122 97.9695 81.1074 97.9308 81.2895 97.8552C81.4715 97.7797 81.6368 97.6688 81.7758 97.529C82.0573 97.247 82.2161 96.8652 82.2175 96.4668V21.3466H34.1405Z" fill="black"/>
</g>
<g id="path7409">
<path id="Vector_8" d="M74.1729 108.487H42.1837C41.2825 108.489 40.4015 108.221 39.6551 107.716C38.9088 107.21 38.3318 106.492 37.9993 105.655L35.7501 100.031C35.6589 99.8031 35.6249 99.5562 35.6512 99.312C35.6775 99.0678 35.7633 98.8337 35.9009 98.6303C36.0386 98.4269 36.224 98.2604 36.441 98.1452C36.6579 98.03 36.8998 97.9698 37.1454 97.9697H79.2127C79.4583 97.9698 79.7001 98.03 79.9171 98.1452C80.134 98.2604 80.3194 98.4269 80.4571 98.6303C80.5948 98.8337 80.6805 99.0678 80.7068 99.312C80.7331 99.5562 80.6992 99.8031 80.608 100.031L78.3588 105.653C78.0264 106.491 77.4493 107.21 76.7026 107.715C75.956 108.221 75.0745 108.489 74.1729 108.487ZM39.3637 100.975L40.7898 104.538C40.9005 104.817 41.0927 105.057 41.3413 105.225C41.59 105.393 41.8835 105.483 42.1837 105.482H74.1729C74.4735 105.483 74.7674 105.393 75.0163 105.224C75.2651 105.056 75.4575 104.816 75.5682 104.537L76.9943 100.975H39.3637Z" fill="black"/>
</g>
<g id="path7413">
<path id="Vector_9" d="M83.7199 93.4628H32.6381C32.2397 93.4628 31.8575 93.3045 31.5758 93.0228C31.294 92.741 31.1357 92.3589 31.1357 91.9604C31.1357 91.5619 31.294 91.1798 31.5758 90.8981C31.8575 90.6163 32.2397 90.458 32.6381 90.458H83.7199C84.1183 90.458 84.5005 90.6163 84.7822 90.8981C85.064 91.1798 85.2223 91.5619 85.2223 91.9604C85.2223 92.3589 85.064 92.741 84.7822 93.0228C84.5005 93.3045 84.1183 93.4628 83.7199 93.4628Z" fill="black"/>
</g>
<g id="rect7417">
<path id="Vector_10" d="M65.6885 87.4529H50.6645C50.4672 87.453 50.2718 87.4142 50.0894 87.3388C49.9071 87.2633 49.7414 87.1526 49.6019 87.0131C49.4624 86.8736 49.3517 86.7079 49.2762 86.5256C49.2008 86.3432 49.162 86.1478 49.1621 85.9505V79.9409C49.162 79.7436 49.2008 79.5481 49.2762 79.3658C49.3517 79.1835 49.4624 79.0178 49.6019 78.8783C49.7414 78.7387 49.9071 78.6281 50.0894 78.5526C50.2718 78.4772 50.4672 78.4384 50.6645 78.4385H65.6885C65.8859 78.4384 66.0813 78.4772 66.2636 78.5526C66.446 78.6281 66.6116 78.7387 66.7512 78.8783C66.8907 79.0178 67.0014 79.1835 67.0768 79.3658C67.1523 79.5481 67.1911 79.7436 67.191 79.9409V85.9505C67.1911 86.1478 67.1523 86.3432 67.0768 86.5256C67.0014 86.7079 66.8907 86.8736 66.7512 87.0131C66.6116 87.1526 66.446 87.2633 66.2636 87.3388C66.0813 87.4142 65.8859 87.453 65.6885 87.4529ZM52.1669 84.4481H64.1861V81.4433H52.1669V84.4481Z" fill="black"/>
</g>
<g id="path7421">
<path id="Vector_11" d="M82.2121 21.3474H34.1352C33.9379 21.3475 33.7425 21.3088 33.5601 21.2333C33.3778 21.1578 33.2121 21.0472 33.0726 20.9076C32.9331 20.7681 32.8224 20.6024 32.7469 20.4201C32.6715 20.2378 32.6327 20.0424 32.6328 19.845C32.6347 17.8538 33.4264 15.9447 34.8341 14.5364C36.2418 13.1281 38.1506 12.3357 40.1418 12.333H76.2025C78.1941 12.3353 80.1035 13.1275 81.5117 14.5358C82.92 15.9441 83.7122 17.8534 83.7145 19.845C83.7146 20.0424 83.6759 20.2378 83.6004 20.4201C83.5249 20.6024 83.4143 20.7681 83.2747 20.9076C83.1352 21.0472 82.9695 21.1578 82.7872 21.2333C82.6049 21.3088 82.4095 21.3475 82.2121 21.3474ZM35.8959 18.3397L80.453 18.3426C80.141 17.4645 79.5651 16.7043 78.8041 16.1663C78.0432 15.6284 77.1344 15.339 76.2025 15.3378H40.1419C39.2109 15.3387 38.3029 15.6278 37.5427 16.1652C36.7825 16.7027 36.2072 17.4623 35.8959 18.3397Z" fill="black"/>
</g>
<g id="circle7425">
<path id="Vector_12" d="M58.1745 48.3911C56.0945 48.3911 54.0612 47.7743 52.3317 46.6187C50.6022 45.4631 49.2543 43.8206 48.4583 41.8989C47.6623 39.9772 47.454 37.8626 47.8598 35.8225C48.2656 33.7825 49.2672 31.9085 50.738 30.4377C52.2088 28.9669 54.0827 27.9653 56.1228 27.5595C58.1629 27.1537 60.2775 27.362 62.1992 28.158C64.1209 28.954 65.7634 30.3019 66.919 32.0314C68.0746 33.7609 68.6914 35.7942 68.6914 37.8742C68.688 40.6624 67.5789 43.3355 65.6073 45.307C63.6358 47.2786 60.9627 48.3877 58.1745 48.3911ZM58.1745 30.3622C56.6888 30.3622 55.2364 30.8028 54.0011 31.6282C52.7657 32.4537 51.8029 33.6269 51.2343 34.9995C50.6658 36.3722 50.517 37.8826 50.8069 39.3398C51.0967 40.797 51.8122 42.1355 52.8627 43.186C53.9133 44.2366 55.2518 44.9521 56.709 45.2419C58.1662 45.5318 59.6766 45.383 61.0493 44.8144C62.4219 44.2459 63.5951 43.283 64.4206 42.0477C65.246 40.8124 65.6866 39.36 65.6866 37.8742C65.6842 35.8827 64.892 33.9733 63.4838 32.565C62.0755 31.1568 60.1661 30.3646 58.1745 30.3622Z" fill="black"/>
</g>
<g id="path7429">
<path id="Vector_13" d="M58.173 39.3752C57.8759 39.3752 57.5855 39.287 57.3385 39.1219C57.0914 38.9568 56.8989 38.7222 56.7852 38.4477C56.6716 38.1732 56.6418 37.8712 56.6997 37.5798C56.7577 37.2884 56.9007 37.0207 57.1108 36.8106L59.2352 34.6861C59.3747 34.5466 59.5403 34.4359 59.7226 34.3604C59.9048 34.285 60.1002 34.2461 60.2974 34.2461C60.4947 34.2461 60.6901 34.285 60.8723 34.3604C61.0546 34.4359 61.2202 34.5466 61.3597 34.6861C61.4992 34.8256 61.6099 34.9912 61.6854 35.1735C61.7609 35.3557 61.7997 35.5511 61.7997 35.7484C61.7997 35.9456 61.7609 36.141 61.6854 36.3233C61.6099 36.5055 61.4992 36.6711 61.3597 36.8106L59.2352 38.935C59.0959 39.0748 58.9303 39.1856 58.748 39.2611C58.5657 39.3367 58.3703 39.3755 58.173 39.3752Z" fill="black"/>
</g>
</g>
</g>
</g>
<g id="Group 2905">
<path id="Vector_14" d="M29.1516 34.7494C29.7053 34.7494 30.1542 34.3005 30.1542 33.7468C30.1542 33.193 29.7053 32.7441 29.1516 32.7441C28.5978 32.7441 28.1489 33.193 28.1489 33.7468C28.1489 34.3005 28.5978 34.7494 29.1516 34.7494Z" fill="white"/>
<path id="Vector_15" d="M43.2702 69.4008C43.824 69.4008 44.2729 68.9519 44.2729 68.3982C44.2729 67.8444 43.824 67.3955 43.2702 67.3955C42.7165 67.3955 42.2676 67.8444 42.2676 68.3982C42.2676 68.9519 42.7165 69.4008 43.2702 69.4008Z" fill="black"/>
<path id="Vector_16" d="M21.4509 48.8666C22.0046 48.8666 22.4535 48.4177 22.4535 47.864C22.4535 47.3102 22.0046 46.8613 21.4509 46.8613C20.8971 46.8613 20.4482 47.3102 20.4482 47.864C20.4482 48.4177 20.8971 48.8666 21.4509 48.8666Z" fill="white"/>
<g id="Group 2900">
<path id="Vector_17" d="M28.1479 50.0918L35.1274 57.0712L28.1479 64.0507L21.1685 57.0712L28.1479 50.0918Z" fill="#F9ED20"/>
<path id="Vector_18" d="M39.6958 55.8444C34.0346 55.8444 29.4288 51.2386 29.4288 45.5773C29.4288 44.8686 28.8541 44.2939 28.1454 44.2939C27.4367 44.2939 26.862 44.8686 26.862 45.5773C26.862 51.2386 22.2562 55.8444 16.5949 55.8444C15.8862 55.8444 15.3115 56.4191 15.3115 57.1278C15.3115 57.8365 15.8862 58.4112 16.5949 58.4112C22.2562 58.4112 26.862 63.017 26.862 68.6783C26.862 69.3869 27.4367 69.9616 28.1454 69.9616C28.8541 69.9616 29.4288 69.3869 29.4288 68.6783C29.4288 63.017 34.0346 58.4112 39.6958 58.4112C40.4045 58.4112 40.9792 57.8365 40.9792 57.1278C40.9792 56.4191 40.4045 55.8444 39.6958 55.8444ZM28.1454 63.0872C26.8855 60.4949 24.7783 58.3877 22.186 57.1278C24.7783 55.8679 26.8855 53.7607 28.1454 51.1684C29.4053 53.7607 31.5125 55.8679 34.1048 57.1278C31.5125 58.3877 29.4053 60.4949 28.1454 63.0872Z" fill="black"/>
</g>
<path id="Vector_19" d="M16.7581 42.0485C17.3118 42.0485 17.7608 41.5995 17.7608 41.0459V39.0406H19.7661C20.3197 39.0406 20.7687 38.5916 20.7687 38.0379C20.7687 37.4843 20.3197 37.0353 19.7661 37.0353H17.7608V35.03C17.7608 34.4763 17.3118 34.0273 16.7581 34.0273C16.2045 34.0273 15.7555 34.4763 15.7555 35.03V37.0353H13.7502C13.1965 37.0353 12.7476 37.4843 12.7476 38.0379C12.7476 38.5916 13.1965 39.0406 13.7502 39.0406H15.7555V41.0459C15.7555 41.5995 16.2045 42.0485 16.7581 42.0485Z" fill="white"/>
</g>
<g id="Group 2906">
<path id="Vector_20" d="M87.6511 22.4897C88.066 22.4897 88.4023 22.1534 88.4023 21.7385C88.4023 21.3236 88.066 20.9873 87.6511 20.9873C87.2362 20.9873 86.8999 21.3236 86.8999 21.7385C86.8999 22.1534 87.2362 22.4897 87.6511 22.4897Z" fill="white"/>
<g id="Group 2903">
<path id="Vector_21" d="M78.6333 25.7217L81.1021 28.1905L78.6333 30.6593L76.1645 28.1905L78.6333 25.7217Z" fill="#F9ED20"/>
<path id="Vector_22" d="M74.1902 28.9198C76.2612 28.9198 77.9462 30.6047 77.9462 32.6758C77.9462 33.0906 78.2826 33.427 78.6974 33.427C79.1122 33.427 79.4486 33.0906 79.4486 32.6758C79.4486 30.6047 81.1335 28.9198 83.2046 28.9198C83.6194 28.9198 83.9558 28.5834 83.9558 28.1686C83.9558 27.7538 83.6194 27.4174 83.2046 27.4174C81.1335 27.4174 79.4486 25.7324 79.4486 23.6614C79.4486 23.2465 79.1122 22.9102 78.6974 22.9102C78.2826 22.9102 77.9462 23.2465 77.9462 23.6614C77.9462 25.7324 76.2612 27.4174 74.1902 27.4174C73.7754 27.4174 73.439 27.7538 73.439 28.1686C73.439 28.5834 73.7754 28.9198 74.1902 28.9198ZM78.6974 26.3666C79.1417 27.1041 79.7618 27.7242 80.4994 28.1686C79.7618 28.6129 79.1417 29.233 78.6974 29.9706C78.253 29.233 77.6329 28.6129 76.8954 28.1686C77.6329 27.7242 78.253 27.1041 78.6974 26.3666Z" fill="black"/>
</g>
<path id="Vector_23" d="M93.7524 26.9969C94.1672 26.9969 94.5036 26.6605 94.5036 26.2457V24.7433H96.006C96.4208 24.7433 96.7572 24.4069 96.7572 23.9921C96.7572 23.5773 96.4208 23.2409 96.006 23.2409H94.5036V21.7385C94.5036 21.3237 94.1672 20.9873 93.7524 20.9873C93.3376 20.9873 93.0012 21.3237 93.0012 21.7385V23.2409H91.4988C91.0839 23.2409 90.7476 23.5773 90.7476 23.9921C90.7476 24.4069 91.0839 24.7433 91.4988 24.7433H93.0012V26.2457C93.0012 26.6605 93.3376 26.9969 93.7524 26.9969Z" fill="white"/>
</g>
<path id="Vector_24" d="M87.9833 8.4873C87.5685 8.4873 87.2321 8.82369 87.2321 9.23851V10.7409H85.7297C85.3149 10.7409 84.9785 11.0773 84.9785 11.4921C84.9785 11.9069 85.3149 12.2433 85.7297 12.2433H87.2321V13.7457C87.2321 14.1605 87.5685 14.4969 87.9833 14.4969C88.3981 14.4969 88.7345 14.1605 88.7345 13.7457V12.2433H90.2369C90.6517 12.2433 90.9881 11.9069 90.9881 11.4921C90.9881 11.0773 90.6517 10.7409 90.2369 10.7409H88.7345V9.23851C88.7345 8.82369 88.3981 8.4873 87.9833 8.4873Z" fill="white"/>
<g id="Group 2907">
<path id="Vector_25" d="M88.9725 69.5837C89.4805 69.5837 89.8923 69.1719 89.8923 68.6639C89.8923 68.1559 89.4805 67.7441 88.9725 67.7441C88.4645 67.7441 88.0527 68.1559 88.0527 68.6639C88.0527 69.1719 88.4645 69.5837 88.9725 69.5837Z" fill="white"/>
<path id="Vector_26" d="M97.2132 90.7751C97.7212 90.7751 98.133 90.3633 98.133 89.8553C98.133 89.3473 97.7212 88.9355 97.2132 88.9355C96.7053 88.9355 96.2935 89.3473 96.2935 89.8553C96.2935 90.3633 96.7053 90.7751 97.2132 90.7751Z" fill="white"/>
<g id="Group 2901">
<path id="Vector_27" d="M91.0288 79.5645L94.0516 82.5873L91.0288 85.6101L88.006 82.5873L91.0288 79.5645Z" fill="#F9ED20"/>
<path id="Vector_28" d="M96.4814 81.504C93.9456 81.504 91.8826 79.4409 91.8826 76.9051C91.8826 76.3972 91.4707 75.9854 90.9628 75.9854C90.4549 75.9854 90.043 76.3972 90.043 76.9051C90.043 79.4409 87.98 81.504 85.4442 81.504C84.9363 81.504 84.5244 81.9158 84.5244 82.4237C84.5244 82.9316 84.9363 83.3435 85.4442 83.3435C87.98 83.3435 90.043 85.4065 90.043 87.9423C90.043 88.4502 90.4549 88.8621 90.9628 88.8621C91.4707 88.8621 91.8826 88.4502 91.8826 87.9423C91.8826 85.4065 93.9456 83.3435 96.4814 83.3435C96.9893 83.3435 97.4012 82.9316 97.4012 82.4237C97.4012 81.9158 96.9893 81.504 96.4814 81.504ZM90.9628 84.6301C90.4187 83.7269 89.6595 82.9678 88.7564 82.4237C89.6596 81.8797 90.4187 81.1204 90.9628 80.2174C91.5068 81.1205 92.2661 81.8797 93.1691 82.4237C92.2661 82.9678 91.5068 83.727 90.9628 84.6301Z" fill="black"/>
</g>
<path id="Vector_29" d="M76.4266 78.6345C76.9345 78.6345 77.3464 78.2226 77.3464 77.7147V75.8752H79.1859C79.6938 75.8752 80.1057 75.4633 80.1057 74.9554C80.1057 74.4475 79.6938 74.0357 79.1859 74.0357H77.3464V72.1961C77.3464 71.6882 76.9345 71.2764 76.4266 71.2764C75.9187 71.2764 75.5069 71.6882 75.5069 72.1961V74.0357H73.6673C73.1594 74.0357 72.7476 74.4475 72.7476 74.9554C72.7476 75.4633 73.1594 75.8752 73.6673 75.8752H75.5069V77.7147C75.5069 78.2226 75.9187 78.6345 76.4266 78.6345Z" fill="black"/>
</g>
</g>
</g>
<defs>
<filter id="filter0_d_2935_6668" x="-5.25049" y="0.487305" width="124" height="124" filterUnits="userSpaceOnUse" color-interpolation-filters="sRGB">
<feFlood flood-opacity="0" result="BackgroundImageFix"/>
<feColorMatrix in="SourceAlpha" type="matrix" values="0 0 0 0 0 0 0 0 0 0 0 0 0 0 0 0 0 0 127 0" result="hardAlpha"/>
<feOffset dy="4"/>
<feGaussianBlur stdDeviation="6"/>
<feColorMatrix type="matrix" values="0 0 0 0 0 0 0 0 0 0 0 0 0 0 0 0 0 0 0.18 0"/>
<feBlend mode="normal" in2="BackgroundImageFix" result="effect1_dropShadow_2935_6668"/>
<feBlend mode="normal" in="SourceGraphic" in2="effect1_dropShadow_2935_6668" result="shape"/>
</filter>
</defs>
</svg>
